<?xml version="1.0" encoding="utf-8"?>
<svg xmlns="http://www.w3.org/2000/svg" xmlns:xlink="http://www.w3.org/1999/xlink" width="600" height="400" viewBox="0 0 2400 1600">
<defs>
  <clipPath id="clip000">
    <rect x="0" y="0" width="2400" height="1600"/>
  </clipPath>
</defs>
<path clip-path="url(#clip000)" d="M0 1600 L2400 1600 L2400 0 L0 0  Z" fill="#ffffff" fill-rule="evenodd" fill-opacity="1"/>
<defs>
  <clipPath id="clip001">
    <rect x="480" y="0" width="1681" height="1600"/>
  </clipPath>
</defs>
<path clip-path="url(#clip000)" d="M186.274 1423.18 L2352.76 1423.18 L2352.76 47.2441 L186.274 47.2441  Z" fill="#ffffff" fill-rule="evenodd" fill-opacity="1"/>
<defs>
  <clipPath id="clip002">
    <rect x="186" y="47" width="2167" height="1377"/>
  </clipPath>
</defs>
<polyline clip-path="url(#clip002)" style="stroke:#000000; stroke-linecap:round; stroke-linejoin:round; stroke-width:2; stroke-opacity:0.1; fill:none" points="247.59,1423.18 247.59,47.2441 "/>
<polyline clip-path="url(#clip002)" style="stroke:#000000; stroke-linecap:round; stroke-linejoin:round; stroke-width:2; stroke-opacity:0.1; fill:none" points="758.552,1423.18 758.552,47.2441 "/>
<polyline clip-path="url(#clip002)" style="stroke:#000000; stroke-linecap:round; stroke-linejoin:round; stroke-width:2; stroke-opacity:0.1; fill:none" points="1269.51,1423.18 1269.51,47.2441 "/>
<polyline clip-path="url(#clip002)" style="stroke:#000000; stroke-linecap:round; stroke-linejoin:round; stroke-width:2; stroke-opacity:0.1; fill:none" points="1780.48,1423.18 1780.48,47.2441 "/>
<polyline clip-path="url(#clip002)" style="stroke:#000000; stroke-linecap:round; stroke-linejoin:round; stroke-width:2; stroke-opacity:0.1; fill:none" points="2291.44,1423.18 2291.44,47.2441 "/>
<polyline clip-path="url(#clip002)" style="stroke:#000000; stroke-linecap:round; stroke-linejoin:round; stroke-width:2; stroke-opacity:0.1; fill:none" points="186.274,1384.24 2352.76,1384.24 "/>
<polyline clip-path="url(#clip002)" style="stroke:#000000; stroke-linecap:round; stroke-linejoin:round; stroke-width:2; stroke-opacity:0.1; fill:none" points="186.274,1059.73 2352.76,1059.73 "/>
<polyline clip-path="url(#clip002)" style="stroke:#000000; stroke-linecap:round; stroke-linejoin:round; stroke-width:2; stroke-opacity:0.1; fill:none" points="186.274,735.212 2352.76,735.212 "/>
<polyline clip-path="url(#clip002)" style="stroke:#000000; stroke-linecap:round; stroke-linejoin:round; stroke-width:2; stroke-opacity:0.1; fill:none" points="186.274,410.699 2352.76,410.699 "/>
<polyline clip-path="url(#clip002)" style="stroke:#000000; stroke-linecap:round; stroke-linejoin:round; stroke-width:2; stroke-opacity:0.1; fill:none" points="186.274,86.1857 2352.76,86.1857 "/>
<polyline clip-path="url(#clip000)" style="stroke:#000000; stroke-linecap:round; stroke-linejoin:round; stroke-width:4; stroke-opacity:1; fill:none" points="186.274,1423.18 2352.76,1423.18 "/>
<polyline clip-path="url(#clip000)" style="stroke:#000000; stroke-linecap:round; stroke-linejoin:round; stroke-width:4; stroke-opacity:1; fill:none" points="247.59,1423.18 247.59,1404.28 "/>
<polyline clip-path="url(#clip000)" style="stroke:#000000; stroke-linecap:round; stroke-linejoin:round; stroke-width:4; stroke-opacity:1; fill:none" points="758.552,1423.18 758.552,1404.28 "/>
<polyline clip-path="url(#clip000)" style="stroke:#000000; stroke-linecap:round; stroke-linejoin:round; stroke-width:4; stroke-opacity:1; fill:none" points="1269.51,1423.18 1269.51,1404.28 "/>
<polyline clip-path="url(#clip000)" style="stroke:#000000; stroke-linecap:round; stroke-linejoin:round; stroke-width:4; stroke-opacity:1; fill:none" points="1780.48,1423.18 1780.48,1404.28 "/>
<polyline clip-path="url(#clip000)" style="stroke:#000000; stroke-linecap:round; stroke-linejoin:round; stroke-width:4; stroke-opacity:1; fill:none" points="2291.44,1423.18 2291.44,1404.28 "/>
<path clip-path="url(#clip000)" d="M247.59 1454.1 Q243.978 1454.1 242.15 1457.66 Q240.344 1461.2 240.344 1468.33 Q240.344 1475.44 242.15 1479.01 Q243.978 1482.55 247.59 1482.55 Q251.224 1482.55 253.029 1479.01 Q254.858 1475.44 254.858 1468.33 Q254.858 1461.2 253.029 1457.66 Q251.224 1454.1 247.59 1454.1 M247.59 1450.39 Q253.4 1450.39 256.455 1455 Q259.534 1459.58 259.534 1468.33 Q259.534 1477.06 256.455 1481.67 Q253.4 1486.25 247.59 1486.25 Q241.779 1486.25 238.701 1481.67 Q235.645 1477.06 235.645 1468.33 Q235.645 1459.58 238.701 1455 Q241.779 1450.39 247.59 1450.39 Z" fill="#000000" fill-rule="nonzero" fill-opacity="1" /><path clip-path="url(#clip000)" d="M748.934 1481.64 L756.573 1481.64 L756.573 1455.28 L748.263 1456.95 L748.263 1452.69 L756.527 1451.02 L761.203 1451.02 L761.203 1481.64 L768.842 1481.64 L768.842 1485.58 L748.934 1485.58 L748.934 1481.64 Z" fill="#000000" fill-rule="nonzero" fill-opacity="1" /><path clip-path="url(#clip000)" d="M1264.17 1481.64 L1280.49 1481.64 L1280.49 1485.58 L1258.54 1485.58 L1258.54 1481.64 Q1261.2 1478.89 1265.79 1474.26 Q1270.39 1469.61 1271.58 1468.27 Q1273.82 1465.74 1274.7 1464.01 Q1275.6 1462.25 1275.6 1460.56 Q1275.6 1457.8 1273.66 1456.07 Q1271.74 1454.33 1268.64 1454.33 Q1266.44 1454.33 1263.98 1455.09 Q1261.55 1455.86 1258.77 1457.41 L1258.77 1452.69 Q1261.6 1451.55 1264.05 1450.97 Q1266.51 1450.39 1268.54 1450.39 Q1273.91 1450.39 1277.11 1453.08 Q1280.3 1455.77 1280.3 1460.26 Q1280.3 1462.39 1279.49 1464.31 Q1278.7 1466.2 1276.6 1468.8 Q1276.02 1469.47 1272.92 1472.69 Q1269.82 1475.88 1264.17 1481.64 Z" fill="#000000" fill-rule="nonzero" fill-opacity="1" /><path clip-path="url(#clip000)" d="M1784.73 1466.95 Q1788.08 1467.66 1789.96 1469.93 Q1791.85 1472.2 1791.85 1475.53 Q1791.85 1480.65 1788.34 1483.45 Q1784.82 1486.25 1778.34 1486.25 Q1776.16 1486.25 1773.85 1485.81 Q1771.55 1485.39 1769.1 1484.54 L1769.1 1480.02 Q1771.04 1481.16 1773.36 1481.74 Q1775.67 1482.32 1778.2 1482.32 Q1782.6 1482.32 1784.89 1480.58 Q1787.2 1478.84 1787.2 1475.53 Q1787.2 1472.48 1785.05 1470.77 Q1782.92 1469.03 1779.1 1469.03 L1775.07 1469.03 L1775.07 1465.19 L1779.29 1465.19 Q1782.73 1465.19 1784.56 1463.82 Q1786.39 1462.43 1786.39 1459.84 Q1786.39 1457.18 1784.49 1455.77 Q1782.62 1454.33 1779.1 1454.33 Q1777.18 1454.33 1774.98 1454.75 Q1772.78 1455.16 1770.14 1456.04 L1770.14 1451.88 Q1772.8 1451.14 1775.12 1450.77 Q1777.46 1450.39 1779.52 1450.39 Q1784.84 1450.39 1787.94 1452.83 Q1791.04 1455.23 1791.04 1459.35 Q1791.04 1462.22 1789.4 1464.21 Q1787.76 1466.18 1784.73 1466.95 Z" fill="#000000" fill-rule="nonzero" fill-opacity="1" /><path clip-path="url(#clip000)" d="M2294.45 1455.09 L2282.64 1473.54 L2294.45 1473.54 L2294.45 1455.09 M2293.22 1451.02 L2299.1 1451.02 L2299.1 1473.54 L2304.03 1473.54 L2304.03 1477.43 L2299.1 1477.43 L2299.1 1485.58 L2294.45 1485.58 L2294.45 1477.43 L2278.85 1477.43 L2278.85 1472.92 L2293.22 1451.02 Z" fill="#000000" fill-rule="nonzero" fill-opacity="1" /><path clip-path="url(#clip000)" d="M1286.13 1532.4 L1273.24 1549.74 L1286.8 1568.04 L1279.89 1568.04 L1269.51 1554.04 L1259.14 1568.04 L1252.23 1568.04 L1266.08 1549.39 L1253.41 1532.4 L1260.32 1532.4 L1269.77 1545.1 L1279.22 1532.4 L1286.13 1532.4 Z" fill="#000000" fill-rule="nonzero" fill-opacity="1" /><polyline clip-path="url(#clip000)" style="stroke:#000000; stroke-linecap:round; stroke-linejoin:round; stroke-width:4; stroke-opacity:1; fill:none" points="186.274,1423.18 186.274,47.2441 "/>
<polyline clip-path="url(#clip000)" style="stroke:#000000; stroke-linecap:round; stroke-linejoin:round; stroke-width:4; stroke-opacity:1; fill:none" points="186.274,1384.24 205.172,1384.24 "/>
<polyline clip-path="url(#clip000)" style="stroke:#000000; stroke-linecap:round; stroke-linejoin:round; stroke-width:4; stroke-opacity:1; fill:none" points="186.274,1059.73 205.172,1059.73 "/>
<polyline clip-path="url(#clip000)" style="stroke:#000000; stroke-linecap:round; stroke-linejoin:round; stroke-width:4; stroke-opacity:1; fill:none" points="186.274,735.212 205.172,735.212 "/>
<polyline clip-path="url(#clip000)" style="stroke:#000000; stroke-linecap:round; stroke-linejoin:round; stroke-width:4; stroke-opacity:1; fill:none" points="186.274,410.699 205.172,410.699 "/>
<polyline clip-path="url(#clip000)" style="stroke:#000000; stroke-linecap:round; stroke-linejoin:round; stroke-width:4; stroke-opacity:1; fill:none" points="186.274,86.1857 205.172,86.1857 "/>
<path clip-path="url(#clip000)" d="M62.9365 1370.04 Q59.3254 1370.04 57.4967 1373.6 Q55.6912 1377.14 55.6912 1384.27 Q55.6912 1391.38 57.4967 1394.94 Q59.3254 1398.49 62.9365 1398.49 Q66.5707 1398.49 68.3763 1394.94 Q70.205 1391.38 70.205 1384.27 Q70.205 1377.14 68.3763 1373.6 Q66.5707 1370.04 62.9365 1370.04 M62.9365 1366.33 Q68.7467 1366.33 71.8022 1370.94 Q74.8809 1375.52 74.8809 1384.27 Q74.8809 1393 71.8022 1397.61 Q68.7467 1402.19 62.9365 1402.19 Q57.1264 1402.19 54.0477 1397.61 Q50.9921 1393 50.9921 1384.27 Q50.9921 1375.52 54.0477 1370.94 Q57.1264 1366.33 62.9365 1366.33 Z" fill="#000000" fill-rule="nonzero" fill-opacity="1" /><path clip-path="url(#clip000)" d="M83.0984 1395.64 L87.9827 1395.64 L87.9827 1401.52 L83.0984 1401.52 L83.0984 1395.64 Z" fill="#000000" fill-rule="nonzero" fill-opacity="1" /><path clip-path="url(#clip000)" d="M108.168 1370.04 Q104.557 1370.04 102.728 1373.6 Q100.922 1377.14 100.922 1384.27 Q100.922 1391.38 102.728 1394.94 Q104.557 1398.49 108.168 1398.49 Q111.802 1398.49 113.608 1394.94 Q115.436 1391.38 115.436 1384.27 Q115.436 1377.14 113.608 1373.6 Q111.802 1370.04 108.168 1370.04 M108.168 1366.33 Q113.978 1366.33 117.033 1370.94 Q120.112 1375.52 120.112 1384.27 Q120.112 1393 117.033 1397.61 Q113.978 1402.19 108.168 1402.19 Q102.358 1402.19 99.2789 1397.61 Q96.2234 1393 96.2234 1384.27 Q96.2234 1375.52 99.2789 1370.94 Q102.358 1366.33 108.168 1366.33 Z" fill="#000000" fill-rule="nonzero" fill-opacity="1" /><path clip-path="url(#clip000)" d="M138.33 1370.04 Q134.719 1370.04 132.89 1373.6 Q131.084 1377.14 131.084 1384.27 Q131.084 1391.38 132.89 1394.94 Q134.719 1398.49 138.33 1398.49 Q141.964 1398.49 143.769 1394.94 Q145.598 1391.38 145.598 1384.27 Q145.598 1377.14 143.769 1373.6 Q141.964 1370.04 138.33 1370.04 M138.33 1366.33 Q144.14 1366.33 147.195 1370.94 Q150.274 1375.52 150.274 1384.27 Q150.274 1393 147.195 1397.61 Q144.14 1402.19 138.33 1402.19 Q132.519 1402.19 129.441 1397.61 Q126.385 1393 126.385 1384.27 Q126.385 1375.52 129.441 1370.94 Q132.519 1366.33 138.33 1366.33 Z" fill="#000000" fill-rule="nonzero" fill-opacity="1" /><path clip-path="url(#clip000)" d="M63.9319 1045.52 Q60.3208 1045.52 58.4921 1049.09 Q56.6865 1052.63 56.6865 1059.76 Q56.6865 1066.87 58.4921 1070.43 Q60.3208 1073.97 63.9319 1073.97 Q67.5661 1073.97 69.3717 1070.43 Q71.2004 1066.87 71.2004 1059.76 Q71.2004 1052.63 69.3717 1049.09 Q67.5661 1045.52 63.9319 1045.52 M63.9319 1041.82 Q69.742 1041.82 72.7976 1046.43 Q75.8763 1051.01 75.8763 1059.76 Q75.8763 1068.49 72.7976 1073.09 Q69.742 1077.68 63.9319 1077.68 Q58.1217 1077.68 55.043 1073.09 Q51.9875 1068.49 51.9875 1059.76 Q51.9875 1051.01 55.043 1046.43 Q58.1217 1041.82 63.9319 1041.82 Z" fill="#000000" fill-rule="nonzero" fill-opacity="1" /><path clip-path="url(#clip000)" d="M84.0938 1071.13 L88.978 1071.13 L88.978 1077.01 L84.0938 1077.01 L84.0938 1071.13 Z" fill="#000000" fill-rule="nonzero" fill-opacity="1" /><path clip-path="url(#clip000)" d="M103.191 1073.07 L119.51 1073.07 L119.51 1077.01 L97.566 1077.01 L97.566 1073.07 Q100.228 1070.32 104.811 1065.69 Q109.418 1061.03 110.598 1059.69 Q112.844 1057.17 113.723 1055.43 Q114.626 1053.67 114.626 1051.98 Q114.626 1049.23 112.682 1047.49 Q110.76 1045.76 107.658 1045.76 Q105.459 1045.76 103.006 1046.52 Q100.575 1047.28 97.7974 1048.83 L97.7974 1044.11 Q100.621 1042.98 103.075 1042.4 Q105.529 1041.82 107.566 1041.82 Q112.936 1041.82 116.131 1044.51 Q119.325 1047.19 119.325 1051.68 Q119.325 1053.81 118.515 1055.73 Q117.728 1057.63 115.621 1060.22 Q115.043 1060.89 111.941 1064.11 Q108.839 1067.31 103.191 1073.07 Z" fill="#000000" fill-rule="nonzero" fill-opacity="1" /><path clip-path="url(#clip000)" d="M129.371 1042.45 L147.728 1042.45 L147.728 1046.38 L133.654 1046.38 L133.654 1054.85 Q134.672 1054.51 135.691 1054.34 Q136.709 1054.16 137.728 1054.16 Q143.515 1054.16 146.894 1057.33 Q150.274 1060.5 150.274 1065.92 Q150.274 1071.5 146.802 1074.6 Q143.33 1077.68 137.01 1077.68 Q134.834 1077.68 132.566 1077.31 Q130.32 1076.94 127.913 1076.19 L127.913 1071.5 Q129.996 1072.63 132.219 1073.19 Q134.441 1073.74 136.918 1073.74 Q140.922 1073.74 143.26 1071.63 Q145.598 1069.53 145.598 1065.92 Q145.598 1062.31 143.26 1060.2 Q140.922 1058.09 136.918 1058.09 Q135.043 1058.09 133.168 1058.51 Q131.316 1058.93 129.371 1059.81 L129.371 1042.45 Z" fill="#000000" fill-rule="nonzero" fill-opacity="1" /><path clip-path="url(#clip000)" d="M62.9365 721.011 Q59.3254 721.011 57.4967 724.575 Q55.6912 728.117 55.6912 735.247 Q55.6912 742.353 57.4967 745.918 Q59.3254 749.46 62.9365 749.46 Q66.5707 749.46 68.3763 745.918 Q70.205 742.353 70.205 735.247 Q70.205 728.117 68.3763 724.575 Q66.5707 721.011 62.9365 721.011 M62.9365 717.307 Q68.7467 717.307 71.8022 721.913 Q74.8809 726.497 74.8809 735.247 Q74.8809 743.973 71.8022 748.58 Q68.7467 753.163 62.9365 753.163 Q57.1264 753.163 54.0477 748.58 Q50.9921 743.973 50.9921 735.247 Q50.9921 726.497 54.0477 721.913 Q57.1264 717.307 62.9365 717.307 Z" fill="#000000" fill-rule="nonzero" fill-opacity="1" /><path clip-path="url(#clip000)" d="M83.0984 746.612 L87.9827 746.612 L87.9827 752.492 L83.0984 752.492 L83.0984 746.612 Z" fill="#000000" fill-rule="nonzero" fill-opacity="1" /><path clip-path="url(#clip000)" d="M98.2141 717.932 L116.57 717.932 L116.57 721.867 L102.496 721.867 L102.496 730.339 Q103.515 729.992 104.534 729.83 Q105.552 729.645 106.571 729.645 Q112.358 729.645 115.737 732.816 Q119.117 735.987 119.117 741.404 Q119.117 746.983 115.645 750.085 Q112.172 753.163 105.853 753.163 Q103.677 753.163 101.409 752.793 Q99.1632 752.423 96.7558 751.682 L96.7558 746.983 Q98.8391 748.117 101.061 748.673 Q103.284 749.228 105.76 749.228 Q109.765 749.228 112.103 747.122 Q114.441 745.015 114.441 741.404 Q114.441 737.793 112.103 735.687 Q109.765 733.58 105.76 733.58 Q103.885 733.58 102.01 733.997 Q100.159 734.413 98.2141 735.293 L98.2141 717.932 Z" fill="#000000" fill-rule="nonzero" fill-opacity="1" /><path clip-path="url(#clip000)" d="M138.33 721.011 Q134.719 721.011 132.89 724.575 Q131.084 728.117 131.084 735.247 Q131.084 742.353 132.89 745.918 Q134.719 749.46 138.33 749.46 Q141.964 749.46 143.769 745.918 Q145.598 742.353 145.598 735.247 Q145.598 728.117 143.769 724.575 Q141.964 721.011 138.33 721.011 M138.33 717.307 Q144.14 717.307 147.195 721.913 Q150.274 726.497 150.274 735.247 Q150.274 743.973 147.195 748.58 Q144.14 753.163 138.33 753.163 Q132.519 753.163 129.441 748.58 Q126.385 743.973 126.385 735.247 Q126.385 726.497 129.441 721.913 Q132.519 717.307 138.33 717.307 Z" fill="#000000" fill-rule="nonzero" fill-opacity="1" /><path clip-path="url(#clip000)" d="M63.9319 396.498 Q60.3208 396.498 58.4921 400.062 Q56.6865 403.604 56.6865 410.734 Q56.6865 417.84 58.4921 421.405 Q60.3208 424.946 63.9319 424.946 Q67.5661 424.946 69.3717 421.405 Q71.2004 417.84 71.2004 410.734 Q71.2004 403.604 69.3717 400.062 Q67.5661 396.498 63.9319 396.498 M63.9319 392.794 Q69.742 392.794 72.7976 397.4 Q75.8763 401.984 75.8763 410.734 Q75.8763 419.46 72.7976 424.067 Q69.742 428.65 63.9319 428.65 Q58.1217 428.65 55.043 424.067 Q51.9875 419.46 51.9875 410.734 Q51.9875 401.984 55.043 397.4 Q58.1217 392.794 63.9319 392.794 Z" fill="#000000" fill-rule="nonzero" fill-opacity="1" /><path clip-path="url(#clip000)" d="M84.0938 422.099 L88.978 422.099 L88.978 427.979 L84.0938 427.979 L84.0938 422.099 Z" fill="#000000" fill-rule="nonzero" fill-opacity="1" /><path clip-path="url(#clip000)" d="M97.9826 393.419 L120.205 393.419 L120.205 395.41 L107.658 427.979 L102.774 427.979 L114.58 397.354 L97.9826 397.354 L97.9826 393.419 Z" fill="#000000" fill-rule="nonzero" fill-opacity="1" /><path clip-path="url(#clip000)" d="M129.371 393.419 L147.728 393.419 L147.728 397.354 L133.654 397.354 L133.654 405.826 Q134.672 405.479 135.691 405.317 Q136.709 405.132 137.728 405.132 Q143.515 405.132 146.894 408.303 Q150.274 411.474 150.274 416.891 Q150.274 422.47 146.802 425.571 Q143.33 428.65 137.01 428.65 Q134.834 428.65 132.566 428.28 Q130.32 427.909 127.913 427.169 L127.913 422.47 Q129.996 423.604 132.219 424.159 Q134.441 424.715 136.918 424.715 Q140.922 424.715 143.26 422.608 Q145.598 420.502 145.598 416.891 Q145.598 413.28 143.26 411.173 Q140.922 409.067 136.918 409.067 Q135.043 409.067 133.168 409.484 Q131.316 409.9 129.371 410.78 L129.371 393.419 Z" fill="#000000" fill-rule="nonzero" fill-opacity="1" /><path clip-path="url(#clip000)" d="M53.7467 99.5305 L61.3856 99.5305 L61.3856 73.1649 L53.0754 74.8316 L53.0754 70.5723 L61.3393 68.9057 L66.0152 68.9057 L66.0152 99.5305 L73.654 99.5305 L73.654 103.466 L53.7467 103.466 L53.7467 99.5305 Z" fill="#000000" fill-rule="nonzero" fill-opacity="1" /><path clip-path="url(#clip000)" d="M83.0984 97.5861 L87.9827 97.5861 L87.9827 103.466 L83.0984 103.466 L83.0984 97.5861 Z" fill="#000000" fill-rule="nonzero" fill-opacity="1" /><path clip-path="url(#clip000)" d="M108.168 71.9844 Q104.557 71.9844 102.728 75.5492 Q100.922 79.0908 100.922 86.2204 Q100.922 93.3268 102.728 96.8916 Q104.557 100.433 108.168 100.433 Q111.802 100.433 113.608 96.8916 Q115.436 93.3268 115.436 86.2204 Q115.436 79.0908 113.608 75.5492 Q111.802 71.9844 108.168 71.9844 M108.168 68.2807 Q113.978 68.2807 117.033 72.8871 Q120.112 77.4704 120.112 86.2204 Q120.112 94.9472 117.033 99.5537 Q113.978 104.137 108.168 104.137 Q102.358 104.137 99.2789 99.5537 Q96.2234 94.9472 96.2234 86.2204 Q96.2234 77.4704 99.2789 72.8871 Q102.358 68.2807 108.168 68.2807 Z" fill="#000000" fill-rule="nonzero" fill-opacity="1" /><path clip-path="url(#clip000)" d="M138.33 71.9844 Q134.719 71.9844 132.89 75.5492 Q131.084 79.0908 131.084 86.2204 Q131.084 93.3268 132.89 96.8916 Q134.719 100.433 138.33 100.433 Q141.964 100.433 143.769 96.8916 Q145.598 93.3268 145.598 86.2204 Q145.598 79.0908 143.769 75.5492 Q141.964 71.9844 138.33 71.9844 M138.33 68.2807 Q144.14 68.2807 147.195 72.8871 Q150.274 77.4704 150.274 86.2204 Q150.274 94.9472 147.195 99.5537 Q144.14 104.137 138.33 104.137 Q132.519 104.137 129.441 99.5537 Q126.385 94.9472 126.385 86.2204 Q126.385 77.4704 129.441 72.8871 Q132.519 68.2807 138.33 68.2807 Z" fill="#000000" fill-rule="nonzero" fill-opacity="1" /><polyline clip-path="url(#clip002)" style="stroke:#009af9; stroke-linecap:round; stroke-linejoin:round; stroke-width:4; stroke-opacity:1; fill:none" points="247.59,1384.24 268.234,1384.24 288.879,1384.24 309.524,1384.24 330.169,1384.24 350.814,1384.24 371.459,1384.24 392.104,1384.24 412.749,1384.24 433.394,1384.24 454.039,1384.24 474.684,1384.24 495.329,1384.24 515.974,1384.24 536.619,1384.24 557.264,1384.24 577.909,1384.24 598.554,1384.24 619.199,1384.24 639.844,1384.24 660.489,1384.24 681.134,1384.24 701.779,1384.24 722.424,1384.24 743.069,1384.24 763.713,1384.24 784.358,1384.24 805.003,1384.24 825.648,1384.24 846.293,1384.24 866.938,1384.24 887.583,1384.24 908.228,1384.24 928.873,1384.24 949.518,1384.24 970.163,1384.24 990.808,1384.24 1011.45,1384.24 1032.1,1384.24 1052.74,1384.24 1073.39,1384.24 1094.03,1384.24 1114.68,1384.24 1135.32,1384.24 1155.97,1384.24 1176.61,1384.24 1197.26,1384.24 1217.9,1384.24 1238.55,1384.24 1259.19,1384.24 1279.84,86.1857 1300.48,86.1857 1321.13,86.1857 1341.77,86.1857 1362.42,86.1857 1383.06,86.1857 1403.71,86.1857 1424.35,86.1857 1445,86.1857 1465.64,86.1857 1486.29,86.1857 1506.93,86.1857 1527.58,86.1857 1548.22,86.1857 1568.87,86.1857 1589.51,86.1857 1610.16,86.1857 1630.8,86.1857 1651.45,86.1857 1672.09,86.1857 1692.74,86.1857 1713.38,86.1857 1734.03,86.1857 1754.67,86.1857 1775.32,86.1857 1795.96,86.1857 1816.61,86.1857 1837.25,86.1857 1857.9,86.1857 1878.54,86.1857 1899.19,86.1857 1919.83,86.1857 1940.48,86.1857 1961.12,86.1857 1981.77,86.1857 2002.41,86.1857 2023.06,86.1857 2043.7,86.1857 2064.35,86.1857 2084.99,86.1857 2105.64,86.1857 2126.28,86.1857 2146.93,86.1857 2167.57,86.1857 2188.22,86.1857 2208.86,86.1857 2229.51,86.1857 2250.15,86.1857 2270.8,86.1857 2291.44,86.1857 "/>
<polyline clip-path="url(#clip002)" style="stroke:#e26f46; stroke-linecap:round; stroke-linejoin:round; stroke-width:4; stroke-opacity:1; fill:none" points="247.59,1384.24 268.234,1384.24 288.879,1384.24 309.524,1384.24 330.169,1384.24 350.814,1384.24 371.459,1384.24 392.104,1384.24 412.749,1384.24 433.394,1384.24 454.039,1384.24 474.684,1384.24 495.329,1384.24 515.974,1384.24 536.619,1384.23 557.264,1384.23 577.909,1384.22 598.554,1384.21 619.199,1384.19 639.844,1384.15 660.489,1384.09 681.134,1383.99 701.779,1383.85 722.424,1383.63 743.069,1383.31 763.713,1382.84 784.358,1382.17 805.003,1381.22 825.648,1379.9 846.293,1378.08 866.938,1375.62 887.583,1372.3 908.228,1367.9 928.873,1362.11 949.518,1354.59 970.163,1344.92 990.808,1332.64 1011.45,1317.21 1032.1,1298.09 1052.74,1274.69 1073.39,1246.48 1094.03,1212.99 1114.68,1173.88 1135.32,1129.05 1155.97,1078.62 1176.61,1023.04 1197.26,963.061 1217.9,899.725 1238.55,834.289 1259.19,768.129 1279.84,702.625 1300.48,639.048 1321.13,578.479 1341.77,521.746 1362.42,469.411 1383.06,421.776 1403.71,378.921 1424.35,340.747 1445,307.024 1465.64,277.436 1486.29,251.619 1506.93,229.191 1527.58,209.773 1548.22,193.004 1568.87,178.547 1589.51,166.098 1610.16,155.387 1630.8,146.171 1651.45,138.243 1672.09,131.418 1692.74,125.54 1713.38,120.473 1734.03,116.101 1754.67,112.324 1775.32,109.058 1795.96,106.229 1816.61,103.776 1837.25,101.647 1857.9,99.7945 1878.54,98.1818 1899.19,96.7754 1919.83,95.5473 1940.48,94.4732 1961.12,93.5325 1981.77,92.7074 2002.41,91.9828 2023.06,91.3454 2043.7,90.7841 2064.35,90.2891 2084.99,89.8519 2105.64,89.4653 2126.28,89.123 2146.93,88.8195 2167.57,88.5501 2188.22,88.3106 2208.86,88.0976 2229.51,87.9078 2250.15,87.7384 2270.8,87.5872 2291.44,87.4521 "/>
<polyline clip-path="url(#clip002)" style="stroke:#3da44d; stroke-linecap:round; stroke-linejoin:round; stroke-width:4; stroke-opacity:1; fill:none" points="247.59,1384.24 268.234,1384.24 288.879,1384.24 309.524,1384.24 330.169,1384.24 350.814,1384.24 371.459,1384.24 392.104,1384.24 412.749,1384.24 433.394,1384.24 454.039,1384.24 474.684,1384.24 495.329,1384.24 515.974,1384.24 536.619,1384.24 557.264,1384.24 577.909,1384.24 598.554,1384.24 619.199,1384.23 639.844,1384.23 660.489,1384.23 681.134,1384.23 701.779,1384.22 722.424,1384.21 743.069,1384.19 763.713,1384.17 784.358,1384.14 805.003,1384.09 825.648,1384.02 846.293,1383.91 866.938,1383.75 887.583,1383.5 908.228,1383.14 928.873,1382.59 949.518,1381.77 970.163,1380.54 990.808,1378.71 1011.45,1375.98 1032.1,1371.9 1052.74,1365.85 1073.39,1356.88 1094.03,1343.69 1114.68,1324.43 1135.32,1296.66 1155.97,1257.32 1176.61,1202.96 1197.26,1130.36 1217.9,1037.71 1238.55,926.08 1259.19,800.548 1279.84,669.876 1300.48,544.344 1321.13,432.714 1341.77,340.061 1362.42,267.462 1383.06,213.1 1403.71,173.762 1424.35,145.994 1445,126.736 1465.64,113.542 1486.29,104.578 1506.93,98.5227 1527.58,94.4482 1548.22,91.7136 1568.87,89.8814 1589.51,88.6554 1610.16,87.8355 1630.8,87.2876 1651.45,86.9215 1672.09,86.677 1692.74,86.5138 1713.38,86.4047 1734.03,86.3319 1754.67,86.2833 1775.32,86.2509 1795.96,86.2292 1816.61,86.2147 1837.25,86.2051 1857.9,86.1986 1878.54,86.1943 1899.19,86.1914 1919.83,86.1895 1940.48,86.1882 1961.12,86.1874 1981.77,86.1868 2002.41,86.1864 2023.06,86.1862 2043.7,86.186 2064.35,86.1859 2084.99,86.1858 2105.64,86.1858 2126.28,86.1857 2146.93,86.1857 2167.57,86.1857 2188.22,86.1857 2208.86,86.1857 2229.51,86.1857 2250.15,86.1857 2270.8,86.1857 2291.44,86.1857 "/>
<path clip-path="url(#clip000)" d="M258.49 300.469 L746.387 300.469 L746.387 93.1086 L258.49 93.1086  Z" fill="#ffffff" fill-rule="evenodd" fill-opacity="1"/>
<polyline clip-path="url(#clip000)" style="stroke:#000000; stroke-linecap:round; stroke-linejoin:round; stroke-width:4; stroke-opacity:1; fill:none" points="258.49,300.469 746.387,300.469 746.387,93.1086 258.49,93.1086 258.49,300.469 "/>
<polyline clip-path="url(#clip000)" style="stroke:#009af9; stroke-linecap:round; stroke-linejoin:round; stroke-width:4; stroke-opacity:1; fill:none" points="282.562,144.949 426.994,144.949 "/>
<path clip-path="url(#clip000)" d="M469.492 137.067 L469.492 141.094 Q467.687 140.169 465.742 139.706 Q463.798 139.243 461.714 139.243 Q458.543 139.243 456.946 140.215 Q455.372 141.187 455.372 143.131 Q455.372 144.613 456.506 145.469 Q457.64 146.303 461.066 147.067 L462.525 147.391 Q467.062 148.363 468.96 150.145 Q470.881 151.905 470.881 155.076 Q470.881 158.687 468.011 160.793 Q465.163 162.9 460.163 162.9 Q458.08 162.9 455.812 162.483 Q453.566 162.09 451.066 161.28 L451.066 156.881 Q453.427 158.108 455.719 158.733 Q458.011 159.335 460.256 159.335 Q463.265 159.335 464.886 158.317 Q466.506 157.275 466.506 155.4 Q466.506 153.664 465.325 152.738 Q464.168 151.812 460.21 150.956 L458.728 150.608 Q454.77 149.775 453.011 148.062 Q451.251 146.326 451.251 143.317 Q451.251 139.659 453.844 137.669 Q456.437 135.678 461.205 135.678 Q463.566 135.678 465.649 136.025 Q467.733 136.372 469.492 137.067 Z" fill="#000000" fill-rule="nonzero" fill-opacity="1" /><path clip-path="url(#clip000)" d="M486.923 130.122 L486.923 137.344 L495.047 137.344 L495.047 139.544 L486.923 139.544 L486.923 146.766 L484.492 146.766 L484.492 139.544 L476.367 139.544 L476.367 137.344 L484.492 137.344 L484.492 130.122 L486.923 130.122 Z" fill="#000000" fill-rule="nonzero" fill-opacity="1" /><polyline clip-path="url(#clip000)" style="stroke:#e26f46; stroke-linecap:round; stroke-linejoin:round; stroke-width:4; stroke-opacity:1; fill:none" points="282.562,196.789 426.994,196.789 "/>
<path clip-path="url(#clip000)" d="M451.066 179.509 L455.742 179.509 L455.742 193.675 L472.733 193.675 L472.733 179.509 L477.409 179.509 L477.409 214.069 L472.733 214.069 L472.733 197.61 L455.742 197.61 L455.742 214.069 L451.066 214.069 L451.066 179.509 Z" fill="#000000" fill-rule="nonzero" fill-opacity="1" /><path clip-path="url(#clip000)" d="M486.529 188.143 L490.788 188.143 L490.788 214.069 L486.529 214.069 L486.529 188.143 M486.529 178.05 L490.788 178.05 L490.788 183.444 L486.529 183.444 L486.529 178.05 Z" fill="#000000" fill-rule="nonzero" fill-opacity="1" /><path clip-path="url(#clip000)" d="M499.7 178.05 L503.959 178.05 L503.959 214.069 L499.7 214.069 L499.7 178.05 Z" fill="#000000" fill-rule="nonzero" fill-opacity="1" /><path clip-path="url(#clip000)" d="M512.871 178.05 L517.131 178.05 L517.131 214.069 L512.871 214.069 L512.871 178.05 Z" fill="#000000" fill-rule="nonzero" fill-opacity="1" /><polyline clip-path="url(#clip000)" style="stroke:#3da44d; stroke-linecap:round; stroke-linejoin:round; stroke-width:4; stroke-opacity:1; fill:none" points="282.562,248.629 426.994,248.629 "/>
<path clip-path="url(#clip000)" d="M451.066 231.349 L472.918 231.349 L472.918 235.284 L455.742 235.284 L455.742 245.515 L472.2 245.515 L472.2 249.45 L455.742 249.45 L455.742 261.973 L473.335 261.973 L473.335 265.909 L451.066 265.909 L451.066 231.349 Z" fill="#000000" fill-rule="nonzero" fill-opacity="1" /><path clip-path="url(#clip000)" d="M502.385 239.983 L493.01 252.599 L502.872 265.909 L497.848 265.909 L490.302 255.723 L482.756 265.909 L477.733 265.909 L487.802 252.344 L478.589 239.983 L483.612 239.983 L490.487 249.219 L497.362 239.983 L502.385 239.983 Z" fill="#000000" fill-rule="nonzero" fill-opacity="1" /><path clip-path="url(#clip000)" d="M513.01 262.02 L513.01 275.77 L508.728 275.77 L508.728 239.983 L513.01 239.983 L513.01 243.918 Q514.353 241.603 516.39 240.492 Q518.45 239.358 521.297 239.358 Q526.02 239.358 528.959 243.108 Q531.922 246.858 531.922 252.969 Q531.922 259.08 528.959 262.83 Q526.02 266.58 521.297 266.58 Q518.45 266.58 516.39 265.469 Q514.353 264.335 513.01 262.02 M527.501 252.969 Q527.501 248.27 525.557 245.608 Q523.635 242.923 520.256 242.923 Q516.876 242.923 514.932 245.608 Q513.01 248.27 513.01 252.969 Q513.01 257.668 514.932 260.353 Q516.876 263.015 520.256 263.015 Q523.635 263.015 525.557 260.353 Q527.501 257.668 527.501 252.969 Z" fill="#000000" fill-rule="nonzero" fill-opacity="1" /><path clip-path="url(#clip000)" d="M549.029 242.969 Q545.603 242.969 543.612 245.654 Q541.621 248.316 541.621 252.969 Q541.621 257.622 543.589 260.307 Q545.58 262.969 549.029 262.969 Q552.431 262.969 554.422 260.284 Q556.413 257.598 556.413 252.969 Q556.413 248.362 554.422 245.677 Q552.431 242.969 549.029 242.969 M549.029 239.358 Q554.584 239.358 557.755 242.969 Q560.927 246.58 560.927 252.969 Q560.927 259.335 557.755 262.969 Q554.584 266.58 549.029 266.58 Q543.45 266.58 540.279 262.969 Q537.131 259.335 537.131 252.969 Q537.131 246.58 540.279 242.969 Q543.45 239.358 549.029 239.358 Z" fill="#000000" fill-rule="nonzero" fill-opacity="1" /><path clip-path="url(#clip000)" d="M589.538 250.261 L589.538 265.909 L585.278 265.909 L585.278 250.399 Q585.278 246.719 583.843 244.89 Q582.408 243.062 579.538 243.062 Q576.089 243.062 574.098 245.261 Q572.107 247.46 572.107 251.256 L572.107 265.909 L567.825 265.909 L567.825 239.983 L572.107 239.983 L572.107 244.011 Q573.635 241.673 575.695 240.515 Q577.779 239.358 580.487 239.358 Q584.954 239.358 587.246 242.136 Q589.538 244.89 589.538 250.261 Z" fill="#000000" fill-rule="nonzero" fill-opacity="1" /><path clip-path="url(#clip000)" d="M620.209 251.881 L620.209 253.964 L600.626 253.964 Q600.903 258.362 603.264 260.677 Q605.649 262.969 609.885 262.969 Q612.339 262.969 614.63 262.367 Q616.945 261.765 619.213 260.561 L619.213 264.589 Q616.922 265.561 614.514 266.071 Q612.107 266.58 609.63 266.58 Q603.427 266.58 599.792 262.969 Q596.181 259.358 596.181 253.2 Q596.181 246.835 599.607 243.108 Q603.056 239.358 608.889 239.358 Q614.121 239.358 617.153 242.737 Q620.209 246.094 620.209 251.881 M615.95 250.631 Q615.903 247.136 613.982 245.052 Q612.084 242.969 608.936 242.969 Q605.371 242.969 603.218 244.983 Q601.089 246.997 600.765 250.654 L615.95 250.631 Z" fill="#000000" fill-rule="nonzero" fill-opacity="1" /><path clip-path="url(#clip000)" d="M648.75 250.261 L648.75 265.909 L644.491 265.909 L644.491 250.399 Q644.491 246.719 643.056 244.89 Q641.621 243.062 638.75 243.062 Q635.301 243.062 633.311 245.261 Q631.32 247.46 631.32 251.256 L631.32 265.909 L627.038 265.909 L627.038 239.983 L631.32 239.983 L631.32 244.011 Q632.848 241.673 634.908 240.515 Q636.991 239.358 639.699 239.358 Q644.167 239.358 646.459 242.136 Q648.75 244.89 648.75 250.261 Z" fill="#000000" fill-rule="nonzero" fill-opacity="1" /><path clip-path="url(#clip000)" d="M661.459 232.622 L661.459 239.983 L670.232 239.983 L670.232 243.293 L661.459 243.293 L661.459 257.367 Q661.459 260.538 662.315 261.441 Q663.195 262.344 665.857 262.344 L670.232 262.344 L670.232 265.909 L665.857 265.909 Q660.926 265.909 659.051 264.08 Q657.176 262.228 657.176 257.367 L657.176 243.293 L654.051 243.293 L654.051 239.983 L657.176 239.983 L657.176 232.622 L661.459 232.622 Z" fill="#000000" fill-rule="nonzero" fill-opacity="1" /><path clip-path="url(#clip000)" d="M675.834 239.983 L680.093 239.983 L680.093 265.909 L675.834 265.909 L675.834 239.983 M675.834 229.89 L680.093 229.89 L680.093 235.284 L675.834 235.284 L675.834 229.89 Z" fill="#000000" fill-rule="nonzero" fill-opacity="1" /><path clip-path="url(#clip000)" d="M700.787 252.876 Q695.625 252.876 693.634 254.057 Q691.644 255.237 691.644 258.085 Q691.644 260.353 693.125 261.696 Q694.63 263.015 697.199 263.015 Q700.741 263.015 702.87 260.515 Q705.023 257.992 705.023 253.825 L705.023 252.876 L700.787 252.876 M709.282 251.117 L709.282 265.909 L705.023 265.909 L705.023 261.973 Q703.565 264.335 701.389 265.469 Q699.213 266.58 696.065 266.58 Q692.083 266.58 689.722 264.358 Q687.384 262.112 687.384 258.362 Q687.384 253.987 690.301 251.765 Q693.241 249.543 699.051 249.543 L705.023 249.543 L705.023 249.126 Q705.023 246.187 703.079 244.589 Q701.157 242.969 697.662 242.969 Q695.44 242.969 693.333 243.501 Q691.227 244.034 689.283 245.099 L689.283 241.163 Q691.621 240.261 693.82 239.821 Q696.019 239.358 698.102 239.358 Q703.727 239.358 706.505 242.274 Q709.282 245.191 709.282 251.117 Z" fill="#000000" fill-rule="nonzero" fill-opacity="1" /><path clip-path="url(#clip000)" d="M718.056 229.89 L722.315 229.89 L722.315 265.909 L718.056 265.909 L718.056 229.89 Z" fill="#000000" fill-rule="nonzero" fill-opacity="1" /></svg>
