<?xml version="1.0" encoding="utf-8"?>
<svg xmlns="http://www.w3.org/2000/svg" xmlns:xlink="http://www.w3.org/1999/xlink" width="800" height="300" viewBox="0 0 3200 1200">
<defs>
  <clipPath id="clip980">
    <rect x="0" y="0" width="3200" height="1200"/>
  </clipPath>
</defs>
<path clip-path="url(#clip980)" d="M0 1200 L3200 1200 L3200 0 L0 0  Z" fill="#ffffff" fill-rule="evenodd" fill-opacity="1"/>
<defs>
  <clipPath id="clip981">
    <rect x="640" y="0" width="2241" height="1200"/>
  </clipPath>
</defs>
<path clip-path="url(#clip980)" d="M194.252 1063.09 L1567.74 1063.09 L1567.74 47.2441 L194.252 47.2441  Z" fill="#ffffff" fill-rule="evenodd" fill-opacity="1"/>
<defs>
  <clipPath id="clip982">
    <rect x="194" y="47" width="1374" height="1017"/>
  </clipPath>
</defs>
<polyline clip-path="url(#clip982)" style="stroke:#000000; stroke-linecap:round; stroke-linejoin:round; stroke-width:2; stroke-opacity:0.1; fill:none" points="-339.884,1063.09 -339.884,47.2441 "/>
<polyline clip-path="url(#clip982)" style="stroke:#000000; stroke-linecap:round; stroke-linejoin:round; stroke-width:2; stroke-opacity:0.1; fill:none" points="1262.52,1063.09 1262.52,47.2441 "/>
<polyline clip-path="url(#clip982)" style="stroke:#000000; stroke-linecap:round; stroke-linejoin:round; stroke-width:2; stroke-opacity:0.1; fill:none" points="194.252,1063.09 1567.74,1063.09 "/>
<polyline clip-path="url(#clip982)" style="stroke:#000000; stroke-linecap:round; stroke-linejoin:round; stroke-width:2; stroke-opacity:0.1; fill:none" points="194.252,412.949 1567.74,412.949 "/>
<polyline clip-path="url(#clip982)" style="stroke:#000000; stroke-linecap:round; stroke-linejoin:round; stroke-width:2; stroke-opacity:0.1; fill:none" points="194.252,169.146 1567.74,169.146 "/>
<polyline clip-path="url(#clip980)" style="stroke:#000000; stroke-linecap:round; stroke-linejoin:round; stroke-width:4; stroke-opacity:1; fill:none" points="194.252,1063.09 1567.74,1063.09 "/>
<polyline clip-path="url(#clip980)" style="stroke:#000000; stroke-linecap:round; stroke-linejoin:round; stroke-width:4; stroke-opacity:1; fill:none" points="-339.884,1063.09 -339.884,1044.19 "/>
<polyline clip-path="url(#clip980)" style="stroke:#000000; stroke-linecap:round; stroke-linejoin:round; stroke-width:4; stroke-opacity:1; fill:none" points="1262.52,1063.09 1262.52,1044.19 "/>
<path clip-path="url(#clip980)" d="M-339.884 1100.41 Q-343.495 1100.41 -345.324 1103.97 Q-347.129 1107.51 -347.129 1114.64 Q-347.129 1121.75 -345.324 1125.32 Q-343.495 1128.86 -339.884 1128.86 Q-336.25 1128.86 -334.444 1125.32 Q-332.615 1121.75 -332.615 1114.64 Q-332.615 1107.51 -334.444 1103.97 Q-336.25 1100.41 -339.884 1100.41 M-339.884 1096.7 Q-334.074 1096.7 -331.018 1101.31 Q-327.939 1105.89 -327.939 1114.64 Q-327.939 1123.37 -331.018 1127.98 Q-334.074 1132.56 -339.884 1132.56 Q-345.694 1132.56 -348.773 1127.98 Q-351.828 1123.37 -351.828 1114.64 Q-351.828 1105.89 -348.773 1101.31 Q-345.694 1096.7 -339.884 1096.7 Z" fill="#000000" fill-rule="nonzero" fill-opacity="1" /><path clip-path="url(#clip980)" d="M1260.38 1115.45 L1245.64 1115.45 Q1245.99 1122.38 1247.58 1125.32 Q1249.57 1128.93 1253.02 1128.93 Q1256.49 1128.93 1258.42 1125.29 Q1260.11 1122.1 1260.38 1115.45 M1260.31 1111.52 Q1259.67 1104.95 1258.42 1102.63 Q1256.42 1098.97 1253.02 1098.97 Q1249.48 1098.97 1247.61 1102.58 Q1246.12 1105.5 1245.68 1111.52 L1260.31 1111.52 M1253.02 1095.5 Q1258.58 1095.5 1261.75 1100.41 Q1264.92 1105.29 1264.92 1113.95 Q1264.92 1122.58 1261.75 1127.49 Q1258.58 1132.42 1253.02 1132.42 Q1247.44 1132.42 1244.3 1127.49 Q1241.12 1122.58 1241.12 1113.95 Q1241.12 1105.29 1244.3 1100.41 Q1247.44 1095.5 1253.02 1095.5 Z" fill="#000000" fill-rule="nonzero" fill-opacity="1" /><path clip-path="url(#clip980)" d="M1271.12 1129.34 L1275.85 1129.34 L1275.85 1115.2 L1270.68 1116.15 L1270.68 1113.46 L1276.01 1112.56 L1279.18 1112.56 L1279.18 1129.34 L1283.92 1129.34 L1283.92 1131.89 L1271.12 1131.89 L1271.12 1129.34 Z" fill="#000000" fill-rule="nonzero" fill-opacity="1" /><path clip-path="url(#clip980)" d="M885.264 1184.31 L872.373 1201.65 L885.932 1219.95 L879.025 1219.95 L868.649 1205.95 L858.273 1219.95 L851.366 1219.95 L865.212 1201.3 L852.544 1184.31 L859.451 1184.31 L868.904 1197.01 L878.357 1184.31 L885.264 1184.31 Z" fill="#000000" fill-rule="nonzero" fill-opacity="1" /><path clip-path="url(#clip980)" d="M893.03 1216.45 L899.523 1216.45 L899.523 1197.01 L892.425 1198.31 L892.425 1194.62 L899.746 1193.38 L904.106 1193.38 L904.106 1216.45 L910.631 1216.45 L910.631 1219.95 L893.03 1219.95 L893.03 1216.45 Z" fill="#000000" fill-rule="nonzero" fill-opacity="1" /><polyline clip-path="url(#clip980)" style="stroke:#000000; stroke-linecap:round; stroke-linejoin:round; stroke-width:4; stroke-opacity:1; fill:none" points="194.252,1063.09 194.252,47.2441 "/>
<polyline clip-path="url(#clip980)" style="stroke:#000000; stroke-linecap:round; stroke-linejoin:round; stroke-width:4; stroke-opacity:1; fill:none" points="194.252,1063.09 213.15,1063.09 "/>
<polyline clip-path="url(#clip980)" style="stroke:#000000; stroke-linecap:round; stroke-linejoin:round; stroke-width:4; stroke-opacity:1; fill:none" points="194.252,412.949 213.15,412.949 "/>
<polyline clip-path="url(#clip980)" style="stroke:#000000; stroke-linecap:round; stroke-linejoin:round; stroke-width:4; stroke-opacity:1; fill:none" points="194.252,169.146 213.15,169.146 "/>
<path clip-path="url(#clip980)" d="M134.308 1048.89 Q130.697 1048.89 128.868 1052.45 Q127.063 1055.99 127.063 1063.12 Q127.063 1070.23 128.868 1073.8 Q130.697 1077.34 134.308 1077.34 Q137.942 1077.34 139.748 1073.8 Q141.576 1070.23 141.576 1063.12 Q141.576 1055.99 139.748 1052.45 Q137.942 1048.89 134.308 1048.89 M134.308 1045.18 Q140.118 1045.18 143.174 1049.79 Q146.252 1054.37 146.252 1063.12 Q146.252 1071.85 143.174 1076.46 Q140.118 1081.04 134.308 1081.04 Q128.498 1081.04 125.419 1076.46 Q122.363 1071.85 122.363 1063.12 Q122.363 1054.37 125.419 1049.79 Q128.498 1045.18 134.308 1045.18 Z" fill="#000000" fill-rule="nonzero" fill-opacity="1" /><path clip-path="url(#clip980)" d="M123.104 413.793 L108.359 413.793 Q108.706 420.715 110.303 423.655 Q112.294 427.266 115.743 427.266 Q119.215 427.266 121.137 423.631 Q122.826 420.437 123.104 413.793 M123.035 409.858 Q122.387 403.284 121.137 400.969 Q119.146 397.312 115.743 397.312 Q112.202 397.312 110.327 400.923 Q108.845 403.84 108.405 409.858 L123.035 409.858 M115.743 393.84 Q121.299 393.84 124.47 398.747 Q127.641 403.631 127.641 412.289 Q127.641 420.923 124.47 425.83 Q121.299 430.761 115.743 430.761 Q110.164 430.761 107.016 425.83 Q103.845 420.923 103.845 412.289 Q103.845 403.631 107.016 398.747 Q110.164 393.84 115.743 393.84 Z" fill="#000000" fill-rule="nonzero" fill-opacity="1" /><path clip-path="url(#clip980)" d="M136.437 427.59 L146.252 427.59 L146.252 430.229 L132.41 430.229 L132.41 427.682 Q133.197 426.965 134.655 425.668 Q142.618 418.608 142.618 416.432 Q142.618 414.905 141.414 413.979 Q140.211 413.03 138.243 413.03 Q137.039 413.03 135.627 413.446 Q134.215 413.84 132.549 414.65 L132.549 411.803 Q134.331 411.155 135.859 410.831 Q137.41 410.506 138.729 410.506 Q142.086 410.506 144.099 412.034 Q146.113 413.562 146.113 416.062 Q146.113 419.28 138.451 425.854 Q137.155 426.965 136.437 427.59 Z" fill="#000000" fill-rule="nonzero" fill-opacity="1" /><path clip-path="url(#clip980)" d="M114.123 160.5 L104.748 173.115 L114.609 186.426 L109.586 186.426 L102.04 176.24 L94.4933 186.426 L89.4702 186.426 L99.5395 172.861 L90.3266 160.5 L95.3498 160.5 L102.225 169.736 L109.1 160.5 L114.123 160.5 Z" fill="#000000" fill-rule="nonzero" fill-opacity="1" /><path clip-path="url(#clip980)" d="M122.363 183.787 L132.178 183.787 L132.178 186.426 L118.336 186.426 L118.336 183.879 Q119.123 183.162 120.581 181.865 Q128.544 174.805 128.544 172.629 Q128.544 171.102 127.34 170.176 Q126.137 169.227 124.169 169.227 Q122.965 169.227 121.553 169.643 Q120.141 170.037 118.475 170.847 L118.475 168 Q120.257 167.352 121.785 167.028 Q123.336 166.703 124.655 166.703 Q128.012 166.703 130.025 168.231 Q132.039 169.759 132.039 172.259 Q132.039 175.477 124.377 182.051 Q123.081 183.162 122.363 183.787 Z" fill="#000000" fill-rule="nonzero" fill-opacity="1" /><path clip-path="url(#clip980)" d="M146.252 150.801 L146.252 152.768 L143.683 152.768 Q142.248 152.768 141.669 153.301 Q141.113 153.81 141.113 155.153 L141.113 156.449 L145.535 156.449 L145.535 158.301 L141.113 158.301 L141.113 170.963 L138.405 170.963 L138.405 158.301 L135.859 158.301 L135.859 156.449 L138.405 156.449 L138.405 155.43 Q138.405 153 139.678 151.912 Q140.951 150.801 143.706 150.801 L146.252 150.801 Z" fill="#000000" fill-rule="nonzero" fill-opacity="1" /><path clip-path="url(#clip980)" d="M-8.4338 550.631 L8.91275 563.522 L27.2142 549.963 L27.2142 556.87 L13.2096 567.246 L27.2142 577.622 L27.2142 584.529 L8.56264 570.683 L-8.4338 583.351 L-8.4338 576.444 L4.26579 566.991 L-8.4338 557.538 L-8.4338 550.631 Z" fill="#000000" fill-rule="nonzero" fill-opacity="1" /><path clip-path="url(#clip980)" d="M23.5857 539.3 L23.5857 525.805 L27.2142 525.805 L27.2142 544.839 L23.713 544.839 Q22.7263 543.756 20.9439 541.751 Q11.2362 530.802 8.24435 530.802 Q6.14367 530.802 4.87053 532.457 Q3.56556 534.112 3.56556 536.818 Q3.56556 538.473 4.13847 540.414 Q4.67956 542.356 5.79355 544.648 L1.87865 544.648 Q0.987446 542.197 0.541847 540.096 Q0.0962472 537.964 0.0962472 536.149 Q0.0962472 531.534 2.19693 528.765 Q4.29761 525.996 7.7351 525.996 Q12.1593 525.996 21.1986 536.531 Q22.7263 538.314 23.5857 539.3 Z" fill="#000000" fill-rule="nonzero" fill-opacity="1" /><polyline clip-path="url(#clip982)" style="stroke:#009af9; stroke-linecap:round; stroke-linejoin:round; stroke-width:4; stroke-opacity:1; fill:none" points="1396.06,738.019 1393.75,739.468 1391.45,740.911 1389.16,742.347 1386.88,743.777 1384.61,745.201 1382.35,746.618 1380.09,748.028 1377.85,749.433 1375.61,750.831 1373.39,752.223 1371.17,753.609 1368.96,754.989 1366.76,756.362 1364.56,757.729 1362.38,759.091 1360.2,760.446 1358.03,761.795 1355.88,763.138 1353.72,764.475 1351.58,765.806 1349.45,767.132 1347.32,768.451 1345.21,769.764 1343.1,771.072 1341,772.373 1338.9,773.669 1336.82,774.959 1334.74,776.243 1332.68,777.521 1330.62,778.794 1328.56,780.06 1326.52,781.321 1324.48,782.576 1322.46,783.825 1320.43,785.068 1318.42,786.305 1316.42,787.535 1314.42,788.759 1312.43,789.977 1310.45,791.188 1308.48,792.392 1306.51,793.588 1304.55,794.775 1302.6,795.954 1300.66,797.123 1298.73,798.281 1296.8,799.427 1294.88,800.558 1292.97,801.673 1291.06,802.768 1289.16,803.842 1287.27,804.888 1285.39,805.903 1283.51,806.88 1281.65,807.812 1279.79,808.69 1277.93,809.506 1276.09,810.249 1274.25,810.906 1272.41,811.466 1270.59,811.915 1268.77,812.242 1266.96,812.436 1265.16,812.488 1263.36,812.392 1261.57,812.146 1259.79,811.751 1258.01,811.212 1256.24,810.536 1254.48,809.735 1252.73,808.82 1250.98,807.804 1249.24,806.701 1247.5,805.523 1245.78,804.282 1244.05,802.989 1242.34,801.653 1240.63,800.283 1238.93,798.886 1237.24,797.468 1235.55,796.033 1233.87,794.587 1232.19,793.132 1230.53,791.671 1228.86,790.207 1227.21,788.741 1225.56,787.275 1223.92,785.811 1222.28,784.348 1220.65,782.889 1219.03,781.433 1217.41,779.982 1215.8,778.535 1214.2,777.093 1212.6,775.656 1211.01,774.225 1209.43,772.799 1207.85,771.379 1206.27,769.965 1204.71,768.556 1203.15,767.154 1201.59,765.757 1200.04,764.367 1198.5,762.982 1196.96,761.603 1195.43,760.231 1193.91,758.864 1192.39,757.504 1190.88,756.149 1189.37,754.801 1187.87,753.458 1186.37,752.122 1184.88,750.791 1183.4,749.466 1181.92,748.147 1180.45,746.834 1178.99,745.527 1177.53,744.225 1176.07,742.93 1174.62,741.64 1173.18,740.356 1171.74,739.077 1170.31,737.805 1168.88,736.538 1167.46,735.276 1166.05,734.021 1164.64,732.77 1163.23,731.526 1161.83,730.287 1160.44,729.053 1159.05,727.825 1157.67,726.603 1156.29,725.386 1154.92,724.174 1153.55,722.968 1152.19,721.767 1150.84,720.571 1149.49,719.381 1148.14,718.196 1146.8,717.017 1145.46,715.842 1144.14,714.673 1142.81,713.509 1141.49,712.35 1140.18,711.197 1138.87,710.048 1137.56,708.905 1136.27,707.767 1134.97,706.634 1133.68,705.506 1132.4,704.383 1131.12,703.265 1129.85,702.152 1128.58,701.044 1127.32,699.94 1126.06,698.842 1124.8,697.749 1123.55,696.66 1122.31,695.577 1121.07,694.498 1119.84,693.424 1118.61,692.355 1117.38,691.29 1116.16,690.231 1114.95,689.176 1113.74,688.125 1112.53,687.08 1111.33,686.039 1110.13,685.003 1108.94,683.971 1107.75,682.944 1106.57,681.921 1105.39,680.904 1104.22,679.89 1103.05,678.881 1101.89,677.877 1100.73,676.877 1099.57,675.882 1098.42,674.891 1097.28,673.904 1096.13,672.922 1095,671.944 1093.86,670.971 1092.74,670.002 1091.61,669.037 1090.49,668.076 1089.38,667.12 1088.27,666.168 1087.16,665.221 1086.06,664.277 1084.96,663.338 1083.87,662.403 1082.78,661.472 1081.69,660.545 1080.61,659.622 1079.54,658.704 1078.46,657.79 1077.4,656.879 1076.33,655.973 1075.27,655.071 1074.22,654.172 1073.16,653.278 1072.56,652.119 1073.13,650.25 1074.72,647.767 1076.6,645.118 1078.47,642.482 1080.33,639.856 1082.19,637.243 1084.04,634.641 1085.88,632.051 1087.71,629.472 1089.54,626.904 1091.36,624.348 1093.17,621.803 1094.98,619.27 1096.78,616.747 1098.57,614.236 1100.35,611.736 1102.13,609.247 1103.9,606.769 1105.67,604.302 1107.43,601.846 1109.18,599.4 1110.92,596.966 1112.66,594.542 1114.39,592.129 1116.12,589.726 1117.84,587.334 1119.55,584.953 1121.26,582.582 1122.95,580.222 1124.65,577.872 1126.33,575.532 1128.01,573.203 1129.69,570.884 1131.35,568.575 1133.01,566.277 1134.67,563.988 1136.32,561.71 1137.96,559.442 1139.6,557.183 1141.23,554.935 1142.85,552.696 1144.47,550.468 1146.08,548.249 1147.68,546.04 1149.28,543.841 1150.87,541.651 1152.46,539.471 1154.04,537.3 1155.62,535.14 1157.19,532.988 1158.75,530.846 1160.31,528.714 1161.86,526.591 1163.41,524.477 1164.95,522.372 1166.48,520.277 1168.01,518.191 1169.53,516.114 1171.05,514.047 1172.56,511.988 1174.06,509.938 1175.56,507.898 1177.06,505.866 1178.55,503.843 1180.03,501.829 1181.51,499.825 1182.98,497.828 1184.45,495.841 1185.91,493.862 1187.36,491.892 1188.81,489.931 1190.26,487.978 1191.7,486.034 1193.13,484.099 1194.56,482.172 1195.99,480.253 1197.4,478.344 1198.82,476.442 1200.23,474.549 1201.63,472.665 1203.03,470.789 1204.42,468.921 1205.81,467.062 1207.19,465.211 1208.57,463.369 1209.95,461.536 1211.32,459.711 1212.68,457.895 1214.05,456.087 1215.4,454.289 1216.76,452.499 1218.11,450.719 1219.46,448.949 1220.8,447.188 1222.14,445.438 1223.48,443.698 1224.82,441.969 1226.15,440.253 1227.49,438.549 1228.82,436.858 1230.15,435.182 1231.48,433.52 1233.75,431.321 1237.4,428.351 1241.45,425.216 1245.29,422.264 1248.62,419.588 1251.11,417.207 1252.39,415.056 1252.21,412.985 1250.4,410.798 1247.03,408.339 1242.4,405.56 1236.96,402.519 1231.12,399.314 1225.11,396.025 1219.05,392.701 1212.99,389.37 1206.93,386.042 1200.9,382.725 1194.89,379.42 1188.9,376.128 1182.94,372.851 1177,369.588 1171.08,366.34 1165.18,363.106 1159.31,359.887 1153.46,356.681 1147.63,353.491 1141.83,350.314 1136.05,347.151 1130.29,344.003 1124.55,340.869 1118.84,337.748 1113.15,334.642 1107.48,331.549 1101.83,328.47 1096.21,325.405 1090.6,322.354 1085.02,319.316 1079.46,316.292 1073.92,313.281 1068.41,310.284 1062.91,307.299 1057.44,304.329 1051.99,301.371 1046.56,298.427 1041.15,295.496 1035.76,292.578 1030.39,289.673 1025.04,286.78 1019.72,283.901 1014.41,281.035 1009.13,278.181 1003.87,275.34 998.623,272.512 993.401,269.696 988.199,266.893 983.017,264.103 977.855,261.324 972.714,258.559 967.592,255.805 962.491,253.064 957.409,250.335 952.347,247.618 947.305,244.914 942.283,242.221 937.28,239.54 932.297,236.872 927.333,234.215 922.389,231.57 917.464,228.937 912.558,226.315 907.671,223.706 902.804,221.108 897.955,218.521 893.125,215.946 888.314,213.383 883.522,210.831 878.749,208.29 873.994,205.761 869.258,203.243 864.54,200.736 859.84,198.24 855.159,195.755 850.497,193.282 845.852,190.819 841.226,188.368 836.617,185.927 832.027,183.498 827.454,181.079 822.9,178.671 818.363,176.274 813.843,173.887 809.342,171.511 804.858,169.146 "/>
<circle clip-path="url(#clip982)" cx="1396.06" cy="738.019" r="14.4" fill="#00bfff" fill-rule="evenodd" fill-opacity="1" stroke="#000000" stroke-opacity="1" stroke-width="2.4"/>
<path clip-path="url(#clip980)" d="M963.643 236.626 L1521.96 236.626 L1521.96 81.1056 L963.643 81.1056  Z" fill="#ffffff" fill-rule="evenodd" fill-opacity="1"/>
<polyline clip-path="url(#clip980)" style="stroke:#000000; stroke-linecap:round; stroke-linejoin:round; stroke-width:4; stroke-opacity:1; fill:none" points="963.643,236.626 1521.96,236.626 1521.96,81.1056 963.643,81.1056 963.643,236.626 "/>
<polyline clip-path="url(#clip980)" style="stroke:#009af9; stroke-linecap:round; stroke-linejoin:round; stroke-width:4; stroke-opacity:1; fill:none" points="978.904,132.946 1070.47,132.946 "/>
<path clip-path="url(#clip980)" d="M1097.63 127.286 Q1094.2 127.286 1092.21 129.971 Q1090.22 132.633 1090.22 137.286 Q1090.22 141.939 1092.19 144.624 Q1094.18 147.286 1097.63 147.286 Q1101.03 147.286 1103.02 144.601 Q1105.01 141.915 1105.01 137.286 Q1105.01 132.679 1103.02 129.994 Q1101.03 127.286 1097.63 127.286 M1097.63 123.675 Q1103.18 123.675 1106.36 127.286 Q1109.53 130.897 1109.53 137.286 Q1109.53 143.652 1106.36 147.286 Q1103.18 150.897 1097.63 150.897 Q1092.05 150.897 1088.88 147.286 Q1085.73 143.652 1085.73 137.286 Q1085.73 130.897 1088.88 127.286 Q1092.05 123.675 1097.63 123.675 Z" fill="#000000" fill-rule="nonzero" fill-opacity="1" /><path clip-path="url(#clip980)" d="M1120.71 146.337 L1120.71 160.087 L1116.43 160.087 L1116.43 124.3 L1120.71 124.3 L1120.71 128.235 Q1122.05 125.92 1124.09 124.809 Q1126.15 123.675 1128.99 123.675 Q1133.72 123.675 1136.66 127.425 Q1139.62 131.175 1139.62 137.286 Q1139.62 143.397 1136.66 147.147 Q1133.72 150.897 1128.99 150.897 Q1126.15 150.897 1124.09 149.786 Q1122.05 148.652 1120.71 146.337 M1135.2 137.286 Q1135.2 132.587 1133.25 129.925 Q1131.33 127.24 1127.95 127.24 Q1124.57 127.24 1122.63 129.925 Q1120.71 132.587 1120.71 137.286 Q1120.71 141.985 1122.63 144.67 Q1124.57 147.332 1127.95 147.332 Q1131.33 147.332 1133.25 144.67 Q1135.2 141.985 1135.2 137.286 Z" fill="#000000" fill-rule="nonzero" fill-opacity="1" /><path clip-path="url(#clip980)" d="M1150.89 116.939 L1150.89 124.3 L1159.67 124.3 L1159.67 127.61 L1150.89 127.61 L1150.89 141.684 Q1150.89 144.855 1151.75 145.758 Q1152.63 146.661 1155.29 146.661 L1159.67 146.661 L1159.67 150.226 L1155.29 150.226 Q1150.36 150.226 1148.49 148.397 Q1146.61 146.545 1146.61 141.684 L1146.61 127.61 L1143.49 127.61 L1143.49 124.3 L1146.61 124.3 L1146.61 116.939 L1150.89 116.939 Z" fill="#000000" fill-rule="nonzero" fill-opacity="1" /><path clip-path="url(#clip980)" d="M1165.27 124.3 L1169.53 124.3 L1169.53 150.226 L1165.27 150.226 L1165.27 124.3 M1165.27 114.207 L1169.53 114.207 L1169.53 119.601 L1165.27 119.601 L1165.27 114.207 Z" fill="#000000" fill-rule="nonzero" fill-opacity="1" /><path clip-path="url(#clip980)" d="M1198.62 129.277 Q1200.22 126.406 1202.44 125.041 Q1204.67 123.675 1207.67 123.675 Q1211.73 123.675 1213.92 126.522 Q1216.12 129.346 1216.12 134.578 L1216.12 150.226 L1211.84 150.226 L1211.84 134.716 Q1211.84 130.99 1210.52 129.184 Q1209.2 127.379 1206.49 127.379 Q1203.18 127.379 1201.26 129.578 Q1199.34 131.777 1199.34 135.573 L1199.34 150.226 L1195.06 150.226 L1195.06 134.716 Q1195.06 130.966 1193.74 129.184 Q1192.42 127.379 1189.67 127.379 Q1186.4 127.379 1184.48 129.601 Q1182.56 131.8 1182.56 135.573 L1182.56 150.226 L1178.28 150.226 L1178.28 124.3 L1182.56 124.3 L1182.56 128.328 Q1184.02 125.943 1186.05 124.809 Q1188.09 123.675 1190.89 123.675 Q1193.72 123.675 1195.68 125.11 Q1197.67 126.545 1198.62 129.277 Z" fill="#000000" fill-rule="nonzero" fill-opacity="1" /><path clip-path="url(#clip980)" d="M1236.4 137.193 Q1231.24 137.193 1229.25 138.374 Q1227.26 139.554 1227.26 142.402 Q1227.26 144.67 1228.74 146.013 Q1230.24 147.332 1232.81 147.332 Q1236.36 147.332 1238.48 144.832 Q1240.64 142.309 1240.64 138.142 L1240.64 137.193 L1236.4 137.193 M1244.9 135.434 L1244.9 150.226 L1240.64 150.226 L1240.64 146.29 Q1239.18 148.652 1237 149.786 Q1234.83 150.897 1231.68 150.897 Q1227.7 150.897 1225.34 148.675 Q1223 146.429 1223 142.679 Q1223 138.304 1225.92 136.082 Q1228.86 133.86 1234.67 133.86 L1240.64 133.86 L1240.64 133.443 Q1240.64 130.504 1238.69 128.906 Q1236.77 127.286 1233.28 127.286 Q1231.05 127.286 1228.95 127.818 Q1226.84 128.351 1224.9 129.416 L1224.9 125.48 Q1227.23 124.578 1229.43 124.138 Q1231.63 123.675 1233.72 123.675 Q1239.34 123.675 1242.12 126.591 Q1244.9 129.508 1244.9 135.434 Z" fill="#000000" fill-rule="nonzero" fill-opacity="1" /><path clip-path="url(#clip980)" d="M1253.67 114.207 L1257.93 114.207 L1257.93 150.226 L1253.67 150.226 L1253.67 114.207 Z" fill="#000000" fill-rule="nonzero" fill-opacity="1" /><path clip-path="url(#clip980)" d="M1286.12 116.939 L1286.12 124.3 L1294.9 124.3 L1294.9 127.61 L1286.12 127.61 L1286.12 141.684 Q1286.12 144.855 1286.98 145.758 Q1287.86 146.661 1290.52 146.661 L1294.9 146.661 L1294.9 150.226 L1290.52 150.226 Q1285.59 150.226 1283.72 148.397 Q1281.84 146.545 1281.84 141.684 L1281.84 127.61 L1278.72 127.61 L1278.72 124.3 L1281.84 124.3 L1281.84 116.939 L1286.12 116.939 Z" fill="#000000" fill-rule="nonzero" fill-opacity="1" /><path clip-path="url(#clip980)" d="M1315.52 128.281 Q1314.8 127.865 1313.95 127.679 Q1313.11 127.471 1312.1 127.471 Q1308.48 127.471 1306.54 129.832 Q1304.62 132.17 1304.62 136.568 L1304.62 150.226 L1300.34 150.226 L1300.34 124.3 L1304.62 124.3 L1304.62 128.328 Q1305.96 125.966 1308.11 124.832 Q1310.27 123.675 1313.35 123.675 Q1313.79 123.675 1314.32 123.744 Q1314.85 123.791 1315.5 123.906 L1315.52 128.281 Z" fill="#000000" fill-rule="nonzero" fill-opacity="1" /><path clip-path="url(#clip980)" d="M1331.77 137.193 Q1326.61 137.193 1324.62 138.374 Q1322.63 139.554 1322.63 142.402 Q1322.63 144.67 1324.11 146.013 Q1325.61 147.332 1328.18 147.332 Q1331.72 147.332 1333.85 144.832 Q1336.01 142.309 1336.01 138.142 L1336.01 137.193 L1331.77 137.193 M1340.27 135.434 L1340.27 150.226 L1336.01 150.226 L1336.01 146.29 Q1334.55 148.652 1332.37 149.786 Q1330.2 150.897 1327.05 150.897 Q1323.07 150.897 1320.71 148.675 Q1318.37 146.429 1318.37 142.679 Q1318.37 138.304 1321.29 136.082 Q1324.22 133.86 1330.04 133.86 L1336.01 133.86 L1336.01 133.443 Q1336.01 130.504 1334.06 128.906 Q1332.14 127.286 1328.65 127.286 Q1326.42 127.286 1324.32 127.818 Q1322.21 128.351 1320.27 129.416 L1320.27 125.48 Q1322.6 124.578 1324.8 124.138 Q1327 123.675 1329.09 123.675 Q1334.71 123.675 1337.49 126.591 Q1340.27 129.508 1340.27 135.434 Z" fill="#000000" fill-rule="nonzero" fill-opacity="1" /><path clip-path="url(#clip980)" d="M1349.04 124.3 L1353.3 124.3 L1353.3 150.689 Q1353.3 155.642 1351.4 157.864 Q1349.53 160.087 1345.34 160.087 L1343.72 160.087 L1343.72 156.476 L1344.85 156.476 Q1347.28 156.476 1348.16 155.341 Q1349.04 154.23 1349.04 150.689 L1349.04 124.3 M1349.04 114.207 L1353.3 114.207 L1353.3 119.601 L1349.04 119.601 L1349.04 114.207 Z" fill="#000000" fill-rule="nonzero" fill-opacity="1" /><path clip-path="url(#clip980)" d="M1384.39 136.198 L1384.39 138.281 L1364.8 138.281 Q1365.08 142.679 1367.44 144.994 Q1369.83 147.286 1374.06 147.286 Q1376.52 147.286 1378.81 146.684 Q1381.12 146.082 1383.39 144.878 L1383.39 148.906 Q1381.1 149.878 1378.69 150.388 Q1376.28 150.897 1373.81 150.897 Q1367.6 150.897 1363.97 147.286 Q1360.36 143.675 1360.36 137.517 Q1360.36 131.152 1363.78 127.425 Q1367.23 123.675 1373.07 123.675 Q1378.3 123.675 1381.33 127.054 Q1384.39 130.411 1384.39 136.198 M1380.13 134.948 Q1380.08 131.453 1378.16 129.369 Q1376.26 127.286 1373.11 127.286 Q1369.55 127.286 1367.4 129.3 Q1365.27 131.314 1364.94 134.971 L1380.13 134.948 Z" fill="#000000" fill-rule="nonzero" fill-opacity="1" /><path clip-path="url(#clip980)" d="M1410.03 125.295 L1410.03 129.277 Q1408.23 128.281 1406.4 127.795 Q1404.59 127.286 1402.74 127.286 Q1398.6 127.286 1396.31 129.925 Q1394.02 132.541 1394.02 137.286 Q1394.02 142.031 1396.31 144.67 Q1398.6 147.286 1402.74 147.286 Q1404.59 147.286 1406.4 146.8 Q1408.23 146.29 1410.03 145.295 L1410.03 149.23 Q1408.25 150.064 1406.33 150.48 Q1404.43 150.897 1402.28 150.897 Q1396.42 150.897 1392.97 147.216 Q1389.53 143.536 1389.53 137.286 Q1389.53 130.943 1393 127.309 Q1396.49 123.675 1402.56 123.675 Q1404.53 123.675 1406.4 124.092 Q1408.28 124.485 1410.03 125.295 Z" fill="#000000" fill-rule="nonzero" fill-opacity="1" /><path clip-path="url(#clip980)" d="M1421.65 116.939 L1421.65 124.3 L1430.43 124.3 L1430.43 127.61 L1421.65 127.61 L1421.65 141.684 Q1421.65 144.855 1422.51 145.758 Q1423.39 146.661 1426.05 146.661 L1430.43 146.661 L1430.43 150.226 L1426.05 150.226 Q1421.12 150.226 1419.25 148.397 Q1417.37 146.545 1417.37 141.684 L1417.37 127.61 L1414.25 127.61 L1414.25 124.3 L1417.37 124.3 L1417.37 116.939 L1421.65 116.939 Z" fill="#000000" fill-rule="nonzero" fill-opacity="1" /><path clip-path="url(#clip980)" d="M1446.08 127.286 Q1442.65 127.286 1440.66 129.971 Q1438.67 132.633 1438.67 137.286 Q1438.67 141.939 1440.64 144.624 Q1442.63 147.286 1446.08 147.286 Q1449.48 147.286 1451.47 144.601 Q1453.46 141.915 1453.46 137.286 Q1453.46 132.679 1451.47 129.994 Q1449.48 127.286 1446.08 127.286 M1446.08 123.675 Q1451.63 123.675 1454.8 127.286 Q1457.97 130.897 1457.97 137.286 Q1457.97 143.652 1454.8 147.286 Q1451.63 150.897 1446.08 150.897 Q1440.5 150.897 1437.33 147.286 Q1434.18 143.652 1434.18 137.286 Q1434.18 130.897 1437.33 127.286 Q1440.5 123.675 1446.08 123.675 Z" fill="#000000" fill-rule="nonzero" fill-opacity="1" /><path clip-path="url(#clip980)" d="M1480.06 128.281 Q1479.34 127.865 1478.48 127.679 Q1477.65 127.471 1476.63 127.471 Q1473.02 127.471 1471.08 129.832 Q1469.15 132.17 1469.15 136.568 L1469.15 150.226 L1464.87 150.226 L1464.87 124.3 L1469.15 124.3 L1469.15 128.328 Q1470.5 125.966 1472.65 124.832 Q1474.8 123.675 1477.88 123.675 Q1478.32 123.675 1478.85 123.744 Q1479.39 123.791 1480.03 123.906 L1480.06 128.281 Z" fill="#000000" fill-rule="nonzero" fill-opacity="1" /><path clip-path="url(#clip980)" d="M1495.31 152.633 Q1493.51 157.263 1491.79 158.675 Q1490.08 160.087 1487.21 160.087 L1483.81 160.087 L1483.81 156.522 L1486.31 156.522 Q1488.07 156.522 1489.04 155.689 Q1490.01 154.855 1491.19 151.753 L1491.96 149.809 L1481.47 124.3 L1485.98 124.3 L1494.09 144.578 L1502.19 124.3 L1506.7 124.3 L1495.31 152.633 Z" fill="#000000" fill-rule="nonzero" fill-opacity="1" /><circle clip-path="url(#clip980)" cx="1024.69" cy="184.786" r="20.48" fill="#00bfff" fill-rule="evenodd" fill-opacity="1" stroke="#000000" stroke-opacity="1" stroke-width="3.41333"/>
<path clip-path="url(#clip980)" d="M1110.38 176.14 L1101.01 188.756 L1110.87 202.066 L1105.85 202.066 L1098.3 191.88 L1090.75 202.066 L1085.73 202.066 L1095.8 188.501 L1086.59 176.14 L1091.61 176.14 L1098.49 185.376 L1105.36 176.14 L1110.38 176.14 Z" fill="#000000" fill-rule="nonzero" fill-opacity="1" /><path clip-path="url(#clip980)" d="M1125.61 186.394 Q1124.46 184.404 1122.12 184.404 Q1119.78 184.404 1118.62 186.394 Q1117.44 188.385 1117.44 192.367 Q1117.44 196.371 1118.62 198.362 Q1119.78 200.353 1122.12 200.353 Q1124.46 200.353 1125.61 198.362 Q1126.8 196.371 1126.8 192.367 Q1126.8 188.385 1125.61 186.394 M1122.12 182.344 Q1125.85 182.344 1127.81 184.913 Q1129.78 187.482 1129.78 192.367 Q1129.78 197.274 1127.81 199.843 Q1125.85 202.413 1122.12 202.413 Q1118.37 202.413 1116.4 199.843 Q1114.43 197.274 1114.43 192.367 Q1114.43 187.482 1116.4 184.913 Q1118.37 182.344 1122.12 182.344 Z" fill="#000000" fill-rule="nonzero" fill-opacity="1" /><path clip-path="url(#clip980)" d="M1779.26 1063.09 L3152.76 1063.09 L3152.76 47.2441 L1779.26 47.2441  Z" fill="#ffffff" fill-rule="evenodd" fill-opacity="1"/>
<defs>
  <clipPath id="clip983">
    <rect x="1779" y="47" width="1374" height="1017"/>
  </clipPath>
</defs>
<polyline clip-path="url(#clip983)" style="stroke:#000000; stroke-linecap:round; stroke-linejoin:round; stroke-width:2; stroke-opacity:0.1; fill:none" points="1818.14,1063.09 1818.14,47.2441 "/>
<polyline clip-path="url(#clip983)" style="stroke:#000000; stroke-linecap:round; stroke-linejoin:round; stroke-width:2; stroke-opacity:0.1; fill:none" points="2108.88,1063.09 2108.88,47.2441 "/>
<polyline clip-path="url(#clip983)" style="stroke:#000000; stroke-linecap:round; stroke-linejoin:round; stroke-width:2; stroke-opacity:0.1; fill:none" points="2399.62,1063.09 2399.62,47.2441 "/>
<polyline clip-path="url(#clip983)" style="stroke:#000000; stroke-linecap:round; stroke-linejoin:round; stroke-width:2; stroke-opacity:0.1; fill:none" points="2690.36,1063.09 2690.36,47.2441 "/>
<polyline clip-path="url(#clip983)" style="stroke:#000000; stroke-linecap:round; stroke-linejoin:round; stroke-width:2; stroke-opacity:0.1; fill:none" points="2981.1,1063.09 2981.1,47.2441 "/>
<polyline clip-path="url(#clip983)" style="stroke:#000000; stroke-linecap:round; stroke-linejoin:round; stroke-width:2; stroke-opacity:0.1; fill:none" points="1779.26,1034.34 3152.76,1034.34 "/>
<polyline clip-path="url(#clip983)" style="stroke:#000000; stroke-linecap:round; stroke-linejoin:round; stroke-width:2; stroke-opacity:0.1; fill:none" points="1779.26,794.753 3152.76,794.753 "/>
<polyline clip-path="url(#clip983)" style="stroke:#000000; stroke-linecap:round; stroke-linejoin:round; stroke-width:2; stroke-opacity:0.1; fill:none" points="1779.26,555.167 3152.76,555.167 "/>
<polyline clip-path="url(#clip983)" style="stroke:#000000; stroke-linecap:round; stroke-linejoin:round; stroke-width:2; stroke-opacity:0.1; fill:none" points="1779.26,315.581 3152.76,315.581 "/>
<polyline clip-path="url(#clip983)" style="stroke:#000000; stroke-linecap:round; stroke-linejoin:round; stroke-width:2; stroke-opacity:0.1; fill:none" points="1779.26,75.9945 3152.76,75.9945 "/>
<polyline clip-path="url(#clip980)" style="stroke:#000000; stroke-linecap:round; stroke-linejoin:round; stroke-width:4; stroke-opacity:1; fill:none" points="1779.26,1063.09 3152.76,1063.09 "/>
<polyline clip-path="url(#clip980)" style="stroke:#000000; stroke-linecap:round; stroke-linejoin:round; stroke-width:4; stroke-opacity:1; fill:none" points="1818.14,1063.09 1818.14,1044.19 "/>
<polyline clip-path="url(#clip980)" style="stroke:#000000; stroke-linecap:round; stroke-linejoin:round; stroke-width:4; stroke-opacity:1; fill:none" points="2108.88,1063.09 2108.88,1044.19 "/>
<polyline clip-path="url(#clip980)" style="stroke:#000000; stroke-linecap:round; stroke-linejoin:round; stroke-width:4; stroke-opacity:1; fill:none" points="2399.62,1063.09 2399.62,1044.19 "/>
<polyline clip-path="url(#clip980)" style="stroke:#000000; stroke-linecap:round; stroke-linejoin:round; stroke-width:4; stroke-opacity:1; fill:none" points="2690.36,1063.09 2690.36,1044.19 "/>
<polyline clip-path="url(#clip980)" style="stroke:#000000; stroke-linecap:round; stroke-linejoin:round; stroke-width:4; stroke-opacity:1; fill:none" points="2981.1,1063.09 2981.1,1044.19 "/>
<path clip-path="url(#clip980)" d="M1780.44 1100.41 Q1776.83 1100.41 1775 1103.97 Q1773.19 1107.51 1773.19 1114.64 Q1773.19 1121.75 1775 1125.32 Q1776.83 1128.86 1780.44 1128.86 Q1784.07 1128.86 1785.88 1125.32 Q1787.71 1121.75 1787.71 1114.64 Q1787.71 1107.51 1785.88 1103.97 Q1784.07 1100.41 1780.44 1100.41 M1780.44 1096.7 Q1786.25 1096.7 1789.3 1101.31 Q1792.38 1105.89 1792.38 1114.64 Q1792.38 1123.37 1789.3 1127.98 Q1786.25 1132.56 1780.44 1132.56 Q1774.63 1132.56 1771.55 1127.98 Q1768.49 1123.37 1768.49 1114.64 Q1768.49 1105.89 1771.55 1101.31 Q1774.63 1096.7 1780.44 1096.7 Z" fill="#000000" fill-rule="nonzero" fill-opacity="1" /><path clip-path="url(#clip980)" d="M1800.6 1126.01 L1805.49 1126.01 L1805.49 1131.89 L1800.6 1131.89 L1800.6 1126.01 Z" fill="#000000" fill-rule="nonzero" fill-opacity="1" /><path clip-path="url(#clip980)" d="M1825.67 1100.41 Q1822.06 1100.41 1820.23 1103.97 Q1818.42 1107.51 1818.42 1114.64 Q1818.42 1121.75 1820.23 1125.32 Q1822.06 1128.86 1825.67 1128.86 Q1829.3 1128.86 1831.11 1125.32 Q1832.94 1121.75 1832.94 1114.64 Q1832.94 1107.51 1831.11 1103.97 Q1829.3 1100.41 1825.67 1100.41 M1825.67 1096.7 Q1831.48 1096.7 1834.54 1101.31 Q1837.61 1105.89 1837.61 1114.64 Q1837.61 1123.37 1834.54 1127.98 Q1831.48 1132.56 1825.67 1132.56 Q1819.86 1132.56 1816.78 1127.98 Q1813.73 1123.37 1813.73 1114.64 Q1813.73 1105.89 1816.78 1101.31 Q1819.86 1096.7 1825.67 1096.7 Z" fill="#000000" fill-rule="nonzero" fill-opacity="1" /><path clip-path="url(#clip980)" d="M1855.83 1100.41 Q1852.22 1100.41 1850.39 1103.97 Q1848.59 1107.51 1848.59 1114.64 Q1848.59 1121.75 1850.39 1125.32 Q1852.22 1128.86 1855.83 1128.86 Q1859.47 1128.86 1861.27 1125.32 Q1863.1 1121.75 1863.1 1114.64 Q1863.1 1107.51 1861.27 1103.97 Q1859.47 1100.41 1855.83 1100.41 M1855.83 1096.7 Q1861.64 1096.7 1864.7 1101.31 Q1867.78 1105.89 1867.78 1114.64 Q1867.78 1123.37 1864.7 1127.98 Q1861.64 1132.56 1855.83 1132.56 Q1850.02 1132.56 1846.94 1127.98 Q1843.89 1123.37 1843.89 1114.64 Q1843.89 1105.89 1846.94 1101.31 Q1850.02 1096.7 1855.83 1096.7 Z" fill="#000000" fill-rule="nonzero" fill-opacity="1" /><path clip-path="url(#clip980)" d="M2071.68 1100.41 Q2068.07 1100.41 2066.24 1103.97 Q2064.43 1107.51 2064.43 1114.64 Q2064.43 1121.75 2066.24 1125.32 Q2068.07 1128.86 2071.68 1128.86 Q2075.31 1128.86 2077.12 1125.32 Q2078.95 1121.75 2078.95 1114.64 Q2078.95 1107.51 2077.12 1103.97 Q2075.31 1100.41 2071.68 1100.41 M2071.68 1096.7 Q2077.49 1096.7 2080.54 1101.31 Q2083.62 1105.89 2083.62 1114.64 Q2083.62 1123.37 2080.54 1127.98 Q2077.49 1132.56 2071.68 1132.56 Q2065.87 1132.56 2062.79 1127.98 Q2059.73 1123.37 2059.73 1114.64 Q2059.73 1105.89 2062.79 1101.31 Q2065.87 1096.7 2071.68 1096.7 Z" fill="#000000" fill-rule="nonzero" fill-opacity="1" /><path clip-path="url(#clip980)" d="M2091.84 1126.01 L2096.73 1126.01 L2096.73 1131.89 L2091.84 1131.89 L2091.84 1126.01 Z" fill="#000000" fill-rule="nonzero" fill-opacity="1" /><path clip-path="url(#clip980)" d="M2110.94 1127.95 L2127.26 1127.95 L2127.26 1131.89 L2105.31 1131.89 L2105.31 1127.95 Q2107.97 1125.2 2112.56 1120.57 Q2117.16 1115.92 2118.35 1114.58 Q2120.59 1112.05 2121.47 1110.32 Q2122.37 1108.56 2122.37 1106.87 Q2122.37 1104.11 2120.43 1102.38 Q2118.51 1100.64 2115.41 1100.64 Q2113.21 1100.64 2110.75 1101.4 Q2108.32 1102.17 2105.54 1103.72 L2105.54 1099 Q2108.37 1097.86 2110.82 1097.28 Q2113.28 1096.7 2115.31 1096.7 Q2120.68 1096.7 2123.88 1099.39 Q2127.07 1102.08 2127.07 1106.57 Q2127.07 1108.7 2126.26 1110.62 Q2125.47 1112.51 2123.37 1115.11 Q2122.79 1115.78 2119.69 1119 Q2116.59 1122.19 2110.94 1127.95 Z" fill="#000000" fill-rule="nonzero" fill-opacity="1" /><path clip-path="url(#clip980)" d="M2137.12 1097.33 L2155.47 1097.33 L2155.47 1101.27 L2141.4 1101.27 L2141.4 1109.74 Q2142.42 1109.39 2143.44 1109.23 Q2144.46 1109.04 2145.47 1109.04 Q2151.26 1109.04 2154.64 1112.21 Q2158.02 1115.39 2158.02 1120.8 Q2158.02 1126.38 2154.55 1129.48 Q2151.08 1132.56 2144.76 1132.56 Q2142.58 1132.56 2140.31 1132.19 Q2138.07 1131.82 2135.66 1131.08 L2135.66 1126.38 Q2137.74 1127.51 2139.97 1128.07 Q2142.19 1128.63 2144.66 1128.63 Q2148.67 1128.63 2151.01 1126.52 Q2153.35 1124.41 2153.35 1120.8 Q2153.35 1117.19 2151.01 1115.08 Q2148.67 1112.98 2144.66 1112.98 Q2142.79 1112.98 2140.91 1113.39 Q2139.06 1113.81 2137.12 1114.69 L2137.12 1097.33 Z" fill="#000000" fill-rule="nonzero" fill-opacity="1" /><path clip-path="url(#clip980)" d="M2361.92 1100.41 Q2358.31 1100.41 2356.48 1103.97 Q2354.68 1107.51 2354.68 1114.64 Q2354.68 1121.75 2356.48 1125.32 Q2358.31 1128.86 2361.92 1128.86 Q2365.56 1128.86 2367.36 1125.32 Q2369.19 1121.75 2369.19 1114.64 Q2369.19 1107.51 2367.36 1103.97 Q2365.56 1100.41 2361.92 1100.41 M2361.92 1096.7 Q2367.73 1096.7 2370.79 1101.31 Q2373.87 1105.89 2373.87 1114.64 Q2373.87 1123.37 2370.79 1127.98 Q2367.73 1132.56 2361.92 1132.56 Q2356.11 1132.56 2353.03 1127.98 Q2349.98 1123.37 2349.98 1114.64 Q2349.98 1105.89 2353.03 1101.31 Q2356.11 1096.7 2361.92 1096.7 Z" fill="#000000" fill-rule="nonzero" fill-opacity="1" /><path clip-path="url(#clip980)" d="M2382.09 1126.01 L2386.97 1126.01 L2386.97 1131.89 L2382.09 1131.89 L2382.09 1126.01 Z" fill="#000000" fill-rule="nonzero" fill-opacity="1" /><path clip-path="url(#clip980)" d="M2397.2 1097.33 L2415.56 1097.33 L2415.56 1101.27 L2401.48 1101.27 L2401.48 1109.74 Q2402.5 1109.39 2403.52 1109.23 Q2404.54 1109.04 2405.56 1109.04 Q2411.34 1109.04 2414.72 1112.21 Q2418.1 1115.39 2418.1 1120.8 Q2418.1 1126.38 2414.63 1129.48 Q2411.16 1132.56 2404.84 1132.56 Q2402.66 1132.56 2400.4 1132.19 Q2398.15 1131.82 2395.74 1131.08 L2395.74 1126.38 Q2397.83 1127.51 2400.05 1128.07 Q2402.27 1128.63 2404.75 1128.63 Q2408.75 1128.63 2411.09 1126.52 Q2413.43 1124.41 2413.43 1120.8 Q2413.43 1117.19 2411.09 1115.08 Q2408.75 1112.98 2404.75 1112.98 Q2402.87 1112.98 2401 1113.39 Q2399.15 1113.81 2397.2 1114.69 L2397.2 1097.33 Z" fill="#000000" fill-rule="nonzero" fill-opacity="1" /><path clip-path="url(#clip980)" d="M2437.32 1100.41 Q2433.71 1100.41 2431.88 1103.97 Q2430.07 1107.51 2430.07 1114.64 Q2430.07 1121.75 2431.88 1125.32 Q2433.71 1128.86 2437.32 1128.86 Q2440.95 1128.86 2442.76 1125.32 Q2444.58 1121.75 2444.58 1114.64 Q2444.58 1107.51 2442.76 1103.97 Q2440.95 1100.41 2437.32 1100.41 M2437.32 1096.7 Q2443.13 1096.7 2446.18 1101.31 Q2449.26 1105.89 2449.26 1114.64 Q2449.26 1123.37 2446.18 1127.98 Q2443.13 1132.56 2437.32 1132.56 Q2431.51 1132.56 2428.43 1127.98 Q2425.37 1123.37 2425.37 1114.64 Q2425.37 1105.89 2428.43 1101.31 Q2431.51 1096.7 2437.32 1096.7 Z" fill="#000000" fill-rule="nonzero" fill-opacity="1" /><path clip-path="url(#clip980)" d="M2653.16 1100.41 Q2649.55 1100.41 2647.72 1103.97 Q2645.92 1107.51 2645.92 1114.64 Q2645.92 1121.75 2647.72 1125.32 Q2649.55 1128.86 2653.16 1128.86 Q2656.8 1128.86 2658.6 1125.32 Q2660.43 1121.75 2660.43 1114.64 Q2660.43 1107.51 2658.6 1103.97 Q2656.8 1100.41 2653.16 1100.41 M2653.16 1096.7 Q2658.97 1096.7 2662.03 1101.31 Q2665.11 1105.89 2665.11 1114.64 Q2665.11 1123.37 2662.03 1127.98 Q2658.97 1132.56 2653.16 1132.56 Q2647.35 1132.56 2644.27 1127.98 Q2641.22 1123.37 2641.22 1114.64 Q2641.22 1105.89 2644.27 1101.31 Q2647.35 1096.7 2653.16 1096.7 Z" fill="#000000" fill-rule="nonzero" fill-opacity="1" /><path clip-path="url(#clip980)" d="M2673.32 1126.01 L2678.21 1126.01 L2678.21 1131.89 L2673.32 1131.89 L2673.32 1126.01 Z" fill="#000000" fill-rule="nonzero" fill-opacity="1" /><path clip-path="url(#clip980)" d="M2687.21 1097.33 L2709.44 1097.33 L2709.44 1099.32 L2696.89 1131.89 L2692.01 1131.89 L2703.81 1101.27 L2687.21 1101.27 L2687.21 1097.33 Z" fill="#000000" fill-rule="nonzero" fill-opacity="1" /><path clip-path="url(#clip980)" d="M2718.6 1097.33 L2736.96 1097.33 L2736.96 1101.27 L2722.88 1101.27 L2722.88 1109.74 Q2723.9 1109.39 2724.92 1109.23 Q2725.94 1109.04 2726.96 1109.04 Q2732.75 1109.04 2736.13 1112.21 Q2739.51 1115.39 2739.51 1120.8 Q2739.51 1126.38 2736.03 1129.48 Q2732.56 1132.56 2726.24 1132.56 Q2724.07 1132.56 2721.8 1132.19 Q2719.55 1131.82 2717.14 1131.08 L2717.14 1126.38 Q2719.23 1127.51 2721.45 1128.07 Q2723.67 1128.63 2726.15 1128.63 Q2730.15 1128.63 2732.49 1126.52 Q2734.83 1124.41 2734.83 1120.8 Q2734.83 1117.19 2732.49 1115.08 Q2730.15 1112.98 2726.15 1112.98 Q2724.27 1112.98 2722.4 1113.39 Q2720.55 1113.81 2718.6 1114.69 L2718.6 1097.33 Z" fill="#000000" fill-rule="nonzero" fill-opacity="1" /><path clip-path="url(#clip980)" d="M2933.18 1127.95 L2940.81 1127.95 L2940.81 1101.59 L2932.5 1103.26 L2932.5 1099 L2940.77 1097.33 L2945.44 1097.33 L2945.44 1127.95 L2953.08 1127.95 L2953.08 1131.89 L2933.18 1131.89 L2933.18 1127.95 Z" fill="#000000" fill-rule="nonzero" fill-opacity="1" /><path clip-path="url(#clip980)" d="M2962.53 1126.01 L2967.41 1126.01 L2967.41 1131.89 L2962.53 1131.89 L2962.53 1126.01 Z" fill="#000000" fill-rule="nonzero" fill-opacity="1" /><path clip-path="url(#clip980)" d="M2987.6 1100.41 Q2983.99 1100.41 2982.16 1103.97 Q2980.35 1107.51 2980.35 1114.64 Q2980.35 1121.75 2982.16 1125.32 Q2983.99 1128.86 2987.6 1128.86 Q2991.23 1128.86 2993.04 1125.32 Q2994.87 1121.75 2994.87 1114.64 Q2994.87 1107.51 2993.04 1103.97 Q2991.23 1100.41 2987.6 1100.41 M2987.6 1096.7 Q2993.41 1096.7 2996.46 1101.31 Q2999.54 1105.89 2999.54 1114.64 Q2999.54 1123.37 2996.46 1127.98 Q2993.41 1132.56 2987.6 1132.56 Q2981.79 1132.56 2978.71 1127.98 Q2975.65 1123.37 2975.65 1114.64 Q2975.65 1105.89 2978.71 1101.31 Q2981.79 1096.7 2987.6 1096.7 Z" fill="#000000" fill-rule="nonzero" fill-opacity="1" /><path clip-path="url(#clip980)" d="M3017.76 1100.41 Q3014.15 1100.41 3012.32 1103.97 Q3010.51 1107.51 3010.51 1114.64 Q3010.51 1121.75 3012.32 1125.32 Q3014.15 1128.86 3017.76 1128.86 Q3021.39 1128.86 3023.2 1125.32 Q3025.03 1121.75 3025.03 1114.64 Q3025.03 1107.51 3023.2 1103.97 Q3021.39 1100.41 3017.76 1100.41 M3017.76 1096.7 Q3023.57 1096.7 3026.62 1101.31 Q3029.7 1105.89 3029.7 1114.64 Q3029.7 1123.37 3026.62 1127.98 Q3023.57 1132.56 3017.76 1132.56 Q3011.95 1132.56 3008.87 1127.98 Q3005.81 1123.37 3005.81 1114.64 Q3005.81 1105.89 3008.87 1101.31 Q3011.95 1096.7 3017.76 1096.7 Z" fill="#000000" fill-rule="nonzero" fill-opacity="1" /><path clip-path="url(#clip980)" d="M2465.07 1174.18 L2465.07 1184.31 L2477.13 1184.31 L2477.13 1188.86 L2465.07 1188.86 L2465.07 1208.21 Q2465.07 1212.57 2466.25 1213.81 Q2467.46 1215.05 2471.12 1215.05 L2477.13 1215.05 L2477.13 1219.95 L2471.12 1219.95 Q2464.34 1219.95 2461.76 1217.44 Q2459.18 1214.89 2459.18 1208.21 L2459.18 1188.86 L2454.89 1188.86 L2454.89 1184.31 L2459.18 1184.31 L2459.18 1174.18 L2465.07 1174.18 Z" fill="#000000" fill-rule="nonzero" fill-opacity="1" /><polyline clip-path="url(#clip980)" style="stroke:#000000; stroke-linecap:round; stroke-linejoin:round; stroke-width:4; stroke-opacity:1; fill:none" points="1779.26,1063.09 1779.26,47.2441 "/>
<polyline clip-path="url(#clip980)" style="stroke:#000000; stroke-linecap:round; stroke-linejoin:round; stroke-width:4; stroke-opacity:1; fill:none" points="1779.26,1034.34 1798.16,1034.34 "/>
<polyline clip-path="url(#clip980)" style="stroke:#000000; stroke-linecap:round; stroke-linejoin:round; stroke-width:4; stroke-opacity:1; fill:none" points="1779.26,794.753 1798.16,794.753 "/>
<polyline clip-path="url(#clip980)" style="stroke:#000000; stroke-linecap:round; stroke-linejoin:round; stroke-width:4; stroke-opacity:1; fill:none" points="1779.26,555.167 1798.16,555.167 "/>
<polyline clip-path="url(#clip980)" style="stroke:#000000; stroke-linecap:round; stroke-linejoin:round; stroke-width:4; stroke-opacity:1; fill:none" points="1779.26,315.581 1798.16,315.581 "/>
<polyline clip-path="url(#clip980)" style="stroke:#000000; stroke-linecap:round; stroke-linejoin:round; stroke-width:4; stroke-opacity:1; fill:none" points="1779.26,75.9945 1798.16,75.9945 "/>
<path clip-path="url(#clip980)" d="M1673.93 1020.14 Q1670.31 1020.14 1668.49 1023.7 Q1666.68 1027.24 1666.68 1034.37 Q1666.68 1041.48 1668.49 1045.05 Q1670.31 1048.59 1673.93 1048.59 Q1677.56 1048.59 1679.37 1045.05 Q1681.19 1041.48 1681.19 1034.37 Q1681.19 1027.24 1679.37 1023.7 Q1677.56 1020.14 1673.93 1020.14 M1673.93 1016.43 Q1679.74 1016.43 1682.79 1021.04 Q1685.87 1025.62 1685.87 1034.37 Q1685.87 1043.1 1682.79 1047.71 Q1679.74 1052.29 1673.93 1052.29 Q1668.12 1052.29 1665.04 1047.71 Q1661.98 1043.1 1661.98 1034.37 Q1661.98 1025.62 1665.04 1021.04 Q1668.12 1016.43 1673.93 1016.43 Z" fill="#000000" fill-rule="nonzero" fill-opacity="1" /><path clip-path="url(#clip980)" d="M1694.09 1045.74 L1698.97 1045.74 L1698.97 1051.62 L1694.09 1051.62 L1694.09 1045.74 Z" fill="#000000" fill-rule="nonzero" fill-opacity="1" /><path clip-path="url(#clip980)" d="M1719.74 1032.48 Q1716.59 1032.48 1714.74 1034.63 Q1712.91 1036.78 1712.91 1040.53 Q1712.91 1044.26 1714.74 1046.43 Q1716.59 1048.59 1719.74 1048.59 Q1722.88 1048.59 1724.71 1046.43 Q1726.56 1044.26 1726.56 1040.53 Q1726.56 1036.78 1724.71 1034.63 Q1722.88 1032.48 1719.74 1032.48 M1729.02 1017.82 L1729.02 1022.08 Q1727.26 1021.25 1725.45 1020.81 Q1723.67 1020.37 1721.91 1020.37 Q1717.28 1020.37 1714.83 1023.49 Q1712.4 1026.62 1712.05 1032.94 Q1713.42 1030.93 1715.48 1029.86 Q1717.54 1028.77 1720.01 1028.77 Q1725.22 1028.77 1728.23 1031.94 Q1731.26 1035.09 1731.26 1040.53 Q1731.26 1045.86 1728.12 1049.07 Q1724.97 1052.29 1719.74 1052.29 Q1713.74 1052.29 1710.57 1047.71 Q1707.4 1043.1 1707.4 1034.37 Q1707.4 1026.18 1711.29 1021.32 Q1715.18 1016.43 1721.73 1016.43 Q1723.49 1016.43 1725.27 1016.78 Q1727.07 1017.13 1729.02 1017.82 Z" fill="#000000" fill-rule="nonzero" fill-opacity="1" /><path clip-path="url(#clip980)" d="M1674.18 780.552 Q1670.57 780.552 1668.74 784.117 Q1666.93 787.658 1666.93 794.788 Q1666.93 801.894 1668.74 805.459 Q1670.57 809.001 1674.18 809.001 Q1677.81 809.001 1679.62 805.459 Q1681.45 801.894 1681.45 794.788 Q1681.45 787.658 1679.62 784.117 Q1677.81 780.552 1674.18 780.552 M1674.18 776.848 Q1679.99 776.848 1683.05 781.455 Q1686.12 786.038 1686.12 794.788 Q1686.12 803.515 1683.05 808.121 Q1679.99 812.705 1674.18 812.705 Q1668.37 812.705 1665.29 808.121 Q1662.24 803.515 1662.24 794.788 Q1662.24 786.038 1665.29 781.455 Q1668.37 776.848 1674.18 776.848 Z" fill="#000000" fill-rule="nonzero" fill-opacity="1" /><path clip-path="url(#clip980)" d="M1694.34 806.154 L1699.23 806.154 L1699.23 812.033 L1694.34 812.033 L1694.34 806.154 Z" fill="#000000" fill-rule="nonzero" fill-opacity="1" /><path clip-path="url(#clip980)" d="M1719.41 795.621 Q1716.08 795.621 1714.16 797.404 Q1712.26 799.186 1712.26 802.311 Q1712.26 805.436 1714.16 807.218 Q1716.08 809.001 1719.41 809.001 Q1722.74 809.001 1724.67 807.218 Q1726.59 805.413 1726.59 802.311 Q1726.59 799.186 1724.67 797.404 Q1722.77 795.621 1719.41 795.621 M1714.74 793.631 Q1711.73 792.89 1710.04 790.83 Q1708.37 788.769 1708.37 785.807 Q1708.37 781.663 1711.31 779.256 Q1714.27 776.848 1719.41 776.848 Q1724.57 776.848 1727.51 779.256 Q1730.45 781.663 1730.45 785.807 Q1730.45 788.769 1728.76 790.83 Q1727.1 792.89 1724.11 793.631 Q1727.49 794.418 1729.37 796.709 Q1731.26 799.001 1731.26 802.311 Q1731.26 807.334 1728.18 810.019 Q1725.13 812.705 1719.41 812.705 Q1713.69 812.705 1710.62 810.019 Q1707.56 807.334 1707.56 802.311 Q1707.56 799.001 1709.46 796.709 Q1711.36 794.418 1714.74 793.631 M1713.02 786.246 Q1713.02 788.931 1714.69 790.436 Q1716.38 791.941 1719.41 791.941 Q1722.42 791.941 1724.11 790.436 Q1725.82 788.931 1725.82 786.246 Q1725.82 783.561 1724.11 782.057 Q1722.42 780.552 1719.41 780.552 Q1716.38 780.552 1714.69 782.057 Q1713.02 783.561 1713.02 786.246 Z" fill="#000000" fill-rule="nonzero" fill-opacity="1" /><path clip-path="url(#clip980)" d="M1664.9 568.512 L1672.54 568.512 L1672.54 542.146 L1664.23 543.813 L1664.23 539.554 L1672.49 537.887 L1677.17 537.887 L1677.17 568.512 L1684.81 568.512 L1684.81 572.447 L1664.9 572.447 L1664.9 568.512 Z" fill="#000000" fill-rule="nonzero" fill-opacity="1" /><path clip-path="url(#clip980)" d="M1694.25 566.567 L1699.13 566.567 L1699.13 572.447 L1694.25 572.447 L1694.25 566.567 Z" fill="#000000" fill-rule="nonzero" fill-opacity="1" /><path clip-path="url(#clip980)" d="M1719.32 540.966 Q1715.71 540.966 1713.88 544.53 Q1712.07 548.072 1712.07 555.202 Q1712.07 562.308 1713.88 565.873 Q1715.71 569.415 1719.32 569.415 Q1722.95 569.415 1724.76 565.873 Q1726.59 562.308 1726.59 555.202 Q1726.59 548.072 1724.76 544.53 Q1722.95 540.966 1719.32 540.966 M1719.32 537.262 Q1725.13 537.262 1728.18 541.868 Q1731.26 546.452 1731.26 555.202 Q1731.26 563.928 1728.18 568.535 Q1725.13 573.118 1719.32 573.118 Q1713.51 573.118 1710.43 568.535 Q1707.37 563.928 1707.37 555.202 Q1707.37 546.452 1710.43 541.868 Q1713.51 537.262 1719.32 537.262 Z" fill="#000000" fill-rule="nonzero" fill-opacity="1" /><path clip-path="url(#clip980)" d="M1666.5 328.926 L1674.13 328.926 L1674.13 302.56 L1665.82 304.227 L1665.82 299.967 L1674.09 298.301 L1678.76 298.301 L1678.76 328.926 L1686.4 328.926 L1686.4 332.861 L1666.5 332.861 L1666.5 328.926 Z" fill="#000000" fill-rule="nonzero" fill-opacity="1" /><path clip-path="url(#clip980)" d="M1695.85 326.981 L1700.73 326.981 L1700.73 332.861 L1695.85 332.861 L1695.85 326.981 Z" fill="#000000" fill-rule="nonzero" fill-opacity="1" /><path clip-path="url(#clip980)" d="M1714.94 328.926 L1731.26 328.926 L1731.26 332.861 L1709.32 332.861 L1709.32 328.926 Q1711.98 326.171 1716.56 321.541 Q1721.17 316.889 1722.35 315.546 Q1724.6 313.023 1725.48 311.287 Q1726.38 309.528 1726.38 307.838 Q1726.38 305.083 1724.43 303.347 Q1722.51 301.611 1719.41 301.611 Q1717.21 301.611 1714.76 302.375 Q1712.33 303.139 1709.55 304.69 L1709.55 299.967 Q1712.37 298.833 1714.83 298.254 Q1717.28 297.676 1719.32 297.676 Q1724.69 297.676 1727.88 300.361 Q1731.08 303.046 1731.08 307.537 Q1731.08 309.666 1730.27 311.588 Q1729.48 313.486 1727.37 316.078 Q1726.8 316.75 1723.69 319.967 Q1720.59 323.162 1714.94 328.926 Z" fill="#000000" fill-rule="nonzero" fill-opacity="1" /><path clip-path="url(#clip980)" d="M1664.41 89.3393 L1672.05 89.3393 L1672.05 62.9737 L1663.74 64.6404 L1663.74 60.3811 L1672 58.7145 L1676.68 58.7145 L1676.68 89.3393 L1684.32 89.3393 L1684.32 93.2745 L1664.41 93.2745 L1664.41 89.3393 Z" fill="#000000" fill-rule="nonzero" fill-opacity="1" /><path clip-path="url(#clip980)" d="M1693.76 87.3949 L1698.65 87.3949 L1698.65 93.2745 L1693.76 93.2745 L1693.76 87.3949 Z" fill="#000000" fill-rule="nonzero" fill-opacity="1" /><path clip-path="url(#clip980)" d="M1721.68 62.7885 L1709.87 81.2375 L1721.68 81.2375 L1721.68 62.7885 M1720.45 58.7145 L1726.33 58.7145 L1726.33 81.2375 L1731.26 81.2375 L1731.26 85.1264 L1726.33 85.1264 L1726.33 93.2745 L1721.68 93.2745 L1721.68 85.1264 L1706.08 85.1264 L1706.08 80.6125 L1720.45 58.7145 Z" fill="#000000" fill-rule="nonzero" fill-opacity="1" /><polyline clip-path="url(#clip983)" style="stroke:#009af9; stroke-linecap:round; stroke-linejoin:round; stroke-width:4; stroke-opacity:1; fill:none" points="1818.14,1034.34 1821.38,1034.34 1824.63,1034.34 1827.88,1034.34 1831.13,1034.34 1834.37,1034.34 1837.62,1034.34 1840.87,1034.34 1844.12,1034.34 1847.36,1034.34 1850.61,1034.34 1853.86,1034.34 1857.11,1034.34 1860.35,1034.34 1863.6,1034.34 1866.85,1034.34 1870.1,1034.34 1873.34,1034.34 1876.59,1034.34 1879.84,1034.34 1883.09,1034.34 1886.33,1034.34 1889.58,1034.34 1892.83,1034.34 1896.08,1034.34 1899.32,1034.34 1902.57,1034.34 1905.82,1034.34 1909.07,1034.34 1912.31,1034.34 1915.56,1034.34 1918.81,1034.34 1922.06,1034.34 1925.3,1034.34 1928.55,1034.34 1931.8,1034.34 1935.05,1034.34 1938.29,1034.34 1941.54,1034.34 1944.79,1034.34 1948.04,1034.34 1951.28,1034.34 1954.53,1034.34 1957.78,1034.34 1961.03,1034.34 1964.27,1034.34 1967.52,1034.34 1970.77,1034.34 1974.02,1034.34 1977.26,1034.34 1980.51,1034.34 1983.76,1034.34 1987.01,1034.34 1990.25,1034.34 1993.5,1034.34 1996.75,1034.34 1999.99,1034.34 2003.24,1034.34 2006.49,1034.34 2009.74,1034.34 2012.98,1034.34 2016.23,1034.34 2019.48,1034.34 2022.73,1034.34 2025.97,1034.34 2029.22,1034.34 2032.47,1034.34 2035.72,1034.34 2038.96,1034.34 2042.21,1034.34 2045.46,1034.34 2048.71,1034.34 2051.95,1034.34 2055.2,1034.34 2058.45,1034.34 2061.7,1034.34 2064.94,1034.34 2068.19,1034.34 2071.44,1034.34 2074.69,1034.34 2077.93,1034.34 2081.18,1034.34 2084.43,1034.34 2087.68,1034.34 2090.92,1034.34 2094.17,1034.34 2097.42,1034.34 2100.67,1034.34 2103.91,1034.34 2107.16,1034.34 2110.41,1034.34 2113.66,1034.34 2116.9,1034.34 2120.15,1034.34 2123.4,1034.34 2126.65,1034.34 2129.89,1034.34 2133.14,1034.34 2136.39,1034.34 2139.64,1034.34 2142.88,1034.34 2146.13,1034.34 2149.38,1034.34 2152.63,1034.34 2155.87,1034.34 2159.12,1034.34 2162.37,1034.34 2165.62,1034.34 2168.86,1034.34 2172.11,1034.34 2175.36,1034.34 2178.61,1034.34 2181.85,1034.34 2185.1,1034.34 2188.35,1034.34 2191.6,1034.34 2194.84,1034.34 2198.09,1034.34 2201.34,1034.34 2204.59,1034.34 2207.83,1034.34 2211.08,1034.34 2214.33,1034.34 2217.58,1034.34 2220.82,1034.34 2224.07,1034.34 2227.32,1034.34 2230.57,1034.34 2233.81,1034.34 2237.06,1034.34 2240.31,1034.34 2243.56,1034.34 2246.8,1034.34 2250.05,1034.34 2253.3,1034.34 2256.55,1034.34 2259.79,1034.34 2263.04,1034.34 2266.29,1034.34 2269.54,1034.34 2272.78,1034.34 2276.03,1034.34 2279.28,1034.34 2282.53,1034.34 2285.77,1034.34 2289.02,1034.34 2292.27,1034.34 2295.52,1034.34 2298.76,1034.34 2302.01,1034.34 2305.26,1034.34 2308.51,1034.34 2311.75,1034.34 2315,1034.34 2318.25,1034.34 2321.5,1034.34 2324.74,1034.34 2327.99,1034.34 2331.24,1034.34 2334.49,1034.34 2337.73,1034.34 2340.98,1034.34 2344.23,1034.34 2347.48,1034.34 2350.72,1034.34 2353.97,1034.34 2357.22,1034.34 2360.47,1034.34 2363.71,1034.34 2366.96,1034.34 2370.21,1034.34 2373.46,1034.34 2376.7,1034.34 2379.95,1034.34 2383.2,1034.34 2386.45,1034.34 2389.69,1034.34 2392.94,1034.34 2396.19,1034.34 2399.44,1034.34 2402.68,1034.34 2405.93,1034.34 2409.18,1034.34 2412.43,1034.34 2415.67,1034.34 2418.92,1034.34 2422.17,1034.34 2425.42,1034.34 2428.66,1034.34 2431.91,1034.34 2435.16,1034.34 2438.41,1034.34 2441.65,1034.34 2444.9,1034.34 2448.15,1034.34 2451.4,1034.34 2454.64,1034.34 2457.89,1034.34 2461.14,1034.34 2464.39,1034.34 2467.63,1034.34 2470.88,1034.33 2474.13,1034.33 2477.38,891.768 2480.62,656.284 2483.87,562.749 2487.12,562.728 2490.37,562.706 2493.61,562.684 2496.86,562.662 2500.11,562.639 2503.36,562.616 2506.6,562.593 2509.85,562.569 2513.1,562.545 2516.35,562.521 2519.59,562.497 2522.84,562.472 2526.09,562.447 2529.34,562.421 2532.58,562.396 2535.83,562.37 2539.08,562.344 2542.33,562.317 2545.57,562.29 2548.82,562.263 2552.07,562.236 2555.32,562.208 2558.56,562.18 2561.81,562.152 2565.06,562.124 2568.31,562.095 2571.55,562.066 2574.8,562.037 2578.05,562.007 2581.3,561.978 2584.54,561.948 2587.79,561.917 2591.04,561.887 2594.29,561.856 2597.53,561.825 2600.78,561.793 2604.03,561.762 2607.28,561.73 2610.52,561.698 2613.77,561.666 2617.02,561.633 2620.27,561.6 2623.51,561.567 2626.76,561.534 2630.01,561.5 2633.26,561.466 2636.5,561.432 2639.75,561.398 2643,561.363 2646.25,561.328 2649.49,561.293 2652.74,561.258 2655.99,561.222 2659.24,561.186 2662.48,561.149 2665.73,561.113 2668.98,561.076 2672.23,561.038 2675.47,561.001 2678.72,560.962 2681.97,560.924 2685.22,560.884 2688.46,560.844 2691.71,560.804 2694.96,560.762 2698.2,560.72 2701.45,560.677 2704.7,560.632 2707.95,560.586 2711.19,560.539 2714.44,560.489 2717.69,560.437 2720.94,560.383 2724.18,560.325 2727.43,560.264 2730.68,560.199 2733.93,560.128 2737.17,560.052 2740.42,559.968 2743.67,559.876 2746.92,559.774 2750.16,559.662 2753.41,559.536 2756.66,559.394 2759.91,559.235 2763.15,559.055 2766.4,558.851 2769.65,558.619 2772.9,558.356 2776.14,558.056 2779.39,557.715 2782.64,557.324 2785.89,556.878 2789.13,556.365 2792.38,555.775 2795.63,555.09 2798.88,554.286 2802.12,553.327 2805.37,552.148 2808.62,550.616 2811.87,242.799 2815.11,92.9115 2818.36,75.9945 2821.61,75.9945 2824.86,75.9945 2828.1,75.9945 2831.35,75.9945 2834.6,75.9944 2837.85,75.9944 2841.09,75.9944 2844.34,75.9944 2847.59,75.9944 2850.84,75.9944 2854.08,75.9944 2857.33,75.9944 2860.58,75.9944 2863.83,75.9944 2867.07,75.9944 2870.32,75.9944 2873.57,75.9944 2876.82,75.9944 2880.06,75.9944 2883.31,75.9944 2886.56,75.9944 2889.81,75.9944 2893.05,75.9944 2896.3,75.9944 2899.55,75.9944 2902.8,75.9944 2906.04,75.9944 2909.29,75.9944 2912.54,75.9944 2915.79,75.9944 2919.03,75.9944 2922.28,75.9944 2925.53,75.9944 2928.78,75.9944 2932.02,75.9944 2935.27,75.9944 2938.52,75.9944 2941.77,75.9944 2945.01,75.9944 2948.26,75.9944 2951.51,75.9944 2954.76,75.9944 2958,75.9944 2961.25,75.9944 2964.5,75.9944 2967.75,75.9944 2970.99,75.9944 2974.24,75.9944 2977.49,75.9944 2980.74,75.9944 2983.98,75.9944 2987.23,75.9944 2990.48,75.9944 2993.73,75.9944 2996.97,75.9944 3000.22,75.9944 3003.47,75.9944 3006.72,75.9944 3009.96,75.9944 3013.21,75.9944 3016.46,75.9944 3019.71,75.9944 3022.95,75.9944 3026.2,75.9944 3029.45,75.9944 3032.7,75.9944 3035.94,75.9944 3039.19,75.9944 3042.44,75.9944 3045.69,75.9944 3048.93,75.9944 3052.18,75.9944 3055.43,75.9944 3058.68,75.9944 3061.92,75.9944 3065.17,75.9944 3068.42,75.9944 3071.67,75.9944 3074.91,75.9944 3078.16,75.9944 3081.41,75.9944 3084.66,75.9944 3087.9,75.9944 3091.15,75.9944 3094.4,75.9944 3097.65,75.9944 3100.89,75.9944 3104.14,75.9944 3107.39,75.9944 3110.64,75.9944 3113.88,75.9944 "/>
<path clip-path="url(#clip980)" d="M1825.05 184.786 L2313.99 184.786 L2313.99 81.1056 L1825.05 81.1056  Z" fill="#ffffff" fill-rule="evenodd" fill-opacity="1"/>
<polyline clip-path="url(#clip980)" style="stroke:#000000; stroke-linecap:round; stroke-linejoin:round; stroke-width:4; stroke-opacity:1; fill:none" points="1825.05,184.786 2313.99,184.786 2313.99,81.1056 1825.05,81.1056 1825.05,184.786 "/>
<polyline clip-path="url(#clip980)" style="stroke:#009af9; stroke-linecap:round; stroke-linejoin:round; stroke-width:4; stroke-opacity:1; fill:none" points="1840.31,132.946 1931.87,132.946 "/>
<path clip-path="url(#clip980)" d="M1959.03 127.286 Q1955.61 127.286 1953.62 129.971 Q1951.63 132.633 1951.63 137.286 Q1951.63 141.939 1953.59 144.624 Q1955.58 147.286 1959.03 147.286 Q1962.44 147.286 1964.43 144.601 Q1966.42 141.915 1966.42 137.286 Q1966.42 132.679 1964.43 129.994 Q1962.44 127.286 1959.03 127.286 M1959.03 123.675 Q1964.59 123.675 1967.76 127.286 Q1970.93 130.897 1970.93 137.286 Q1970.93 143.652 1967.76 147.286 Q1964.59 150.897 1959.03 150.897 Q1953.45 150.897 1950.28 147.286 Q1947.13 143.652 1947.13 137.286 Q1947.13 130.897 1950.28 127.286 Q1953.45 123.675 1959.03 123.675 Z" fill="#000000" fill-rule="nonzero" fill-opacity="1" /><path clip-path="url(#clip980)" d="M1982.11 146.337 L1982.11 160.087 L1977.83 160.087 L1977.83 124.3 L1982.11 124.3 L1982.11 128.235 Q1983.45 125.92 1985.49 124.809 Q1987.55 123.675 1990.4 123.675 Q1995.12 123.675 1998.06 127.425 Q2001.02 131.175 2001.02 137.286 Q2001.02 143.397 1998.06 147.147 Q1995.12 150.897 1990.4 150.897 Q1987.55 150.897 1985.49 149.786 Q1983.45 148.652 1982.11 146.337 M1996.6 137.286 Q1996.6 132.587 1994.66 129.925 Q1992.74 127.24 1989.36 127.24 Q1985.98 127.24 1984.03 129.925 Q1982.11 132.587 1982.11 137.286 Q1982.11 141.985 1984.03 144.67 Q1985.98 147.332 1989.36 147.332 Q1992.74 147.332 1994.66 144.67 Q1996.6 141.985 1996.6 137.286 Z" fill="#000000" fill-rule="nonzero" fill-opacity="1" /><path clip-path="url(#clip980)" d="M2012.3 116.939 L2012.3 124.3 L2021.07 124.3 L2021.07 127.61 L2012.3 127.61 L2012.3 141.684 Q2012.3 144.855 2013.15 145.758 Q2014.03 146.661 2016.69 146.661 L2021.07 146.661 L2021.07 150.226 L2016.69 150.226 Q2011.76 150.226 2009.89 148.397 Q2008.01 146.545 2008.01 141.684 L2008.01 127.61 L2004.89 127.61 L2004.89 124.3 L2008.01 124.3 L2008.01 116.939 L2012.3 116.939 Z" fill="#000000" fill-rule="nonzero" fill-opacity="1" /><path clip-path="url(#clip980)" d="M2026.67 124.3 L2030.93 124.3 L2030.93 150.226 L2026.67 150.226 L2026.67 124.3 M2026.67 114.207 L2030.93 114.207 L2030.93 119.601 L2026.67 119.601 L2026.67 114.207 Z" fill="#000000" fill-rule="nonzero" fill-opacity="1" /><path clip-path="url(#clip980)" d="M2060.03 129.277 Q2061.62 126.406 2063.85 125.041 Q2066.07 123.675 2069.08 123.675 Q2073.13 123.675 2075.33 126.522 Q2077.53 129.346 2077.53 134.578 L2077.53 150.226 L2073.24 150.226 L2073.24 134.716 Q2073.24 130.99 2071.93 129.184 Q2070.61 127.379 2067.9 127.379 Q2064.59 127.379 2062.67 129.578 Q2060.75 131.777 2060.75 135.573 L2060.75 150.226 L2056.46 150.226 L2056.46 134.716 Q2056.46 130.966 2055.14 129.184 Q2053.82 127.379 2051.07 127.379 Q2047.81 127.379 2045.88 129.601 Q2043.96 131.8 2043.96 135.573 L2043.96 150.226 L2039.68 150.226 L2039.68 124.3 L2043.96 124.3 L2043.96 128.328 Q2045.42 125.943 2047.46 124.809 Q2049.5 123.675 2052.3 123.675 Q2055.12 123.675 2057.09 125.11 Q2059.08 126.545 2060.03 129.277 Z" fill="#000000" fill-rule="nonzero" fill-opacity="1" /><path clip-path="url(#clip980)" d="M2097.81 137.193 Q2092.64 137.193 2090.65 138.374 Q2088.66 139.554 2088.66 142.402 Q2088.66 144.67 2090.14 146.013 Q2091.65 147.332 2094.22 147.332 Q2097.76 147.332 2099.89 144.832 Q2102.04 142.309 2102.04 138.142 L2102.04 137.193 L2097.81 137.193 M2106.3 135.434 L2106.3 150.226 L2102.04 150.226 L2102.04 146.29 Q2100.58 148.652 2098.41 149.786 Q2096.23 150.897 2093.08 150.897 Q2089.1 150.897 2086.74 148.675 Q2084.4 146.429 2084.4 142.679 Q2084.4 138.304 2087.32 136.082 Q2090.26 133.86 2096.07 133.86 L2102.04 133.86 L2102.04 133.443 Q2102.04 130.504 2100.1 128.906 Q2098.18 127.286 2094.68 127.286 Q2092.46 127.286 2090.35 127.818 Q2088.24 128.351 2086.3 129.416 L2086.3 125.48 Q2088.64 124.578 2090.84 124.138 Q2093.04 123.675 2095.12 123.675 Q2100.74 123.675 2103.52 126.591 Q2106.3 129.508 2106.3 135.434 Z" fill="#000000" fill-rule="nonzero" fill-opacity="1" /><path clip-path="url(#clip980)" d="M2115.07 114.207 L2119.33 114.207 L2119.33 150.226 L2115.07 150.226 L2115.07 114.207 Z" fill="#000000" fill-rule="nonzero" fill-opacity="1" /><path clip-path="url(#clip980)" d="M2161.97 125.295 L2161.97 129.277 Q2160.17 128.281 2158.34 127.795 Q2156.53 127.286 2154.68 127.286 Q2150.54 127.286 2148.24 129.925 Q2145.95 132.541 2145.95 137.286 Q2145.95 142.031 2148.24 144.67 Q2150.54 147.286 2154.68 147.286 Q2156.53 147.286 2158.34 146.8 Q2160.17 146.29 2161.97 145.295 L2161.97 149.23 Q2160.19 150.064 2158.27 150.48 Q2156.37 150.897 2154.22 150.897 Q2148.36 150.897 2144.91 147.216 Q2141.46 143.536 2141.46 137.286 Q2141.46 130.943 2144.93 127.309 Q2148.43 123.675 2154.49 123.675 Q2156.46 123.675 2158.34 124.092 Q2160.21 124.485 2161.97 125.295 Z" fill="#000000" fill-rule="nonzero" fill-opacity="1" /><path clip-path="url(#clip980)" d="M2179.42 127.286 Q2176 127.286 2174.01 129.971 Q2172.02 132.633 2172.02 137.286 Q2172.02 141.939 2173.99 144.624 Q2175.98 147.286 2179.42 147.286 Q2182.83 147.286 2184.82 144.601 Q2186.81 141.915 2186.81 137.286 Q2186.81 132.679 2184.82 129.994 Q2182.83 127.286 2179.42 127.286 M2179.42 123.675 Q2184.98 123.675 2188.15 127.286 Q2191.32 130.897 2191.32 137.286 Q2191.32 143.652 2188.15 147.286 Q2184.98 150.897 2179.42 150.897 Q2173.85 150.897 2170.68 147.286 Q2167.53 143.652 2167.53 137.286 Q2167.53 130.897 2170.68 127.286 Q2173.85 123.675 2179.42 123.675 Z" fill="#000000" fill-rule="nonzero" fill-opacity="1" /><path clip-path="url(#clip980)" d="M2219.93 134.578 L2219.93 150.226 L2215.67 150.226 L2215.67 134.716 Q2215.67 131.036 2214.24 129.207 Q2212.8 127.379 2209.93 127.379 Q2206.49 127.379 2204.49 129.578 Q2202.5 131.777 2202.5 135.573 L2202.5 150.226 L2198.22 150.226 L2198.22 124.3 L2202.5 124.3 L2202.5 128.328 Q2204.03 125.99 2206.09 124.832 Q2208.17 123.675 2210.88 123.675 Q2215.35 123.675 2217.64 126.453 Q2219.93 129.207 2219.93 134.578 Z" fill="#000000" fill-rule="nonzero" fill-opacity="1" /><path clip-path="url(#clip980)" d="M2232.64 116.939 L2232.64 124.3 L2241.42 124.3 L2241.42 127.61 L2232.64 127.61 L2232.64 141.684 Q2232.64 144.855 2233.5 145.758 Q2234.38 146.661 2237.04 146.661 L2241.42 146.661 L2241.42 150.226 L2237.04 150.226 Q2232.11 150.226 2230.23 148.397 Q2228.36 146.545 2228.36 141.684 L2228.36 127.61 L2225.23 127.61 L2225.23 124.3 L2228.36 124.3 L2228.36 116.939 L2232.64 116.939 Z" fill="#000000" fill-rule="nonzero" fill-opacity="1" /><path clip-path="url(#clip980)" d="M2262.04 128.281 Q2261.32 127.865 2260.47 127.679 Q2259.63 127.471 2258.61 127.471 Q2255 127.471 2253.06 129.832 Q2251.14 132.17 2251.14 136.568 L2251.14 150.226 L2246.86 150.226 L2246.86 124.3 L2251.14 124.3 L2251.14 128.328 Q2252.48 125.966 2254.63 124.832 Q2256.79 123.675 2259.86 123.675 Q2260.3 123.675 2260.84 123.744 Q2261.37 123.791 2262.02 123.906 L2262.04 128.281 Z" fill="#000000" fill-rule="nonzero" fill-opacity="1" /><path clip-path="url(#clip980)" d="M2275.51 127.286 Q2272.09 127.286 2270.1 129.971 Q2268.11 132.633 2268.11 137.286 Q2268.11 141.939 2270.07 144.624 Q2272.06 147.286 2275.51 147.286 Q2278.92 147.286 2280.91 144.601 Q2282.9 141.915 2282.9 137.286 Q2282.9 132.679 2280.91 129.994 Q2278.92 127.286 2275.51 127.286 M2275.51 123.675 Q2281.07 123.675 2284.24 127.286 Q2287.41 130.897 2287.41 137.286 Q2287.41 143.652 2284.24 147.286 Q2281.07 150.897 2275.51 150.897 Q2269.93 150.897 2266.76 147.286 Q2263.61 143.652 2263.61 137.286 Q2263.61 130.897 2266.76 127.286 Q2269.93 123.675 2275.51 123.675 Z" fill="#000000" fill-rule="nonzero" fill-opacity="1" /><path clip-path="url(#clip980)" d="M2294.47 114.207 L2298.73 114.207 L2298.73 150.226 L2294.47 150.226 L2294.47 114.207 Z" fill="#000000" fill-rule="nonzero" fill-opacity="1" /></svg>
