<?xml version="1.0" encoding="utf-8"?>
<svg xmlns="http://www.w3.org/2000/svg" xmlns:xlink="http://www.w3.org/1999/xlink" width="800" height="300" viewBox="0 0 3200 1200">
<defs>
  <clipPath id="clip320">
    <rect x="0" y="0" width="3200" height="1200"/>
  </clipPath>
</defs>
<path clip-path="url(#clip320)" d="M0 1200 L3200 1200 L3200 0 L0 0  Z" fill="#ffffff" fill-rule="evenodd" fill-opacity="1"/>
<defs>
  <clipPath id="clip321">
    <rect x="640" y="0" width="2241" height="1200"/>
  </clipPath>
</defs>
<path clip-path="url(#clip320)" d="M179.877 1063.09 L1560.56 1063.09 L1560.56 47.2441 L179.877 47.2441  Z" fill="#ffffff" fill-rule="evenodd" fill-opacity="1"/>
<defs>
  <clipPath id="clip322">
    <rect x="179" y="47" width="1382" height="1017"/>
  </clipPath>
</defs>
<polyline clip-path="url(#clip322)" style="stroke:#000000; stroke-linecap:round; stroke-linejoin:round; stroke-width:2; stroke-opacity:0.1; fill:none" points="-1290.89,1063.09 -1290.89,47.2441 "/>
<polyline clip-path="url(#clip322)" style="stroke:#000000; stroke-linecap:round; stroke-linejoin:round; stroke-width:2; stroke-opacity:0.1; fill:none" points="915.26,1063.09 915.26,47.2441 "/>
<polyline clip-path="url(#clip322)" style="stroke:#000000; stroke-linecap:round; stroke-linejoin:round; stroke-width:2; stroke-opacity:0.1; fill:none" points="1301.34,1063.09 1301.34,47.2441 "/>
<polyline clip-path="url(#clip322)" style="stroke:#000000; stroke-linecap:round; stroke-linejoin:round; stroke-width:2; stroke-opacity:0.1; fill:none" points="179.877,1469.43 1560.56,1469.43 "/>
<polyline clip-path="url(#clip322)" style="stroke:#000000; stroke-linecap:round; stroke-linejoin:round; stroke-width:2; stroke-opacity:0.1; fill:none" points="179.877,656.752 1560.56,656.752 "/>
<polyline clip-path="url(#clip320)" style="stroke:#000000; stroke-linecap:round; stroke-linejoin:round; stroke-width:4; stroke-opacity:1; fill:none" points="179.877,1063.09 1560.56,1063.09 "/>
<polyline clip-path="url(#clip320)" style="stroke:#000000; stroke-linecap:round; stroke-linejoin:round; stroke-width:4; stroke-opacity:1; fill:none" points="-1290.89,1063.09 -1290.89,1044.19 "/>
<polyline clip-path="url(#clip320)" style="stroke:#000000; stroke-linecap:round; stroke-linejoin:round; stroke-width:4; stroke-opacity:1; fill:none" points="915.26,1063.09 915.26,1044.19 "/>
<polyline clip-path="url(#clip320)" style="stroke:#000000; stroke-linecap:round; stroke-linejoin:round; stroke-width:4; stroke-opacity:1; fill:none" points="1301.34,1063.09 1301.34,1044.19 "/>
<path clip-path="url(#clip320)" d="M-1290.89 1100.41 Q-1294.5 1100.41 -1296.33 1103.97 Q-1298.13 1107.51 -1298.13 1114.64 Q-1298.13 1121.75 -1296.33 1125.32 Q-1294.5 1128.86 -1290.89 1128.86 Q-1287.25 1128.86 -1285.45 1125.32 Q-1283.62 1121.75 -1283.62 1114.64 Q-1283.62 1107.51 -1285.45 1103.97 Q-1287.25 1100.41 -1290.89 1100.41 M-1290.89 1096.7 Q-1285.08 1096.7 -1282.02 1101.31 Q-1278.94 1105.89 -1278.94 1114.64 Q-1278.94 1123.37 -1282.02 1127.98 Q-1285.08 1132.56 -1290.89 1132.56 Q-1296.7 1132.56 -1299.78 1127.98 Q-1302.83 1123.37 -1302.83 1114.64 Q-1302.83 1105.89 -1299.78 1101.31 Q-1296.7 1096.7 -1290.89 1096.7 Z" fill="#000000" fill-rule="nonzero" fill-opacity="1" /><path clip-path="url(#clip320)" d="M913.118 1115.45 L898.373 1115.45 Q898.72 1122.38 900.318 1125.32 Q902.308 1128.93 905.757 1128.93 Q909.23 1128.93 911.151 1125.29 Q912.841 1122.1 913.118 1115.45 M913.049 1111.52 Q912.401 1104.95 911.151 1102.63 Q909.16 1098.97 905.757 1098.97 Q902.216 1098.97 900.341 1102.58 Q898.859 1105.5 898.419 1111.52 L913.049 1111.52 M905.757 1095.5 Q911.313 1095.5 914.484 1100.41 Q917.655 1105.29 917.655 1113.95 Q917.655 1122.58 914.484 1127.49 Q911.313 1132.42 905.757 1132.42 Q900.179 1132.42 897.031 1127.49 Q893.859 1122.58 893.859 1113.95 Q893.859 1105.29 897.031 1100.41 Q900.179 1095.5 905.757 1095.5 Z" fill="#000000" fill-rule="nonzero" fill-opacity="1" /><path clip-path="url(#clip320)" d="M923.859 1129.34 L928.581 1129.34 L928.581 1115.2 L923.419 1116.15 L923.419 1113.46 L928.743 1112.56 L931.915 1112.56 L931.915 1129.34 L936.66 1129.34 L936.66 1131.89 L923.859 1131.89 L923.859 1129.34 Z" fill="#000000" fill-rule="nonzero" fill-opacity="1" /><path clip-path="url(#clip320)" d="M1295.86 1105.96 L1286.49 1118.58 L1296.35 1131.89 L1291.32 1131.89 L1283.78 1121.7 L1276.23 1131.89 L1271.21 1131.89 L1281.28 1118.33 L1272.06 1105.96 L1277.09 1105.96 L1283.96 1115.2 L1290.84 1105.96 L1295.86 1105.96 Z" fill="#000000" fill-rule="nonzero" fill-opacity="1" /><path clip-path="url(#clip320)" d="M1301.51 1129.34 L1306.23 1129.34 L1306.23 1115.2 L1301.07 1116.15 L1301.07 1113.46 L1306.39 1112.56 L1309.56 1112.56 L1309.56 1129.34 L1314.31 1129.34 L1314.31 1131.89 L1301.51 1131.89 L1301.51 1129.34 Z" fill="#000000" fill-rule="nonzero" fill-opacity="1" /><path clip-path="url(#clip320)" d="M1331.46 1102.47 L1331.46 1104.69 Q1330.33 1104.14 1329.19 1103.86 Q1328.04 1103.58 1326.88 1103.58 Q1324.26 1103.58 1322.83 1105.06 Q1321.37 1106.52 1321.37 1109.18 Q1321.37 1111.84 1322.83 1113.3 Q1324.26 1114.78 1326.88 1114.78 Q1328.04 1114.78 1329.19 1114.51 Q1330.33 1114.23 1331.46 1113.67 L1331.46 1115.87 Q1330.35 1116.33 1329.15 1116.57 Q1327.94 1116.8 1326.58 1116.8 Q1322.9 1116.8 1320.72 1114.74 Q1318.55 1112.68 1318.55 1109.18 Q1318.55 1105.64 1320.74 1103.6 Q1322.94 1101.57 1326.76 1101.57 Q1327.99 1101.57 1329.17 1101.77 Q1330.35 1102.01 1331.46 1102.47 Z" fill="#000000" fill-rule="nonzero" fill-opacity="1" /><path clip-path="url(#clip320)" d="M874.482 1184.31 L861.592 1201.65 L875.151 1219.95 L868.244 1219.95 L857.868 1205.95 L847.492 1219.95 L840.585 1219.95 L854.43 1201.3 L841.763 1184.31 L848.669 1184.31 L858.123 1197.01 L867.576 1184.31 L874.482 1184.31 Z" fill="#000000" fill-rule="nonzero" fill-opacity="1" /><path clip-path="url(#clip320)" d="M882.249 1216.45 L888.742 1216.45 L888.742 1197.01 L881.644 1198.31 L881.644 1194.62 L888.964 1193.38 L893.325 1193.38 L893.325 1216.45 L899.85 1216.45 L899.85 1219.95 L882.249 1219.95 L882.249 1216.45 Z" fill="#000000" fill-rule="nonzero" fill-opacity="1" /><polyline clip-path="url(#clip320)" style="stroke:#000000; stroke-linecap:round; stroke-linejoin:round; stroke-width:4; stroke-opacity:1; fill:none" points="179.877,1063.09 179.877,47.2441 "/>
<polyline clip-path="url(#clip320)" style="stroke:#000000; stroke-linecap:round; stroke-linejoin:round; stroke-width:4; stroke-opacity:1; fill:none" points="179.877,1469.43 198.775,1469.43 "/>
<polyline clip-path="url(#clip320)" style="stroke:#000000; stroke-linecap:round; stroke-linejoin:round; stroke-width:4; stroke-opacity:1; fill:none" points="179.877,656.752 198.775,656.752 "/>
<path clip-path="url(#clip320)" d="M119.933 1455.23 Q116.322 1455.23 114.493 1458.79 Q112.688 1462.33 112.688 1469.46 Q112.688 1476.57 114.493 1480.13 Q116.322 1483.68 119.933 1483.68 Q123.567 1483.68 125.373 1480.13 Q127.201 1476.57 127.201 1469.46 Q127.201 1462.33 125.373 1458.79 Q123.567 1455.23 119.933 1455.23 M119.933 1451.52 Q125.743 1451.52 128.799 1456.13 Q131.877 1460.71 131.877 1469.46 Q131.877 1478.19 128.799 1482.8 Q125.743 1487.38 119.933 1487.38 Q114.123 1487.38 111.044 1482.8 Q107.989 1478.19 107.989 1469.46 Q107.989 1460.71 111.044 1456.13 Q114.123 1451.52 119.933 1451.52 Z" fill="#000000" fill-rule="nonzero" fill-opacity="1" /><path clip-path="url(#clip320)" d="M108.729 657.596 L93.984 657.596 Q94.3312 664.518 95.9285 667.458 Q97.9192 671.069 101.368 671.069 Q104.84 671.069 106.762 667.434 Q108.452 664.24 108.729 657.596 M108.66 653.661 Q108.012 647.087 106.762 644.772 Q104.771 641.115 101.368 641.115 Q97.8266 641.115 95.9516 644.726 Q94.4701 647.643 94.0303 653.661 L108.66 653.661 M101.368 637.643 Q106.924 637.643 110.095 642.55 Q113.266 647.434 113.266 656.092 Q113.266 664.726 110.095 669.633 Q106.924 674.564 101.368 674.564 Q95.7896 674.564 92.6414 669.633 Q89.4702 664.726 89.4702 656.092 Q89.4702 647.434 92.6414 642.55 Q95.7896 637.643 101.368 637.643 Z" fill="#000000" fill-rule="nonzero" fill-opacity="1" /><path clip-path="url(#clip320)" d="M122.063 671.393 L131.877 671.393 L131.877 674.032 L118.035 674.032 L118.035 671.485 Q118.822 670.768 120.28 669.471 Q128.243 662.411 128.243 660.235 Q128.243 658.708 127.039 657.782 Q125.836 656.833 123.868 656.833 Q122.664 656.833 121.252 657.249 Q119.84 657.643 118.174 658.453 L118.174 655.606 Q119.956 654.958 121.484 654.633 Q123.035 654.309 124.354 654.309 Q127.711 654.309 129.725 655.837 Q131.738 657.365 131.738 659.865 Q131.738 663.083 124.076 669.657 Q122.78 670.768 122.063 671.393 Z" fill="#000000" fill-rule="nonzero" fill-opacity="1" /><path clip-path="url(#clip320)" d="M-8.4338 550.631 L8.91275 563.522 L27.2142 549.963 L27.2142 556.87 L13.2096 567.246 L27.2142 577.622 L27.2142 584.529 L8.56264 570.683 L-8.4338 583.351 L-8.4338 576.444 L4.26579 566.991 L-8.4338 557.538 L-8.4338 550.631 Z" fill="#000000" fill-rule="nonzero" fill-opacity="1" /><path clip-path="url(#clip320)" d="M23.5857 539.3 L23.5857 525.805 L27.2142 525.805 L27.2142 544.839 L23.713 544.839 Q22.7263 543.756 20.9439 541.751 Q11.2362 530.802 8.24435 530.802 Q6.14367 530.802 4.87053 532.457 Q3.56556 534.112 3.56556 536.818 Q3.56556 538.473 4.13847 540.414 Q4.67956 542.356 5.79355 544.648 L1.87865 544.648 Q0.987446 542.197 0.541847 540.096 Q0.0962472 537.964 0.0962472 536.149 Q0.0962472 531.534 2.19693 528.765 Q4.29761 525.996 7.7351 525.996 Q12.1593 525.996 21.1986 536.531 Q22.7263 538.314 23.5857 539.3 Z" fill="#000000" fill-rule="nonzero" fill-opacity="1" /><polyline clip-path="url(#clip322)" style="stroke:#009af9; stroke-linecap:round; stroke-linejoin:round; stroke-width:4; stroke-opacity:1; fill:none" points="1301.34,656.752 1298.17,651.649 1293.52,646.56 1288.88,641.485 1284.25,636.423 1279.63,631.376 1275.02,626.341 1270.41,621.32 1265.82,616.313 1261.23,611.319 1256.65,606.339 1252.08,601.372 1247.51,596.419 1242.96,591.478 1238.41,586.551 1233.87,581.638 1229.34,576.737 1224.82,571.85 1220.3,566.976 1215.79,562.115 1211.29,557.267 1206.8,552.432 1202.32,547.61 1197.85,542.801 1193.38,538.005 1188.92,533.222 1184.47,528.452 1180.03,523.695 1175.59,518.95 1171.17,514.218 1166.75,509.499 1162.34,504.793 1157.93,500.099 1153.54,495.418 1149.15,490.75 1144.77,486.094 1140.4,481.45 1136.04,476.82 1131.68,472.201 1127.33,467.595 1122.99,463.002 1118.66,458.42 1114.34,453.851 1110.02,449.295 1105.71,444.75 1101.41,440.218 1097.12,435.698 1092.83,431.191 1088.55,426.695 1084.28,422.211 1080.02,417.74 1075.76,413.281 1071.52,408.833 1067.28,404.398 1063.04,399.974 1058.82,395.562 1054.6,391.163 1050.39,386.775 1046.19,382.399 1042,378.034 1037.81,373.682 1033.63,369.341 1029.46,365.012 1025.29,360.694 1021.14,356.388 1016.99,352.094 1012.85,347.811 1008.71,343.54 1004.58,339.28 1000.46,335.032 996.352,330.795 992.247,326.569 988.15,322.355 984.059,318.152 979.976,313.961 975.901,309.781 971.832,305.612 967.771,301.454 963.718,297.308 959.671,293.172 955.632,289.048 951.6,284.935 947.576,280.833 943.558,276.742 939.548,272.662 935.545,268.593 931.549,264.535 927.56,260.489 923.579,256.475 919.604,252.764 915.637,250.567 911.677,251.371 907.724,254.268 903.778,257.514 899.839,260.773 895.907,264.026 891.983,267.269 888.065,270.504 884.154,273.73 880.251,276.948 876.354,280.157 872.465,283.357 868.582,286.548 864.706,289.731 860.837,292.906 856.976,296.072 853.121,299.229 849.273,302.378 845.432,305.518 841.598,308.65 837.771,311.774 833.95,314.889 830.137,317.996 826.33,321.094 822.53,324.184 818.737,327.266 814.951,330.339 811.171,333.404 807.399,336.461 803.633,339.51 799.874,342.551 796.121,345.583 792.376,348.607 788.637,351.623 784.905,354.631 781.179,357.631 777.46,360.623 773.748,363.606 770.043,366.582 766.344,369.549 762.652,372.509 758.966,375.461 755.287,378.405 751.615,381.34 747.949,384.268 744.29,387.188 740.637,390.101 736.991,393.005 733.352,395.902 729.719,398.79 726.092,401.671 722.472,404.544 718.859,407.41 715.252,410.268 711.651,413.118 708.057,415.96 704.47,418.795 700.889,421.622 697.314,424.442 693.746,427.254 690.184,430.058 686.628,432.855 683.079,435.644 679.536,438.426 676,441.2 672.47,443.967 668.946,446.727 665.429,449.479 661.918,452.223 658.413,454.96 654.915,457.69 651.422,460.413 647.936,463.128 644.457,465.836 640.983,468.536 637.516,471.23 634.055,473.916 630.6,476.594 627.152,479.266 623.709,481.93 620.273,484.588 616.843,487.238 613.419,489.881 610.002,492.517 606.59,495.145 603.185,497.767 599.785,500.382 596.392,502.989 593.005,505.59 589.624,508.184 586.249,510.77 582.88,513.35 579.517,515.923 576.16,518.488 572.809,521.047 569.464,523.599 566.125,526.144 562.792,528.683 559.466,531.214 556.145,533.739 552.83,536.257 549.521,538.768 546.218,541.272 542.921,543.77 539.629,546.26 536.344,548.745 533.065,551.222 529.791,553.693 526.524,556.157 523.262,558.614 520.006,561.065 516.756,563.51 513.511,565.947 510.273,568.379 507.04,570.803 503.814,573.221 500.593,575.633 497.377,578.038 494.168,580.437 490.964,582.829 487.766,585.215 484.574,587.594 481.388,589.967 478.207,592.333 475.032,594.694 471.862,597.047 468.699,599.395 465.541,601.736 462.388,604.071 459.242,606.4 456.101,608.722 452.965,611.038 449.836,613.348 446.711,615.651 443.593,617.949 440.48,620.24 437.373,622.525 434.271,624.804 431.175,627.077 428.084,629.344 424.999,631.604 421.919,633.859 418.845,636.107 415.777,638.35 412.714,640.586 409.656,642.816 406.604,645.041 403.558,647.259 400.517,649.471 397.488,651.678 394.615,653.878 393.533,656.073 396.316,658.261 402.178,660.444 408.948,662.621 415.767,664.792 422.576,666.957 429.372,669.117 436.156,671.27 442.928,673.418 449.688,675.56 456.436,677.696 463.171,679.827 469.894,681.951 476.605,684.07 483.304,686.184 489.991,688.291 496.666,690.393 503.328,692.49 509.979,694.58 516.618,696.665 523.244,698.745 529.859,700.819 536.462,702.887 543.053,704.95 549.632,707.007 556.199,709.058 562.754,711.104 569.297,713.145 575.828,715.18 582.348,717.21 588.856,719.234 595.352,721.253 601.836,723.266 608.309,725.274 614.77,727.276 621.219,729.273 627.657,731.265 634.083,733.251 640.497,735.232 646.9,737.208 653.291,739.178 659.671,741.143 666.039,743.103 672.395,745.057 678.74,747.007 685.074,748.951 691.396,750.889 697.707,752.823 704.006,754.751 710.294,756.674 716.57,758.592 722.835,760.505 729.089,762.413 735.332,764.315 741.563,766.213 747.783,768.105 753.991,769.992 760.189,771.874 766.375,773.751 772.55,775.623 778.458,777.49 782.789,779.352 786.888,781.209 792.554,783.061 797.184,784.908 799.837,786.75 802.024,788.587 804.207,790.419 806.386,792.246 808.561,794.068 810.733,795.886 812.9,797.698 815.063,799.506 817.223,801.308 819.379,803.106 821.531,804.899 823.679,806.687 825.823,808.471 827.963,810.249 830.099,812.023 832.232,813.792 834.361,815.556 836.485,817.316 838.607,819.071 840.724,820.821 842.837,822.566 844.947,824.307 847.053,826.043 849.155,827.774 851.254,829.501 853.348,831.223 855.439,832.94 857.526,834.653 859.609,836.361 861.689,838.064 863.765,839.763 865.837,841.458 867.906,843.148 869.97,844.833 872.031,846.513 874.089,848.19 876.142,849.861 878.192,851.529 880.238,853.191 882.281,854.85 884.32,856.503 886.355,858.153 888.387,859.798 890.415,861.438 892.439,863.074 894.46,864.706 896.477,866.333 898.49,867.956 900.5,869.574 902.506,871.188 904.509,872.796 907.129,874.388 913.364,875.021 922.931,872.286 932.816,866.868 942.683,861.201 952.533,855.548 962.364,849.911 972.179,844.288 981.975,838.681 991.754,833.089 1001.52,827.512 1011.26,821.95 1020.99,816.402 1030.69,810.87 1040.39,805.353 1050.06,799.85 1059.72,794.363 1069.36,788.89 1078.98,783.432 1088.58,777.988 1098.17,772.559 1107.74,767.145 1117.29,761.745 1126.83,756.36 1136.35,750.989 1145.85,745.633 1155.34,740.291 1164.8,734.964 1174.25,729.651 1183.69,724.352 1193.11,719.068 1202.51,713.797 1211.89,708.541 1221.25,703.299 1230.6,698.071 1239.94,692.857 1249.25,687.658 1258.55,682.472 1267.83,677.3 1277.1,672.142 1286.35,666.998 1295.58,661.868 1301.34,656.752 "/>
<path clip-path="url(#clip320)" d="M955.497 184.786 L1514.53 184.786 L1514.53 81.1056 L955.497 81.1056  Z" fill="#ffffff" fill-rule="evenodd" fill-opacity="1"/>
<polyline clip-path="url(#clip320)" style="stroke:#000000; stroke-linecap:round; stroke-linejoin:round; stroke-width:4; stroke-opacity:1; fill:none" points="955.497,184.786 1514.53,184.786 1514.53,81.1056 955.497,81.1056 955.497,184.786 "/>
<polyline clip-path="url(#clip320)" style="stroke:#009af9; stroke-linecap:round; stroke-linejoin:round; stroke-width:4; stroke-opacity:1; fill:none" points="970.838,132.946 1062.88,132.946 "/>
<path clip-path="url(#clip320)" d="M1090.12 127.286 Q1086.7 127.286 1084.71 129.971 Q1082.71 132.633 1082.71 137.286 Q1082.71 141.939 1084.68 144.624 Q1086.67 147.286 1090.12 147.286 Q1093.52 147.286 1095.52 144.601 Q1097.51 141.915 1097.51 137.286 Q1097.51 132.679 1095.52 129.994 Q1093.52 127.286 1090.12 127.286 M1090.12 123.675 Q1095.68 123.675 1098.85 127.286 Q1102.02 130.897 1102.02 137.286 Q1102.02 143.652 1098.85 147.286 Q1095.68 150.897 1090.12 150.897 Q1084.54 150.897 1081.37 147.286 Q1078.22 143.652 1078.22 137.286 Q1078.22 130.897 1081.37 127.286 Q1084.54 123.675 1090.12 123.675 Z" fill="#000000" fill-rule="nonzero" fill-opacity="1" /><path clip-path="url(#clip320)" d="M1113.2 146.337 L1113.2 160.087 L1108.92 160.087 L1108.92 124.3 L1113.2 124.3 L1113.2 128.235 Q1114.54 125.92 1116.58 124.809 Q1118.64 123.675 1121.49 123.675 Q1126.21 123.675 1129.15 127.425 Q1132.11 131.175 1132.11 137.286 Q1132.11 143.397 1129.15 147.147 Q1126.21 150.897 1121.49 150.897 Q1118.64 150.897 1116.58 149.786 Q1114.54 148.652 1113.2 146.337 M1127.69 137.286 Q1127.69 132.587 1125.75 129.925 Q1123.83 127.24 1120.45 127.24 Q1117.07 127.24 1115.12 129.925 Q1113.2 132.587 1113.2 137.286 Q1113.2 141.985 1115.12 144.67 Q1117.07 147.332 1120.45 147.332 Q1123.83 147.332 1125.75 144.67 Q1127.69 141.985 1127.69 137.286 Z" fill="#000000" fill-rule="nonzero" fill-opacity="1" /><path clip-path="url(#clip320)" d="M1143.39 116.939 L1143.39 124.3 L1152.16 124.3 L1152.16 127.61 L1143.39 127.61 L1143.39 141.684 Q1143.39 144.855 1144.24 145.758 Q1145.12 146.661 1147.78 146.661 L1152.16 146.661 L1152.16 150.226 L1147.78 150.226 Q1142.85 150.226 1140.98 148.397 Q1139.1 146.545 1139.1 141.684 L1139.1 127.61 L1135.98 127.61 L1135.98 124.3 L1139.1 124.3 L1139.1 116.939 L1143.39 116.939 Z" fill="#000000" fill-rule="nonzero" fill-opacity="1" /><path clip-path="url(#clip320)" d="M1157.76 124.3 L1162.02 124.3 L1162.02 150.226 L1157.76 150.226 L1157.76 124.3 M1157.76 114.207 L1162.02 114.207 L1162.02 119.601 L1157.76 119.601 L1157.76 114.207 Z" fill="#000000" fill-rule="nonzero" fill-opacity="1" /><path clip-path="url(#clip320)" d="M1191.12 129.277 Q1192.71 126.406 1194.94 125.041 Q1197.16 123.675 1200.17 123.675 Q1204.22 123.675 1206.42 126.522 Q1208.62 129.346 1208.62 134.578 L1208.62 150.226 L1204.33 150.226 L1204.33 134.716 Q1204.33 130.99 1203.01 129.184 Q1201.7 127.379 1198.99 127.379 Q1195.68 127.379 1193.76 129.578 Q1191.83 131.777 1191.83 135.573 L1191.83 150.226 L1187.55 150.226 L1187.55 134.716 Q1187.55 130.966 1186.23 129.184 Q1184.91 127.379 1182.16 127.379 Q1178.89 127.379 1176.97 129.601 Q1175.05 131.8 1175.05 135.573 L1175.05 150.226 L1170.77 150.226 L1170.77 124.3 L1175.05 124.3 L1175.05 128.328 Q1176.51 125.943 1178.55 124.809 Q1180.58 123.675 1183.39 123.675 Q1186.21 123.675 1188.18 125.11 Q1190.17 126.545 1191.12 129.277 Z" fill="#000000" fill-rule="nonzero" fill-opacity="1" /><path clip-path="url(#clip320)" d="M1228.89 137.193 Q1223.73 137.193 1221.74 138.374 Q1219.75 139.554 1219.75 142.402 Q1219.75 144.67 1221.23 146.013 Q1222.74 147.332 1225.31 147.332 Q1228.85 147.332 1230.98 144.832 Q1233.13 142.309 1233.13 138.142 L1233.13 137.193 L1228.89 137.193 M1237.39 135.434 L1237.39 150.226 L1233.13 150.226 L1233.13 146.29 Q1231.67 148.652 1229.5 149.786 Q1227.32 150.897 1224.17 150.897 Q1220.19 150.897 1217.83 148.675 Q1215.49 146.429 1215.49 142.679 Q1215.49 138.304 1218.41 136.082 Q1221.35 133.86 1227.16 133.86 L1233.13 133.86 L1233.13 133.443 Q1233.13 130.504 1231.19 128.906 Q1229.26 127.286 1225.77 127.286 Q1223.55 127.286 1221.44 127.818 Q1219.33 128.351 1217.39 129.416 L1217.39 125.48 Q1219.73 124.578 1221.93 124.138 Q1224.13 123.675 1226.21 123.675 Q1231.83 123.675 1234.61 126.591 Q1237.39 129.508 1237.39 135.434 Z" fill="#000000" fill-rule="nonzero" fill-opacity="1" /><path clip-path="url(#clip320)" d="M1246.16 114.207 L1250.42 114.207 L1250.42 150.226 L1246.16 150.226 L1246.16 114.207 Z" fill="#000000" fill-rule="nonzero" fill-opacity="1" /><path clip-path="url(#clip320)" d="M1278.62 116.939 L1278.62 124.3 L1287.39 124.3 L1287.39 127.61 L1278.62 127.61 L1278.62 141.684 Q1278.62 144.855 1279.47 145.758 Q1280.35 146.661 1283.01 146.661 L1287.39 146.661 L1287.39 150.226 L1283.01 150.226 Q1278.08 150.226 1276.21 148.397 Q1274.33 146.545 1274.33 141.684 L1274.33 127.61 L1271.21 127.61 L1271.21 124.3 L1274.33 124.3 L1274.33 116.939 L1278.62 116.939 Z" fill="#000000" fill-rule="nonzero" fill-opacity="1" /><path clip-path="url(#clip320)" d="M1308.01 128.281 Q1307.3 127.865 1306.44 127.679 Q1305.61 127.471 1304.59 127.471 Q1300.98 127.471 1299.03 129.832 Q1297.11 132.17 1297.11 136.568 L1297.11 150.226 L1292.83 150.226 L1292.83 124.3 L1297.11 124.3 L1297.11 128.328 Q1298.45 125.966 1300.61 124.832 Q1302.76 123.675 1305.84 123.675 Q1306.28 123.675 1306.81 123.744 Q1307.34 123.791 1307.99 123.906 L1308.01 128.281 Z" fill="#000000" fill-rule="nonzero" fill-opacity="1" /><path clip-path="url(#clip320)" d="M1324.26 137.193 Q1319.1 137.193 1317.11 138.374 Q1315.12 139.554 1315.12 142.402 Q1315.12 144.67 1316.6 146.013 Q1318.11 147.332 1320.68 147.332 Q1324.22 147.332 1326.35 144.832 Q1328.5 142.309 1328.5 138.142 L1328.5 137.193 L1324.26 137.193 M1332.76 135.434 L1332.76 150.226 L1328.5 150.226 L1328.5 146.29 Q1327.04 148.652 1324.87 149.786 Q1322.69 150.897 1319.54 150.897 Q1315.56 150.897 1313.2 148.675 Q1310.86 146.429 1310.86 142.679 Q1310.86 138.304 1313.78 136.082 Q1316.72 133.86 1322.53 133.86 L1328.5 133.86 L1328.5 133.443 Q1328.5 130.504 1326.56 128.906 Q1324.63 127.286 1321.14 127.286 Q1318.92 127.286 1316.81 127.818 Q1314.7 128.351 1312.76 129.416 L1312.76 125.48 Q1315.1 124.578 1317.3 124.138 Q1319.5 123.675 1321.58 123.675 Q1327.2 123.675 1329.98 126.591 Q1332.76 129.508 1332.76 135.434 Z" fill="#000000" fill-rule="nonzero" fill-opacity="1" /><path clip-path="url(#clip320)" d="M1341.53 124.3 L1345.79 124.3 L1345.79 150.689 Q1345.79 155.642 1343.89 157.864 Q1342.02 160.087 1337.83 160.087 L1336.21 160.087 L1336.21 156.476 L1337.34 156.476 Q1339.77 156.476 1340.65 155.341 Q1341.53 154.23 1341.53 150.689 L1341.53 124.3 M1341.53 114.207 L1345.79 114.207 L1345.79 119.601 L1341.53 119.601 L1341.53 114.207 Z" fill="#000000" fill-rule="nonzero" fill-opacity="1" /><path clip-path="url(#clip320)" d="M1376.88 136.198 L1376.88 138.281 L1357.3 138.281 Q1357.57 142.679 1359.94 144.994 Q1362.32 147.286 1366.56 147.286 Q1369.01 147.286 1371.3 146.684 Q1373.62 146.082 1375.88 144.878 L1375.88 148.906 Q1373.59 149.878 1371.19 150.388 Q1368.78 150.897 1366.3 150.897 Q1360.1 150.897 1356.46 147.286 Q1352.85 143.675 1352.85 137.517 Q1352.85 131.152 1356.28 127.425 Q1359.73 123.675 1365.56 123.675 Q1370.79 123.675 1373.82 127.054 Q1376.88 130.411 1376.88 136.198 M1372.62 134.948 Q1372.57 131.453 1370.65 129.369 Q1368.75 127.286 1365.61 127.286 Q1362.04 127.286 1359.89 129.3 Q1357.76 131.314 1357.44 134.971 L1372.62 134.948 Z" fill="#000000" fill-rule="nonzero" fill-opacity="1" /><path clip-path="url(#clip320)" d="M1402.53 125.295 L1402.53 129.277 Q1400.72 128.281 1398.89 127.795 Q1397.09 127.286 1395.24 127.286 Q1391.09 127.286 1388.8 129.925 Q1386.51 132.541 1386.51 137.286 Q1386.51 142.031 1388.8 144.67 Q1391.09 147.286 1395.24 147.286 Q1397.09 147.286 1398.89 146.8 Q1400.72 146.29 1402.53 145.295 L1402.53 149.23 Q1400.75 150.064 1398.82 150.48 Q1396.93 150.897 1394.77 150.897 Q1388.92 150.897 1385.47 147.216 Q1382.02 143.536 1382.02 137.286 Q1382.02 130.943 1385.49 127.309 Q1388.99 123.675 1395.05 123.675 Q1397.02 123.675 1398.89 124.092 Q1400.77 124.485 1402.53 125.295 Z" fill="#000000" fill-rule="nonzero" fill-opacity="1" /><path clip-path="url(#clip320)" d="M1414.15 116.939 L1414.15 124.3 L1422.92 124.3 L1422.92 127.61 L1414.15 127.61 L1414.15 141.684 Q1414.15 144.855 1415 145.758 Q1415.88 146.661 1418.55 146.661 L1422.92 146.661 L1422.92 150.226 L1418.55 150.226 Q1413.62 150.226 1411.74 148.397 Q1409.87 146.545 1409.87 141.684 L1409.87 127.61 L1406.74 127.61 L1406.74 124.3 L1409.87 124.3 L1409.87 116.939 L1414.15 116.939 Z" fill="#000000" fill-rule="nonzero" fill-opacity="1" /><path clip-path="url(#clip320)" d="M1438.57 127.286 Q1435.14 127.286 1433.15 129.971 Q1431.16 132.633 1431.16 137.286 Q1431.16 141.939 1433.13 144.624 Q1435.12 147.286 1438.57 147.286 Q1441.97 147.286 1443.96 144.601 Q1445.95 141.915 1445.95 137.286 Q1445.95 132.679 1443.96 129.994 Q1441.97 127.286 1438.57 127.286 M1438.57 123.675 Q1444.12 123.675 1447.3 127.286 Q1450.47 130.897 1450.47 137.286 Q1450.47 143.652 1447.3 147.286 Q1444.12 150.897 1438.57 150.897 Q1432.99 150.897 1429.82 147.286 Q1426.67 143.652 1426.67 137.286 Q1426.67 130.897 1429.82 127.286 Q1432.99 123.675 1438.57 123.675 Z" fill="#000000" fill-rule="nonzero" fill-opacity="1" /><path clip-path="url(#clip320)" d="M1472.55 128.281 Q1471.83 127.865 1470.98 127.679 Q1470.14 127.471 1469.12 127.471 Q1465.51 127.471 1463.57 129.832 Q1461.65 132.17 1461.65 136.568 L1461.65 150.226 L1457.37 150.226 L1457.37 124.3 L1461.65 124.3 L1461.65 128.328 Q1462.99 125.966 1465.14 124.832 Q1467.3 123.675 1470.37 123.675 Q1470.81 123.675 1471.35 123.744 Q1471.88 123.791 1472.53 123.906 L1472.55 128.281 Z" fill="#000000" fill-rule="nonzero" fill-opacity="1" /><path clip-path="url(#clip320)" d="M1487.81 152.633 Q1486 157.263 1484.29 158.675 Q1482.57 160.087 1479.7 160.087 L1476.3 160.087 L1476.3 156.522 L1478.8 156.522 Q1480.56 156.522 1481.53 155.689 Q1482.5 154.855 1483.68 151.753 L1484.45 149.809 L1473.96 124.3 L1478.48 124.3 L1486.58 144.578 L1494.68 124.3 L1499.19 124.3 L1487.81 152.633 Z" fill="#000000" fill-rule="nonzero" fill-opacity="1" /><path clip-path="url(#clip320)" d="M1772.08 1063.09 L3152.76 1063.09 L3152.76 47.2441 L1772.08 47.2441  Z" fill="#ffffff" fill-rule="evenodd" fill-opacity="1"/>
<defs>
  <clipPath id="clip323">
    <rect x="1772" y="47" width="1382" height="1017"/>
  </clipPath>
</defs>
<polyline clip-path="url(#clip323)" style="stroke:#000000; stroke-linecap:round; stroke-linejoin:round; stroke-width:2; stroke-opacity:0.1; fill:none" points="1811.15,1063.09 1811.15,47.2441 "/>
<polyline clip-path="url(#clip323)" style="stroke:#000000; stroke-linecap:round; stroke-linejoin:round; stroke-width:2; stroke-opacity:0.1; fill:none" points="2174.61,1063.09 2174.61,47.2441 "/>
<polyline clip-path="url(#clip323)" style="stroke:#000000; stroke-linecap:round; stroke-linejoin:round; stroke-width:2; stroke-opacity:0.1; fill:none" points="2538.07,1063.09 2538.07,47.2441 "/>
<polyline clip-path="url(#clip323)" style="stroke:#000000; stroke-linecap:round; stroke-linejoin:round; stroke-width:2; stroke-opacity:0.1; fill:none" points="2901.52,1063.09 2901.52,47.2441 "/>
<polyline clip-path="url(#clip323)" style="stroke:#000000; stroke-linecap:round; stroke-linejoin:round; stroke-width:2; stroke-opacity:0.1; fill:none" points="1772.08,1034.34 3152.76,1034.34 "/>
<polyline clip-path="url(#clip323)" style="stroke:#000000; stroke-linecap:round; stroke-linejoin:round; stroke-width:2; stroke-opacity:0.1; fill:none" points="1772.08,794.753 3152.76,794.753 "/>
<polyline clip-path="url(#clip323)" style="stroke:#000000; stroke-linecap:round; stroke-linejoin:round; stroke-width:2; stroke-opacity:0.1; fill:none" points="1772.08,555.167 3152.76,555.167 "/>
<polyline clip-path="url(#clip323)" style="stroke:#000000; stroke-linecap:round; stroke-linejoin:round; stroke-width:2; stroke-opacity:0.1; fill:none" points="1772.08,315.581 3152.76,315.581 "/>
<polyline clip-path="url(#clip323)" style="stroke:#000000; stroke-linecap:round; stroke-linejoin:round; stroke-width:2; stroke-opacity:0.1; fill:none" points="1772.08,75.9945 3152.76,75.9945 "/>
<polyline clip-path="url(#clip320)" style="stroke:#000000; stroke-linecap:round; stroke-linejoin:round; stroke-width:4; stroke-opacity:1; fill:none" points="1772.08,1063.09 3152.76,1063.09 "/>
<polyline clip-path="url(#clip320)" style="stroke:#000000; stroke-linecap:round; stroke-linejoin:round; stroke-width:4; stroke-opacity:1; fill:none" points="1811.15,1063.09 1811.15,1044.19 "/>
<polyline clip-path="url(#clip320)" style="stroke:#000000; stroke-linecap:round; stroke-linejoin:round; stroke-width:4; stroke-opacity:1; fill:none" points="2174.61,1063.09 2174.61,1044.19 "/>
<polyline clip-path="url(#clip320)" style="stroke:#000000; stroke-linecap:round; stroke-linejoin:round; stroke-width:4; stroke-opacity:1; fill:none" points="2538.07,1063.09 2538.07,1044.19 "/>
<polyline clip-path="url(#clip320)" style="stroke:#000000; stroke-linecap:round; stroke-linejoin:round; stroke-width:4; stroke-opacity:1; fill:none" points="2901.52,1063.09 2901.52,1044.19 "/>
<path clip-path="url(#clip320)" d="M1811.15 1100.41 Q1807.54 1100.41 1805.71 1103.97 Q1803.91 1107.51 1803.91 1114.64 Q1803.91 1121.75 1805.71 1125.32 Q1807.54 1128.86 1811.15 1128.86 Q1814.79 1128.86 1816.59 1125.32 Q1818.42 1121.75 1818.42 1114.64 Q1818.42 1107.51 1816.59 1103.97 Q1814.79 1100.41 1811.15 1100.41 M1811.15 1096.7 Q1816.96 1096.7 1820.02 1101.31 Q1823.1 1105.89 1823.1 1114.64 Q1823.1 1123.37 1820.02 1127.98 Q1816.96 1132.56 1811.15 1132.56 Q1805.34 1132.56 1802.26 1127.98 Q1799.21 1123.37 1799.21 1114.64 Q1799.21 1105.89 1802.26 1101.31 Q1805.34 1096.7 1811.15 1096.7 Z" fill="#000000" fill-rule="nonzero" fill-opacity="1" /><path clip-path="url(#clip320)" d="M2164.99 1127.95 L2172.63 1127.95 L2172.63 1101.59 L2164.32 1103.26 L2164.32 1099 L2172.58 1097.33 L2177.26 1097.33 L2177.26 1127.95 L2184.9 1127.95 L2184.9 1131.89 L2164.99 1131.89 L2164.99 1127.95 Z" fill="#000000" fill-rule="nonzero" fill-opacity="1" /><path clip-path="url(#clip320)" d="M2532.72 1127.95 L2549.04 1127.95 L2549.04 1131.89 L2527.09 1131.89 L2527.09 1127.95 Q2529.76 1125.2 2534.34 1120.57 Q2538.95 1115.92 2540.13 1114.58 Q2542.37 1112.05 2543.25 1110.32 Q2544.15 1108.56 2544.15 1106.87 Q2544.15 1104.11 2542.21 1102.38 Q2540.29 1100.64 2537.19 1100.64 Q2534.99 1100.64 2532.53 1101.4 Q2530.1 1102.17 2527.33 1103.72 L2527.33 1099 Q2530.15 1097.86 2532.6 1097.28 Q2535.06 1096.7 2537.09 1096.7 Q2542.46 1096.7 2545.66 1099.39 Q2548.85 1102.08 2548.85 1106.57 Q2548.85 1108.7 2548.04 1110.62 Q2547.26 1112.51 2545.15 1115.11 Q2544.57 1115.78 2541.47 1119 Q2538.37 1122.19 2532.72 1127.95 Z" fill="#000000" fill-rule="nonzero" fill-opacity="1" /><path clip-path="url(#clip320)" d="M2905.77 1113.26 Q2909.13 1113.97 2911 1116.24 Q2912.9 1118.51 2912.9 1121.84 Q2912.9 1126.96 2909.38 1129.76 Q2905.86 1132.56 2899.38 1132.56 Q2897.21 1132.56 2894.89 1132.12 Q2892.6 1131.7 2890.15 1130.85 L2890.15 1126.33 Q2892.09 1127.47 2894.41 1128.05 Q2896.72 1128.63 2899.24 1128.63 Q2903.64 1128.63 2905.93 1126.89 Q2908.25 1125.15 2908.25 1121.84 Q2908.25 1118.79 2906.09 1117.08 Q2903.97 1115.34 2900.15 1115.34 L2896.12 1115.34 L2896.12 1111.5 L2900.33 1111.5 Q2903.78 1111.5 2905.61 1110.13 Q2907.44 1108.74 2907.44 1106.15 Q2907.44 1103.49 2905.54 1102.08 Q2903.66 1100.64 2900.15 1100.64 Q2898.22 1100.64 2896.03 1101.06 Q2893.83 1101.47 2891.19 1102.35 L2891.19 1098.19 Q2893.85 1097.45 2896.16 1097.08 Q2898.5 1096.7 2900.56 1096.7 Q2905.89 1096.7 2908.99 1099.14 Q2912.09 1101.54 2912.09 1105.66 Q2912.09 1108.53 2910.45 1110.52 Q2908.8 1112.49 2905.77 1113.26 Z" fill="#000000" fill-rule="nonzero" fill-opacity="1" /><path clip-path="url(#clip320)" d="M2461.48 1174.18 L2461.48 1184.31 L2473.54 1184.31 L2473.54 1188.86 L2461.48 1188.86 L2461.48 1208.21 Q2461.48 1212.57 2462.65 1213.81 Q2463.86 1215.05 2467.52 1215.05 L2473.54 1215.05 L2473.54 1219.95 L2467.52 1219.95 Q2460.74 1219.95 2458.17 1217.44 Q2455.59 1214.89 2455.59 1208.21 L2455.59 1188.86 L2451.29 1188.86 L2451.29 1184.31 L2455.59 1184.31 L2455.59 1174.18 L2461.48 1174.18 Z" fill="#000000" fill-rule="nonzero" fill-opacity="1" /><polyline clip-path="url(#clip320)" style="stroke:#000000; stroke-linecap:round; stroke-linejoin:round; stroke-width:4; stroke-opacity:1; fill:none" points="1772.08,1063.09 1772.08,47.2441 "/>
<polyline clip-path="url(#clip320)" style="stroke:#000000; stroke-linecap:round; stroke-linejoin:round; stroke-width:4; stroke-opacity:1; fill:none" points="1772.08,1034.34 1790.97,1034.34 "/>
<polyline clip-path="url(#clip320)" style="stroke:#000000; stroke-linecap:round; stroke-linejoin:round; stroke-width:4; stroke-opacity:1; fill:none" points="1772.08,794.753 1790.97,794.753 "/>
<polyline clip-path="url(#clip320)" style="stroke:#000000; stroke-linecap:round; stroke-linejoin:round; stroke-width:4; stroke-opacity:1; fill:none" points="1772.08,555.167 1790.97,555.167 "/>
<polyline clip-path="url(#clip320)" style="stroke:#000000; stroke-linecap:round; stroke-linejoin:round; stroke-width:4; stroke-opacity:1; fill:none" points="1772.08,315.581 1790.97,315.581 "/>
<polyline clip-path="url(#clip320)" style="stroke:#000000; stroke-linecap:round; stroke-linejoin:round; stroke-width:4; stroke-opacity:1; fill:none" points="1772.08,75.9945 1790.97,75.9945 "/>
<path clip-path="url(#clip320)" d="M1666.74 1020.14 Q1663.13 1020.14 1661.3 1023.7 Q1659.49 1027.24 1659.49 1034.37 Q1659.49 1041.48 1661.3 1045.05 Q1663.13 1048.59 1666.74 1048.59 Q1670.37 1048.59 1672.18 1045.05 Q1674.01 1041.48 1674.01 1034.37 Q1674.01 1027.24 1672.18 1023.7 Q1670.37 1020.14 1666.74 1020.14 M1666.74 1016.43 Q1672.55 1016.43 1675.6 1021.04 Q1678.68 1025.62 1678.68 1034.37 Q1678.68 1043.1 1675.6 1047.71 Q1672.55 1052.29 1666.74 1052.29 Q1660.93 1052.29 1657.85 1047.71 Q1654.79 1043.1 1654.79 1034.37 Q1654.79 1025.62 1657.85 1021.04 Q1660.93 1016.43 1666.74 1016.43 Z" fill="#000000" fill-rule="nonzero" fill-opacity="1" /><path clip-path="url(#clip320)" d="M1686.9 1045.74 L1691.78 1045.74 L1691.78 1051.62 L1686.9 1051.62 L1686.9 1045.74 Z" fill="#000000" fill-rule="nonzero" fill-opacity="1" /><path clip-path="url(#clip320)" d="M1712.55 1032.48 Q1709.4 1032.48 1707.55 1034.63 Q1705.72 1036.78 1705.72 1040.53 Q1705.72 1044.26 1707.55 1046.43 Q1709.4 1048.59 1712.55 1048.59 Q1715.7 1048.59 1717.52 1046.43 Q1719.38 1044.26 1719.38 1040.53 Q1719.38 1036.78 1717.52 1034.63 Q1715.7 1032.48 1712.55 1032.48 M1721.83 1017.82 L1721.83 1022.08 Q1720.07 1021.25 1718.27 1020.81 Q1716.48 1020.37 1714.72 1020.37 Q1710.09 1020.37 1707.64 1023.49 Q1705.21 1026.62 1704.86 1032.94 Q1706.23 1030.93 1708.29 1029.86 Q1710.35 1028.77 1712.83 1028.77 Q1718.03 1028.77 1721.04 1031.94 Q1724.08 1035.09 1724.08 1040.53 Q1724.08 1045.86 1720.93 1049.07 Q1717.78 1052.29 1712.55 1052.29 Q1706.55 1052.29 1703.38 1047.71 Q1700.21 1043.1 1700.21 1034.37 Q1700.21 1026.18 1704.1 1021.32 Q1707.99 1016.43 1714.54 1016.43 Q1716.3 1016.43 1718.08 1016.78 Q1719.89 1017.13 1721.83 1017.82 Z" fill="#000000" fill-rule="nonzero" fill-opacity="1" /><path clip-path="url(#clip320)" d="M1666.99 780.552 Q1663.38 780.552 1661.55 784.117 Q1659.75 787.658 1659.75 794.788 Q1659.75 801.894 1661.55 805.459 Q1663.38 809.001 1666.99 809.001 Q1670.63 809.001 1672.43 805.459 Q1674.26 801.894 1674.26 794.788 Q1674.26 787.658 1672.43 784.117 Q1670.63 780.552 1666.99 780.552 M1666.99 776.848 Q1672.8 776.848 1675.86 781.455 Q1678.94 786.038 1678.94 794.788 Q1678.94 803.515 1675.86 808.121 Q1672.8 812.705 1666.99 812.705 Q1661.18 812.705 1658.1 808.121 Q1655.05 803.515 1655.05 794.788 Q1655.05 786.038 1658.1 781.455 Q1661.18 776.848 1666.99 776.848 Z" fill="#000000" fill-rule="nonzero" fill-opacity="1" /><path clip-path="url(#clip320)" d="M1687.15 806.154 L1692.04 806.154 L1692.04 812.033 L1687.15 812.033 L1687.15 806.154 Z" fill="#000000" fill-rule="nonzero" fill-opacity="1" /><path clip-path="url(#clip320)" d="M1712.22 795.621 Q1708.89 795.621 1706.97 797.404 Q1705.07 799.186 1705.07 802.311 Q1705.07 805.436 1706.97 807.218 Q1708.89 809.001 1712.22 809.001 Q1715.56 809.001 1717.48 807.218 Q1719.4 805.413 1719.4 802.311 Q1719.4 799.186 1717.48 797.404 Q1715.58 795.621 1712.22 795.621 M1707.55 793.631 Q1704.54 792.89 1702.85 790.83 Q1701.18 788.769 1701.18 785.807 Q1701.18 781.663 1704.12 779.256 Q1707.09 776.848 1712.22 776.848 Q1717.39 776.848 1720.33 779.256 Q1723.27 781.663 1723.27 785.807 Q1723.27 788.769 1721.58 790.83 Q1719.91 792.89 1716.92 793.631 Q1720.3 794.418 1722.18 796.709 Q1724.08 799.001 1724.08 802.311 Q1724.08 807.334 1721 810.019 Q1717.94 812.705 1712.22 812.705 Q1706.51 812.705 1703.43 810.019 Q1700.37 807.334 1700.37 802.311 Q1700.37 799.001 1702.27 796.709 Q1704.17 794.418 1707.55 793.631 M1705.84 786.246 Q1705.84 788.932 1707.5 790.436 Q1709.19 791.941 1712.22 791.941 Q1715.23 791.941 1716.92 790.436 Q1718.64 788.932 1718.64 786.246 Q1718.64 783.561 1716.92 782.057 Q1715.23 780.552 1712.22 780.552 Q1709.19 780.552 1707.5 782.057 Q1705.84 783.561 1705.84 786.246 Z" fill="#000000" fill-rule="nonzero" fill-opacity="1" /><path clip-path="url(#clip320)" d="M1657.71 568.512 L1665.35 568.512 L1665.35 542.146 L1657.04 543.813 L1657.04 539.554 L1665.3 537.887 L1669.98 537.887 L1669.98 568.512 L1677.62 568.512 L1677.62 572.447 L1657.71 572.447 L1657.71 568.512 Z" fill="#000000" fill-rule="nonzero" fill-opacity="1" /><path clip-path="url(#clip320)" d="M1687.06 566.567 L1691.95 566.567 L1691.95 572.447 L1687.06 572.447 L1687.06 566.567 Z" fill="#000000" fill-rule="nonzero" fill-opacity="1" /><path clip-path="url(#clip320)" d="M1712.13 540.966 Q1708.52 540.966 1706.69 544.53 Q1704.89 548.072 1704.89 555.202 Q1704.89 562.308 1706.69 565.873 Q1708.52 569.415 1712.13 569.415 Q1715.77 569.415 1717.57 565.873 Q1719.4 562.308 1719.4 555.202 Q1719.4 548.072 1717.57 544.53 Q1715.77 540.966 1712.13 540.966 M1712.13 537.262 Q1717.94 537.262 1721 541.868 Q1724.08 546.452 1724.08 555.202 Q1724.08 563.929 1721 568.535 Q1717.94 573.118 1712.13 573.118 Q1706.32 573.118 1703.24 568.535 Q1700.19 563.929 1700.19 555.202 Q1700.19 546.452 1703.24 541.868 Q1706.32 537.262 1712.13 537.262 Z" fill="#000000" fill-rule="nonzero" fill-opacity="1" /><path clip-path="url(#clip320)" d="M1659.31 328.926 L1666.95 328.926 L1666.95 302.56 L1658.64 304.227 L1658.64 299.967 L1666.9 298.301 L1671.58 298.301 L1671.58 328.926 L1679.21 328.926 L1679.21 332.861 L1659.31 332.861 L1659.31 328.926 Z" fill="#000000" fill-rule="nonzero" fill-opacity="1" /><path clip-path="url(#clip320)" d="M1688.66 326.981 L1693.54 326.981 L1693.54 332.861 L1688.66 332.861 L1688.66 326.981 Z" fill="#000000" fill-rule="nonzero" fill-opacity="1" /><path clip-path="url(#clip320)" d="M1707.76 328.926 L1724.08 328.926 L1724.08 332.861 L1702.13 332.861 L1702.13 328.926 Q1704.79 326.171 1709.38 321.541 Q1713.98 316.889 1715.16 315.546 Q1717.41 313.023 1718.29 311.287 Q1719.19 309.528 1719.19 307.838 Q1719.19 305.083 1717.25 303.347 Q1715.33 301.611 1712.22 301.611 Q1710.02 301.611 1707.57 302.375 Q1705.14 303.139 1702.36 304.69 L1702.36 299.967 Q1705.19 298.833 1707.64 298.254 Q1710.09 297.676 1712.13 297.676 Q1717.5 297.676 1720.7 300.361 Q1723.89 303.046 1723.89 307.537 Q1723.89 309.666 1723.08 311.588 Q1722.29 313.486 1720.19 316.078 Q1719.61 316.75 1716.51 319.967 Q1713.4 323.162 1707.76 328.926 Z" fill="#000000" fill-rule="nonzero" fill-opacity="1" /><path clip-path="url(#clip320)" d="M1657.22 89.3393 L1664.86 89.3393 L1664.86 62.9737 L1656.55 64.6404 L1656.55 60.3811 L1664.82 58.7145 L1669.49 58.7145 L1669.49 89.3393 L1677.13 89.3393 L1677.13 93.2745 L1657.22 93.2745 L1657.22 89.3393 Z" fill="#000000" fill-rule="nonzero" fill-opacity="1" /><path clip-path="url(#clip320)" d="M1686.58 87.3949 L1691.46 87.3949 L1691.46 93.2745 L1686.58 93.2745 L1686.58 87.3949 Z" fill="#000000" fill-rule="nonzero" fill-opacity="1" /><path clip-path="url(#clip320)" d="M1714.49 62.7885 L1702.69 81.2375 L1714.49 81.2375 L1714.49 62.7885 M1713.27 58.7145 L1719.15 58.7145 L1719.15 81.2375 L1724.08 81.2375 L1724.08 85.1264 L1719.15 85.1264 L1719.15 93.2745 L1714.49 93.2745 L1714.49 85.1264 L1698.89 85.1264 L1698.89 80.6125 L1713.27 58.7145 Z" fill="#000000" fill-rule="nonzero" fill-opacity="1" /><polyline clip-path="url(#clip323)" style="stroke:#009af9; stroke-linecap:round; stroke-linejoin:round; stroke-width:4; stroke-opacity:1; fill:none" points="1811.15,1034.34 1814.42,555.171 1817.68,555.167 1820.95,555.167 1824.21,555.167 1827.47,555.167 1830.74,555.167 1834,555.167 1837.27,555.167 1840.53,555.167 1843.8,555.167 1847.06,555.167 1850.33,555.167 1853.59,555.167 1856.85,555.167 1860.12,555.167 1863.38,555.167 1866.65,555.167 1869.91,555.167 1873.18,555.167 1876.44,555.167 1879.71,555.167 1882.97,555.167 1886.23,555.167 1889.5,555.167 1892.76,555.167 1896.03,555.167 1899.29,555.167 1902.56,555.167 1905.82,555.167 1909.09,555.167 1912.35,555.167 1915.62,555.167 1918.88,555.167 1922.14,555.167 1925.41,555.167 1928.67,555.167 1931.94,555.167 1935.2,555.167 1938.47,555.167 1941.73,555.167 1945,555.167 1948.26,555.167 1951.52,555.167 1954.79,555.167 1958.05,555.167 1961.32,555.167 1964.58,555.167 1967.85,555.167 1971.11,555.167 1974.38,555.167 1977.64,555.167 1980.9,555.167 1984.17,555.167 1987.43,555.167 1990.7,555.167 1993.96,555.167 1997.23,555.167 2000.49,555.167 2003.76,555.167 2007.02,555.167 2010.29,555.167 2013.55,555.167 2016.81,555.167 2020.08,555.167 2023.34,555.167 2026.61,555.167 2029.87,555.167 2033.14,555.167 2036.4,555.167 2039.67,555.167 2042.93,555.167 2046.19,555.167 2049.46,555.167 2052.72,555.167 2055.99,555.167 2059.25,555.167 2062.52,555.167 2065.78,555.167 2069.05,555.167 2072.31,555.167 2075.57,555.167 2078.84,555.167 2082.1,555.167 2085.37,555.167 2088.63,555.167 2091.9,555.167 2095.16,555.167 2098.43,555.167 2101.69,555.167 2104.96,555.167 2108.22,555.167 2111.48,555.167 2114.75,555.167 2118.01,555.167 2121.28,555.167 2124.54,555.167 2127.81,555.167 2131.07,555.167 2134.34,555.167 2137.6,555.167 2140.86,555.167 2144.13,555.167 2147.39,555.167 2150.66,555.167 2153.92,555.167 2157.19,555.167 2160.45,555.167 2163.72,555.167 2166.98,555.167 2170.24,555.167 2173.51,555.167 2176.77,555.167 2180.04,555.167 2183.3,555.167 2186.57,555.167 2189.83,555.167 2193.1,555.167 2196.36,555.167 2199.63,555.167 2202.89,555.167 2206.15,555.167 2209.42,555.167 2212.68,555.167 2215.95,555.167 2219.21,555.167 2222.48,555.167 2225.74,555.167 2229.01,555.167 2232.27,555.167 2235.53,555.167 2238.8,555.167 2242.06,555.167 2245.33,555.167 2248.59,555.167 2251.86,555.167 2255.12,555.167 2258.39,555.167 2261.65,555.167 2264.91,555.167 2268.18,555.167 2271.44,555.167 2274.71,555.167 2277.97,555.167 2281.24,555.167 2284.5,555.167 2287.77,555.167 2291.03,555.167 2294.29,555.167 2297.56,555.167 2300.82,555.167 2304.09,555.167 2307.35,555.167 2310.62,555.167 2313.88,555.167 2317.15,555.167 2320.41,555.167 2323.68,555.167 2326.94,555.167 2330.2,555.167 2333.47,555.167 2336.73,555.167 2340,555.167 2343.26,555.167 2346.53,555.167 2349.79,555.167 2353.06,555.167 2356.32,555.167 2359.58,555.167 2362.85,555.167 2366.11,555.167 2369.38,555.167 2372.64,555.167 2375.91,555.167 2379.17,555.167 2382.44,555.167 2385.7,555.167 2388.96,555.167 2392.23,555.167 2395.49,555.167 2398.76,555.167 2402.02,555.167 2405.29,555.167 2408.55,555.167 2411.82,555.167 2415.08,555.167 2418.35,555.167 2421.61,555.167 2424.87,555.167 2428.14,555.167 2431.4,555.167 2434.67,555.167 2437.93,555.167 2441.2,555.167 2444.46,555.167 2447.73,555.167 2450.99,555.167 2454.25,555.167 2457.52,555.167 2460.78,555.167 2464.05,555.167 2467.31,555.167 2470.58,555.167 2473.84,555.167 2477.11,555.167 2480.37,555.167 2483.63,555.167 2486.9,555.167 2490.16,555.167 2493.43,555.167 2496.69,555.167 2499.96,555.167 2503.22,555.167 2506.49,555.167 2509.75,555.167 2513.02,555.167 2516.28,555.167 2519.54,555.167 2522.81,555.167 2526.07,555.167 2529.34,555.167 2532.6,555.167 2535.87,555.167 2539.13,555.167 2542.4,555.167 2545.66,555.167 2548.92,555.167 2552.19,555.167 2555.45,555.167 2558.72,555.167 2561.98,555.167 2565.25,555.167 2568.51,555.167 2571.78,555.167 2575.04,555.167 2578.3,555.167 2581.57,555.167 2584.83,555.167 2588.1,555.167 2591.36,555.17 2594.63,555.249 2597.89,556.188 2601.16,557.669 2604.42,558.338 2607.69,558.402 2610.95,558.413 2614.21,558.422 2617.48,558.431 2620.74,558.44 2624.01,558.449 2627.27,558.458 2630.54,558.467 2633.8,558.476 2637.07,558.485 2640.33,558.494 2643.59,558.503 2646.86,558.513 2650.12,558.522 2653.39,558.531 2656.65,558.541 2659.92,558.55 2663.18,558.56 2666.45,558.569 2669.71,558.579 2672.97,558.589 2676.24,558.598 2679.5,558.608 2682.77,558.618 2686.03,558.628 2689.3,558.638 2692.56,558.648 2695.83,558.658 2699.09,558.668 2702.36,558.679 2705.62,558.689 2708.88,558.699 2712.15,558.71 2715.41,558.72 2718.68,558.731 2721.94,558.741 2725.21,558.752 2728.47,558.763 2731.74,558.773 2735,558.784 2738.26,558.795 2741.53,558.806 2744.79,558.817 2748.06,558.828 2751.32,558.84 2754.59,558.851 2757.85,558.862 2761.12,558.874 2764.38,558.885 2767.64,558.897 2770.91,558.909 2774.17,558.92 2777.44,558.932 2780.7,558.944 2783.97,558.956 2787.23,558.968 2790.5,558.98 2793.76,620.971 2797.03,938.752 2800.29,673.383 2803.55,559.03 2806.82,922.362 2810.08,1034.34 2813.35,1034.34 2816.61,1034.34 2819.88,1034.34 2823.14,1034.34 2826.41,1034.34 2829.67,1034.34 2832.93,1034.34 2836.2,1034.34 2839.46,1034.34 2842.73,1034.34 2845.99,1034.34 2849.26,1034.34 2852.52,1034.34 2855.79,1034.34 2859.05,1034.34 2862.31,1034.34 2865.58,1034.34 2868.84,1034.34 2872.11,1034.34 2875.37,1034.34 2878.64,1034.34 2881.9,1034.34 2885.17,1034.34 2888.43,1034.34 2891.7,1034.34 2894.96,1034.34 2898.22,1034.34 2901.49,1034.34 2904.75,1034.34 2908.02,1034.34 2911.28,1034.34 2914.55,1034.34 2917.81,1034.34 2921.08,1034.34 2924.34,1034.34 2927.6,1034.34 2930.87,1034.34 2934.13,1034.34 2937.4,1034.34 2940.66,1034.34 2943.93,1034.34 2947.19,1034.34 2950.46,1034.34 2953.72,1034.34 2956.98,1034.34 2960.25,1034.34 2963.51,1034.34 2966.78,1034.34 2970.04,1034.34 2973.31,1034.34 2976.57,883.561 2979.84,157.155 2983.1,75.9944 2986.37,75.9944 2989.63,75.9944 2992.89,75.9944 2996.16,75.9944 2999.42,75.9944 3002.69,75.9944 3005.95,75.9944 3009.22,75.9944 3012.48,75.9944 3015.75,75.9944 3019.01,75.9944 3022.27,75.9944 3025.54,75.9944 3028.8,75.9944 3032.07,75.9944 3035.33,75.9944 3038.6,75.9944 3041.86,75.9944 3045.13,75.9944 3048.39,75.9944 3051.65,75.9944 3054.92,75.9944 3058.18,75.9944 3061.45,75.9944 3064.71,75.9944 3067.98,75.9944 3071.24,75.9944 3074.51,75.9944 3077.77,75.9944 3081.04,75.9944 3084.3,75.9944 3087.56,75.9944 3090.83,75.9944 3094.09,75.9944 3097.36,75.9944 3100.62,75.9944 3103.89,75.9944 3107.15,75.9944 3110.42,75.9944 3113.68,75.9944 "/>
<path clip-path="url(#clip320)" d="M1818.1 184.786 L2307.76 184.786 L2307.76 81.1056 L1818.1 81.1056  Z" fill="#ffffff" fill-rule="evenodd" fill-opacity="1"/>
<polyline clip-path="url(#clip320)" style="stroke:#000000; stroke-linecap:round; stroke-linejoin:round; stroke-width:4; stroke-opacity:1; fill:none" points="1818.1,184.786 2307.76,184.786 2307.76,81.1056 1818.1,81.1056 1818.1,184.786 "/>
<polyline clip-path="url(#clip320)" style="stroke:#009af9; stroke-linecap:round; stroke-linejoin:round; stroke-width:4; stroke-opacity:1; fill:none" points="1833.44,132.946 1925.48,132.946 "/>
<path clip-path="url(#clip320)" d="M1952.72 127.286 Q1949.3 127.286 1947.31 129.971 Q1945.32 132.633 1945.32 137.286 Q1945.32 141.939 1947.28 144.624 Q1949.27 147.286 1952.72 147.286 Q1956.13 147.286 1958.12 144.601 Q1960.11 141.915 1960.11 137.286 Q1960.11 132.679 1958.12 129.994 Q1956.13 127.286 1952.72 127.286 M1952.72 123.675 Q1958.28 123.675 1961.45 127.286 Q1964.62 130.897 1964.62 137.286 Q1964.62 143.652 1961.45 147.286 Q1958.28 150.897 1952.72 150.897 Q1947.14 150.897 1943.97 147.286 Q1940.83 143.652 1940.83 137.286 Q1940.83 130.897 1943.97 127.286 Q1947.14 123.675 1952.72 123.675 Z" fill="#000000" fill-rule="nonzero" fill-opacity="1" /><path clip-path="url(#clip320)" d="M1975.8 146.337 L1975.8 160.087 L1971.52 160.087 L1971.52 124.3 L1975.8 124.3 L1975.8 128.235 Q1977.14 125.92 1979.18 124.809 Q1981.24 123.675 1984.09 123.675 Q1988.81 123.675 1991.75 127.425 Q1994.71 131.175 1994.71 137.286 Q1994.71 143.397 1991.75 147.147 Q1988.81 150.897 1984.09 150.897 Q1981.24 150.897 1979.18 149.786 Q1977.14 148.652 1975.8 146.337 M1990.29 137.286 Q1990.29 132.587 1988.35 129.925 Q1986.43 127.24 1983.05 127.24 Q1979.67 127.24 1977.72 129.925 Q1975.8 132.587 1975.8 137.286 Q1975.8 141.985 1977.72 144.67 Q1979.67 147.332 1983.05 147.332 Q1986.43 147.332 1988.35 144.67 Q1990.29 141.985 1990.29 137.286 Z" fill="#000000" fill-rule="nonzero" fill-opacity="1" /><path clip-path="url(#clip320)" d="M2005.99 116.939 L2005.99 124.3 L2014.76 124.3 L2014.76 127.61 L2005.99 127.61 L2005.99 141.684 Q2005.99 144.855 2006.84 145.758 Q2007.72 146.661 2010.39 146.661 L2014.76 146.661 L2014.76 150.226 L2010.39 150.226 Q2005.45 150.226 2003.58 148.397 Q2001.7 146.545 2001.7 141.684 L2001.7 127.61 L1998.58 127.61 L1998.58 124.3 L2001.7 124.3 L2001.7 116.939 L2005.99 116.939 Z" fill="#000000" fill-rule="nonzero" fill-opacity="1" /><path clip-path="url(#clip320)" d="M2020.36 124.3 L2024.62 124.3 L2024.62 150.226 L2020.36 150.226 L2020.36 124.3 M2020.36 114.207 L2024.62 114.207 L2024.62 119.601 L2020.36 119.601 L2020.36 114.207 Z" fill="#000000" fill-rule="nonzero" fill-opacity="1" /><path clip-path="url(#clip320)" d="M2053.72 129.277 Q2055.32 126.406 2057.54 125.041 Q2059.76 123.675 2062.77 123.675 Q2066.82 123.675 2069.02 126.522 Q2071.22 129.346 2071.22 134.578 L2071.22 150.226 L2066.94 150.226 L2066.94 134.716 Q2066.94 130.99 2065.62 129.184 Q2064.3 127.379 2061.59 127.379 Q2058.28 127.379 2056.36 129.578 Q2054.44 131.777 2054.44 135.573 L2054.44 150.226 L2050.15 150.226 L2050.15 134.716 Q2050.15 130.966 2048.83 129.184 Q2047.51 127.379 2044.76 127.379 Q2041.5 127.379 2039.58 129.601 Q2037.65 131.8 2037.65 135.573 L2037.65 150.226 L2033.37 150.226 L2033.37 124.3 L2037.65 124.3 L2037.65 128.328 Q2039.11 125.943 2041.15 124.809 Q2043.19 123.675 2045.99 123.675 Q2048.81 123.675 2050.78 125.11 Q2052.77 126.545 2053.72 129.277 Z" fill="#000000" fill-rule="nonzero" fill-opacity="1" /><path clip-path="url(#clip320)" d="M2091.5 137.193 Q2086.33 137.193 2084.34 138.374 Q2082.35 139.554 2082.35 142.402 Q2082.35 144.67 2083.83 146.013 Q2085.34 147.332 2087.91 147.332 Q2091.45 147.332 2093.58 144.832 Q2095.73 142.309 2095.73 138.142 L2095.73 137.193 L2091.5 137.193 M2099.99 135.434 L2099.99 150.226 L2095.73 150.226 L2095.73 146.29 Q2094.27 148.652 2092.1 149.786 Q2089.92 150.897 2086.77 150.897 Q2082.79 150.897 2080.43 148.675 Q2078.09 146.429 2078.09 142.679 Q2078.09 138.304 2081.01 136.082 Q2083.95 133.86 2089.76 133.86 L2095.73 133.86 L2095.73 133.443 Q2095.73 130.504 2093.79 128.906 Q2091.87 127.286 2088.37 127.286 Q2086.15 127.286 2084.04 127.818 Q2081.94 128.351 2079.99 129.416 L2079.99 125.48 Q2082.33 124.578 2084.53 124.138 Q2086.73 123.675 2088.81 123.675 Q2094.44 123.675 2097.21 126.591 Q2099.99 129.508 2099.99 135.434 Z" fill="#000000" fill-rule="nonzero" fill-opacity="1" /><path clip-path="url(#clip320)" d="M2108.76 114.207 L2113.02 114.207 L2113.02 150.226 L2108.76 150.226 L2108.76 114.207 Z" fill="#000000" fill-rule="nonzero" fill-opacity="1" /><path clip-path="url(#clip320)" d="M2155.66 125.295 L2155.66 129.277 Q2153.86 128.281 2152.03 127.795 Q2150.22 127.286 2148.37 127.286 Q2144.23 127.286 2141.94 129.925 Q2139.64 132.541 2139.64 137.286 Q2139.64 142.031 2141.94 144.67 Q2144.23 147.286 2148.37 147.286 Q2150.22 147.286 2152.03 146.8 Q2153.86 146.29 2155.66 145.295 L2155.66 149.23 Q2153.88 150.064 2151.96 150.48 Q2150.06 150.897 2147.91 150.897 Q2142.05 150.897 2138.6 147.216 Q2135.15 143.536 2135.15 137.286 Q2135.15 130.943 2138.63 127.309 Q2142.12 123.675 2148.19 123.675 Q2150.15 123.675 2152.03 124.092 Q2153.9 124.485 2155.66 125.295 Z" fill="#000000" fill-rule="nonzero" fill-opacity="1" /><path clip-path="url(#clip320)" d="M2173.12 127.286 Q2169.69 127.286 2167.7 129.971 Q2165.71 132.633 2165.71 137.286 Q2165.71 141.939 2167.68 144.624 Q2169.67 147.286 2173.12 147.286 Q2176.52 147.286 2178.51 144.601 Q2180.5 141.915 2180.5 137.286 Q2180.5 132.679 2178.51 129.994 Q2176.52 127.286 2173.12 127.286 M2173.12 123.675 Q2178.67 123.675 2181.84 127.286 Q2185.01 130.897 2185.01 137.286 Q2185.01 143.652 2181.84 147.286 Q2178.67 150.897 2173.12 150.897 Q2167.54 150.897 2164.37 147.286 Q2161.22 143.652 2161.22 137.286 Q2161.22 130.897 2164.37 127.286 Q2167.54 123.675 2173.12 123.675 Z" fill="#000000" fill-rule="nonzero" fill-opacity="1" /><path clip-path="url(#clip320)" d="M2213.63 134.578 L2213.63 150.226 L2209.37 150.226 L2209.37 134.716 Q2209.37 131.036 2207.93 129.207 Q2206.5 127.379 2203.63 127.379 Q2200.18 127.379 2198.19 129.578 Q2196.19 131.777 2196.19 135.573 L2196.19 150.226 L2191.91 150.226 L2191.91 124.3 L2196.19 124.3 L2196.19 128.328 Q2197.72 125.99 2199.78 124.832 Q2201.87 123.675 2204.57 123.675 Q2209.04 123.675 2211.33 126.453 Q2213.63 129.207 2213.63 134.578 Z" fill="#000000" fill-rule="nonzero" fill-opacity="1" /><path clip-path="url(#clip320)" d="M2226.33 116.939 L2226.33 124.3 L2235.11 124.3 L2235.11 127.61 L2226.33 127.61 L2226.33 141.684 Q2226.33 144.855 2227.19 145.758 Q2228.07 146.661 2230.73 146.661 L2235.11 146.661 L2235.11 150.226 L2230.73 150.226 Q2225.8 150.226 2223.93 148.397 Q2222.05 146.545 2222.05 141.684 L2222.05 127.61 L2218.93 127.61 L2218.93 124.3 L2222.05 124.3 L2222.05 116.939 L2226.33 116.939 Z" fill="#000000" fill-rule="nonzero" fill-opacity="1" /><path clip-path="url(#clip320)" d="M2255.73 128.281 Q2255.01 127.865 2254.16 127.679 Q2253.32 127.471 2252.31 127.471 Q2248.69 127.471 2246.75 129.832 Q2244.83 132.17 2244.83 136.568 L2244.83 150.226 L2240.55 150.226 L2240.55 124.3 L2244.83 124.3 L2244.83 128.328 Q2246.17 125.966 2248.32 124.832 Q2250.48 123.675 2253.56 123.675 Q2254 123.675 2254.53 123.744 Q2255.06 123.791 2255.71 123.906 L2255.73 128.281 Z" fill="#000000" fill-rule="nonzero" fill-opacity="1" /><path clip-path="url(#clip320)" d="M2269.2 127.286 Q2265.78 127.286 2263.79 129.971 Q2261.8 132.633 2261.8 137.286 Q2261.8 141.939 2263.76 144.624 Q2265.75 147.286 2269.2 147.286 Q2272.61 147.286 2274.6 144.601 Q2276.59 141.915 2276.59 137.286 Q2276.59 132.679 2274.6 129.994 Q2272.61 127.286 2269.2 127.286 M2269.2 123.675 Q2274.76 123.675 2277.93 127.286 Q2281.1 130.897 2281.1 137.286 Q2281.1 143.652 2277.93 147.286 Q2274.76 150.897 2269.2 150.897 Q2263.62 150.897 2260.45 147.286 Q2257.31 143.652 2257.31 137.286 Q2257.31 130.897 2260.45 127.286 Q2263.62 123.675 2269.2 123.675 Z" fill="#000000" fill-rule="nonzero" fill-opacity="1" /><path clip-path="url(#clip320)" d="M2288.16 114.207 L2292.42 114.207 L2292.42 150.226 L2288.16 150.226 L2288.16 114.207 Z" fill="#000000" fill-rule="nonzero" fill-opacity="1" /></svg>
